<mxfile host="app.diagrams.net" agent="Mozilla/5.0 (Windows NT 10.0; Win64; x64) AppleWebKit/537.36 (KHTML, like Gecko) Chrome/137.0.0.0 Safari/537.36" version="27.1.4" pages="4">
  <diagram name="Generative AI" id="u7kedSWXvxDPcpM9lHpE">
    <mxGraphModel dx="1090" dy="539" grid="1" gridSize="10" guides="1" tooltips="1" connect="1" arrows="1" fold="1" page="1" pageScale="1" pageWidth="850" pageHeight="1100" math="0" shadow="0">
      <root>
        <mxCell id="0" />
        <mxCell id="1" parent="0" />
        <mxCell id="-mRLylJqKK2NLxpwGdcg-4" value="" style="edgeStyle=orthogonalEdgeStyle;rounded=0;orthogonalLoop=1;jettySize=auto;html=1;" edge="1" parent="1" source="-mRLylJqKK2NLxpwGdcg-2" target="-mRLylJqKK2NLxpwGdcg-3">
          <mxGeometry relative="1" as="geometry" />
        </mxCell>
        <mxCell id="-mRLylJqKK2NLxpwGdcg-2" value="&lt;b&gt;Generative AI&lt;/b&gt;" style="rounded=1;whiteSpace=wrap;html=1;" vertex="1" parent="1">
          <mxGeometry x="290" width="235" height="30" as="geometry" />
        </mxCell>
        <mxCell id="-mRLylJqKK2NLxpwGdcg-6" value="" style="edgeStyle=orthogonalEdgeStyle;rounded=0;orthogonalLoop=1;jettySize=auto;html=1;" edge="1" parent="1" source="-mRLylJqKK2NLxpwGdcg-3" target="-mRLylJqKK2NLxpwGdcg-5">
          <mxGeometry relative="1" as="geometry" />
        </mxCell>
        <mxCell id="-mRLylJqKK2NLxpwGdcg-3" value="&lt;strong&gt;Data Collection&lt;br&gt;&lt;/strong&gt;Gather raw data (text, images, audio, etc.)&lt;strong&gt;&lt;/strong&gt;" style="whiteSpace=wrap;html=1;rounded=1;" vertex="1" parent="1">
          <mxGeometry x="277.5" y="50" width="260" height="40" as="geometry" />
        </mxCell>
        <mxCell id="-mRLylJqKK2NLxpwGdcg-8" value="" style="edgeStyle=orthogonalEdgeStyle;rounded=0;orthogonalLoop=1;jettySize=auto;html=1;" edge="1" parent="1" source="-mRLylJqKK2NLxpwGdcg-5" target="-mRLylJqKK2NLxpwGdcg-7">
          <mxGeometry relative="1" as="geometry" />
        </mxCell>
        <mxCell id="-mRLylJqKK2NLxpwGdcg-5" value="&lt;strong&gt;Data Preprocessing&lt;br&gt;&lt;/strong&gt;Clean and prepare the data for training&lt;strong&gt;&lt;/strong&gt;" style="whiteSpace=wrap;html=1;rounded=1;" vertex="1" parent="1">
          <mxGeometry x="277.5" y="110" width="260" height="40" as="geometry" />
        </mxCell>
        <mxCell id="-mRLylJqKK2NLxpwGdcg-10" value="" style="edgeStyle=orthogonalEdgeStyle;rounded=0;orthogonalLoop=1;jettySize=auto;html=1;" edge="1" parent="1" source="-mRLylJqKK2NLxpwGdcg-7" target="-mRLylJqKK2NLxpwGdcg-9">
          <mxGeometry relative="1" as="geometry" />
        </mxCell>
        <mxCell id="-mRLylJqKK2NLxpwGdcg-7" value="&lt;strong&gt;Model Selection&lt;br&gt;&lt;/strong&gt;Choose the right model architecture (GANs, VAEs, Transformers)&lt;strong&gt;&lt;/strong&gt;" style="whiteSpace=wrap;html=1;rounded=1;" vertex="1" parent="1">
          <mxGeometry x="278.75" y="171" width="257.5" height="60" as="geometry" />
        </mxCell>
        <mxCell id="-mRLylJqKK2NLxpwGdcg-12" value="" style="edgeStyle=orthogonalEdgeStyle;rounded=0;orthogonalLoop=1;jettySize=auto;html=1;" edge="1" parent="1" source="-mRLylJqKK2NLxpwGdcg-9" target="-mRLylJqKK2NLxpwGdcg-11">
          <mxGeometry relative="1" as="geometry" />
        </mxCell>
        <mxCell id="-mRLylJqKK2NLxpwGdcg-9" value="&lt;strong&gt;Training&lt;br&gt;&lt;/strong&gt;Train the model on the prepared data&lt;strong&gt;&lt;/strong&gt;" style="whiteSpace=wrap;html=1;rounded=1;" vertex="1" parent="1">
          <mxGeometry x="277.5" y="257" width="260" height="43" as="geometry" />
        </mxCell>
        <mxCell id="-mRLylJqKK2NLxpwGdcg-14" value="" style="edgeStyle=orthogonalEdgeStyle;rounded=0;orthogonalLoop=1;jettySize=auto;html=1;" edge="1" parent="1" source="-mRLylJqKK2NLxpwGdcg-11" target="-mRLylJqKK2NLxpwGdcg-13">
          <mxGeometry relative="1" as="geometry" />
        </mxCell>
        <mxCell id="-mRLylJqKK2NLxpwGdcg-11" value="&lt;strong&gt;Evaluation&lt;br&gt;&lt;/strong&gt;Measure model performance using appropriate metrics&lt;strong&gt;&lt;/strong&gt;" style="whiteSpace=wrap;html=1;rounded=1;" vertex="1" parent="1">
          <mxGeometry x="277.5" y="323" width="260" height="60" as="geometry" />
        </mxCell>
        <mxCell id="-mRLylJqKK2NLxpwGdcg-13" value="&lt;strong&gt;Applications&lt;br&gt;&lt;/strong&gt;Use the trained model for real-world tasks like text generation, image creation, etc.&lt;strong&gt;&lt;/strong&gt;" style="whiteSpace=wrap;html=1;rounded=1;" vertex="1" parent="1">
          <mxGeometry x="277.5" y="407" width="260" height="60" as="geometry" />
        </mxCell>
        <mxCell id="-mRLylJqKK2NLxpwGdcg-15" value="" style="shape=image;verticalLabelPosition=bottom;labelBackgroundColor=default;verticalAlign=top;aspect=fixed;imageAspect=0;image=data:image/png,iVBORw0KGgoAAAANSUhEUgAAAjIAAADQCAYAAAAd34v5AAAAAXNSR0IArs4c6QAAAARnQU1BAACxjwv8YQUAAAAJcEhZcwAADsMAAA7DAcdvqGQAAD8pSURBVHhe7Z0HmFRF1oYPWYLkHBWVNSFJ1gAYUFGCLiLKGnZBV0RFzMIihhVBlFVXMaIuYlZAREBUUNE1siphEQUjkn6SBAHJ8M976BqbprunZ5iB6eF7n+c+M7fuvXXrVp1b9dU51d2FKleuvN2EyGeccsop9u6770b2hMg9ZFtCFCwKR/4KIYQQQqQdEjJCCCGESFskZIQQQgiRtkjICCGEECJtkZARQgghRNoiISOEEEKItEVCRgghhBBpi4SMEEIIIdKWlITMYYcdZq+99ppNmDDBjj322EiqEPmHFi1a2BNPPGHvvfee/ec//7F33nnHBg0aFDmaf+jZs6ddffXVVqRIkUjK7vOvf/3LPvjgA7vqqqsiKTsYNmyYjRgxwg488MBIisgJF110kY0aNcref/99mzx5sg0fPtztLRF5We8nn3yyvfXWW7vk37lzZ/+SP+xLiH2NlIQML23x4sX9/6OPPtr/7il4QelEOnXqFEkRYmdOPPFE+/vf/26VK1f2QebGG2+0119/3QoVKhQ5Y+9QvXp1e/DBB+3xxx/3/XLlylmzZs18q1KliqftLo0aNbJ69erZypUrrXHjxrkqkIRZ9+7d7ZJLLrEVK1bYXXfdZU899ZSVKlXK7Q27A4TpyJEj7Y9//KPv5yUtW7a0zZs3W+nSpd2OhBApCpmmTZvat99+a3PmzHEhQ4e8p6hWrZpVqFDBChdWFEzsCrZ48cUX22+//eaDy7PPPmv//e9/7aGHHvL9vUnJkiWtRo0amZOA1atX+6DYtWtXW7x4saftLs2bN7dt27a5B4p3pVWrVpEjYneh7fg5gx9//NF69+5tEydOtBdeeMHuueceP37mmWf6X85DWOQ1CGO845988on98ssv8o4LESFLdYDq50WdOnWqff7551apUiVr0qSJH2vQoIE9/fTT7m7Ftd2/f393d+L25IXnGO7YN954w8455xy/htnjI4884tewPfDAA54/M8nrr7/e3nzzTc/r5ZdftltvvdW6dOlixYoV81lPfgwViL0LIpsO/tNPP3WxHY9ENhfc8YRmsDtslWPly5f367p162bjxo3zUBV/scVg36+++qqNGTPGwwjMzEnjejbs/qSTTvIBj7IdfPDBHpY966yz/DyuufTSS118XHDBBX4vzuccvEmJyhsL7wzPP3/+fB9kN27cuMc9pgWZQw891G1h+vTptmrVqkiq2Zdffmn/93//ZzVr1rT777/fPdZlypSxe++9NzO0Q9vQf6Xa/wVbxHYShYgQrdzns88+s//97392wAEHeB8sxL5OSkJm69at9sUXX/gW3Vn+5S9/cWHDbIXO/LbbbvN0wIsyfvx469Wrly1fvtw7bDoGzkWYsI+rlk7+wgsv9Jlq+/btfbZx+eWX26JFi+ztt9+2V155xV2pQ4YMsb59+0ZyF2IH2B8eiQULFvh+GBAQH2FNVyKbCzBY3XzzzX7NEUcc4esQOnTo4IMPgvr000+32bNn23nnnecDEey3334+IGG32PeTTz5pbdu2dU9Q7dq13db79Onjnpfvv//e2rVrZzNnzvRrgXvhoUGIAO/Uli1bXMRnVd4AoaQwyUDEzZ0714488sg96jEtyATbiuc9wyNStGhRb++PP/7Y1q5d6yIUmwBsiv6SyRd5YEOIm6zalnNZkxPyiQYbQVDR3uRdokQJCVchMkgqZHjxiPtWrVrVhg4d6vFh/j/qqKO8s/z555/dpXrDDTf4y4crPUCnyqyVzhtXP8cQRcwi6OQRKMxYypYtm+nlWbJkiQ8I33zzjQ8gy5Yti+QmRHwIKTGgsD4G8HIwWNDRw0EHHZTQ5gKcO23aNJ/lAseOOeYYt/EePXq4oGYfG+ZawFYnTZrk/zOIMVDhbWEmzQDDu5MMhMdPP/1kdevW9cGM8gUxllV5A8cdd5xVrFjR13EgjHhX8QAFcSR2j1jbiob22LBhg6+diQdCBy8ftkM/hicFgZxV2yJS8PbEgieQsBLX4x3E+4194qURYl8nqZDhJSHuPnr0aJ9tsPEC8uLRWSJsbr/9dp+x4IYfPHhw5loWPDcBZiDRMACccMIJmRueFjoMZqTr16/3cxA/dPRCJAPRyyyVmSmzYP7H9R9tfxDP5uKB/SJEgLzwKIZrYr0qAd4LBhjeBdblIGxSAe8LE4EzzjjDJwgfffSRz8ghq/IilPDIsG4tvJvM/hlcNbjlDnjS1qxZk2lbARbcElaif8Krlgr0b8GuUrXFaJgEYiv0uaG9Ee3YHQJHiH2ZpEKGF5aOnZgswoKNzpZQE8eAfV5EFsTRGSN8gFkmrnYEz/HHH+8zFK5ndsLMkWN0DnhzWDvADBWXPGthmEVfccUV7ib/9ddfvXMnVCVELAwmCAJmrAjpNm3aeJgzzKIXLlyY0OaSgUBi4CAEwDWsYUGoxIPzEBDYOOcFzySzddJZ7BtvjQueIAZK3iXOY50Pg2cq5WVRL4MpXqTwbuIBICSLwMEzI3YP+iTWsdSvXz/Ttv7617/6Wj76JD4ZB3xiLJHnJpp58+blyBaBEOm6devsww8/zGxv7AdbS/ZRcCH2BRIKGdyWCAlmHISJAl999ZV32MwC7r77bl/Mxvca0HHiWg9uUWbEf/vb33whJR+Dfeyxx+y7777z2C8dPOsH+G4aOl08OqTzkjJDCQso8dBMmTLF1yCwHufOO+/0vIWIBtthkSRhFta64HavVauWu+nxWCSyuWTgeWSRJiHPsWPH+rWbNm2KHN0ZBAReSj76TagIUQK8O5QBwcFM+vDDD/f0AO/KrFmz/DjCKczwUykvXgIGTyYQ0TD48tFuhZdyB/qt559/3vu3fv36+SfkmFzRF9G2QB9Fm9NerO9LBJ66nNgiC3oR6vSD0V5qbJs81dZiX6dQxixie+T/XIEXjk9r8IKxEFKInMDHXlm0K0RuI9sSomCRNLQkhBBCCJGfkZARQgghRNqS60KGGC7ft6GwkhBCCCHyGnlkhBBCCJG2SMgIIYQQIm2RkBFCCCFE2iIhI4QQQoi0RUJGCCGEEGmLhIwQQggh0hYJGSGEEEKkLRIyQgghhEhbCnXp0iVXf2tJiNxg1apV/uvAQgghRDIK1atXT0JG5DuOPfZY++yzzyJ7QuQesi0hChYKLQkhhBAibZGQEUIIIUTaIiEjhBBCiLRFQkYIIYQQaYuEjBBCCCHSFgkZIYQQQqQtEjJCCCGESFskZIQQQgiRtkjICCGEECJtkZARQgghRNqinygQ+ZLsfo18pRYNrO4lLa1c/UqRlPgULlzYipcoam8dOzCSIvY1smtbZ5Q5wAZWO85Kli9nPWe9YZM3zI8c+Z06Rfa34XVOtXr1a1nf/020kcu/jRwRQuQ1WXpkihQpYhdddJG9/PLLNmHCBBs/frzdddddVrZs2cgZ4pFHHvEtN6hevbr985//9Hp+44037NFHH7WDDz44clQkoni9irZl61bbuHFT0m39+g0Z522LXLUrtOPtt98e2dsBad27d4/siX2NaoVKWamK5a1E+WL28BFt7ZgS1SJHdlCraGl7pu4pVrduDdu8doNtWLMhcmRnMiaN9swzz+zSVzRr1szTOC6EyD5JhQwi5uabb7Y///nPtnjxYrv33nvtrbfessqVK1uFChUiZ+0eHTt2tGeffdbOOuusSErBpEGDBvb4449bv379IinxqVWrlm3NGJAHDRpkr7/+utWuXdvat28fOSoSsr1Q5G/W25bNWzP+ic+kSZO8DcKgwiADEydO9L9i3+OZNV/bez/Nts1rtth+5UvYk4e1t0bFKvsxRMzzdU6zOnVq2NYNG+3Zbz6zcRvn+bF4bNy40apVqyZhLEQuklTIHH/88daoUSP7/PPP7YYbbrD33nvPHn74YRs5cqQPtrlBlSpVrHz58u7yL8jsv//+LgCLFi0aSYnP9OnT7Y477rCPP/7YZs+ebVu2bLH169dHjoqkbM9QKQm2YpYhyiufY30zNk9LwJgxY2zz5s3Wpk0b3+/QoYMtXbrUfv75Z98X+yY9l0+2cd9Pt82rN1jpSqXsmcPbWbv9atsLdU+x2nWq27YMEfPC7M9s0JqvIlckhv60efPm8sAIkUskXSNzzTXX2AknnGCDBw+2KVOmRFJ/B3dopUqVvONH2PzjH//wjv+UU06xEiVK2PLly+2JJ56wjz76yG655RY7+uijPX3Dhg02btw49/h06tQpkpt53HrAgAF2xRVX7JIHHqHrr7/e6tat66KHPAlxRUN5CHn9+uuvdsABB9hvv/1mzz33nI0dOzZjxlTHn+fQQw/1c7/66it76qmn7KabbrJNmzbZtdde6/e88sor7ZNPPvFnpszkg1eKwSzAeV27dnVhQvkKFSrk9+zZs6f16NHDB8FSpUp5vSBIEIB9+vSx0qVL+/XkNWzYMDv//PPd48LzkA/lD/VMOKlv3762du1au+2222z16tWevq+Q3XUM1c8/zqqcdIiVrl0+kvI7xQoVtT5Vzra6xarYwGUjbXHRX+2Dk/8ZOborzJZbtmzpYQDaeciQIfbll196+9SvX9/PoWwITjw2tBNtS3vTroghkX/Jrm1Fc3u5pnb+wY2sWLlStnX9RitcrKiLmBfnfG7/WJ1cxCBc8MgSoj/ttNO8Hwg2dMkll3ifg2DGS81+sWLF/LrRo0fbk08+6f8LIXYlqRsETwkDKSIiEQzYrOfo1q2bnXjiiT4APPjgg/4iMrhfcMEFLi6Yhdx4440uXObNm2etWrWyN998019SBoChQ4f6S816nHh5kF6xYkUf1Nu1a7eLiAng+WDQoVPAm4HoQDAhYugYLr30Urvvvvt8QCKfH374wfM96KCD7LDDDnNBhugpV66c/50/f/5OIobO6K9//auLJETQq6++aiVLlowcNfvmm2/szjvvdEFHZ4l44/kIFa1bt87TGBznzJnjA96FF15ot956q4s2OjegvJdffrl7YrhuXxMxOWb7dju2VANrXaZhpiemhBWx3lU67RAxS0fYzxsz2jKJRwYIIxECIKT6448/ZooYvGVt27b1tiH8xIBDO8+cOdPTCY9KxBRs7lg91cZ/N9W2ZYiYomVK+STm3e9nZCliYkHwMqnChqJhn76O49gUk6nWrVvvcp4Q4neSChkGUoRKsvUwK1euzJzdNG3a1AUA3oenn37axQEzVa5HFOHZePHFF+2QQw5xLwQDdiyJ8lixYoX/veqqq+y8887bSTxEw6D/7rvv2gcffJB5DaIJAcI6FfLs3bu3Cx7KxSBUvHhxO/zww13c4KmhrITVKAeCI5qGDRu6MMNrM2vWLF/HsmTJksjRjNl/hli67LLLPPzWokUL7+jiPSd1S9iOdTOIM/IM59WoUcM9Xb/88ktSESmiQJtkbCs2r7G/VmhtF1Q40YpZUetd9Ryrh4hZgohZlnleMpgVI7wRuIh0bKdMmTIuwhHftBkil7DookWLfIavNQ/7BrWKlrQWVWpboWJFbXvGBMWKFrYWtQ+xA4uUipyRGohjPLVh8hLApuiTgiDmPELM9BVCiPgkFTI//fSTD/J4SFJl4cKF7nFgNsHG/wiXc88912bMmOHelXhhqmji5YF7f+DAge4dwYvRv3//uAIhFoQF3g6YPHlyZp5seIC+/vpr964ceeSRLnoQZXhQcPcyK586dapfG2CNy/aMGT3hKKAMiBVADDGgIaAuvvjipLNzPEPcA2F19dVX7+T1WbBggV8f++kZkYztrk/mbFxog5e+amfs39SG1OludTJEzIAlL9vcTUv9jB1nZc2yZcu8HQn5AbaA1zDafnD3s/F/48aNPYSpmXPBpU6GiBlZ70SrWqu22ab1NuebabYtYyJXpnIle/2I9nZQ0eyJGTx/CORTTz01kiKEyAlJhczbb7/tYuaMM87wtSt4GPCGMMCytiMWwjR8fLhLly4uCnC19+rVy19WPDCrVq1yr0j0x4nXrFlj27Ztc+8HJMoDEBmIj7lz5/r6FDwXqUB4iIEJ4UCnwb3IkwGI2TezajxBDFZ4WggBIWwYxL79dufvg2AfEcPaoaOOOsrDDzVr1vRjeIkQOnip8OowuAV4TvKnLjiPv4S+uAf1Gu31qlq1qs/6H3jgAX3MPbtk6JRZv82z+5a8Zgs2/WL9F7+0sycmNR2zE9gI4jZ29hwN66OYPWvmXDCpnSFiRh14olWrVS9DxGywEXM+s3ZLPrN7Z//Htq1CzFSxMYe3s/pF4nuK44Fdvfbaa9akSZPM9TD0U3h9gyCmzyIExSRQCBGfpEKG9Sl33323u9kZ2InXsj6EcFPwSETD4ki8LXT4hFbwnDCo4wlBfCCCCBkx0w188cUXHkJBEJB/ojxYUMn3qrAmhY8v0gHguUgFhAkLe8nnuuuusxdeeME7i+AFYV0Lnic6FkJT33//vQuI2LAS4MEh3EAZWL+CCAmzdtZQsJ188sl2//33e/0FEGi4iPHa8N0w06ZN83TW05CH1sHsHoUKFbbtW7ZmCJUMpZKxTf/tRxuw6GWb7yJmR9pOWzZhzRXik9AS26hRo3yQQdSHNEKTw4cPj1whCgr7Fy5qow5oaZVr1LVCm9bbq3M+sZtX7ugbhv62wP415z+2fdUKK125qr1+xBlWo0hxP5YKeG3p/4LXmH0mkHxoAJtiAkkISmuvhEiMvtlX5Euy/amlLsdY6cNrWpk65a1wseQhx+IlS9iUzrnzBYYi/ciubZ1Xtob9/YCGtv9+lWzM91/YTSu+ixz5nWtL17KeDY61dUU22YgFc+yuxfpmXyH2FEXKly//j8j/QuQbCF2m6nGDtbMWZgiZ2rZhxW+2YekaW78k8fbb/BW26tPvI1eKfY3s2tasjWutVYkyNm7BbOu/am4kdWc+27zGVq9ZbuW2b7M7l/5g67flzvdsCSGyRh4ZkS/Zne/6ECIZsi0hChZJ18gIIYQQQuRnJGSEEEIIkbZIyAghhBAibZGQEUIIIUTaIiEjhBBCiLRFQkYIIYQQaYuEjBBCCCHSFgkZIYQQQqQthbp06aIvxBNCCCFEWqJv9hX5En37qsgrZFtCFCwUWhJCCCFE2iIhI4QQQoi0RUJGCCGEEGmLhIwQQggh0hYJGSGEEEKkLRIyQgghhEhbJGSEEEIIkbZIyAghhBAibZGQEUIIIUTaIiEjhBBCiLRFP1Eg8iXZ/Rr5Si0aWN1LWlq5+pUiKfEpXLiwFS9R1N46dmAkRexryLaEKFgk9cg0a9bMRo0aZbfffnskRYj8SfF6FW3L1q22ceOmpNv69RsyztsWuWpXHnnkkV3snbTu3btH9sS+Rn63LfIkn44dO9oTTzxhGZPTyJHcgXzHjh3rYwFjQn6C8jzzzDP+l3K+9NJL2SpjvDbJKbQj+SUiN9o6ENocaG/q4M0337RbbrnF64C62F1yUp/R7O712WGfCi01aNDAHn/8cevXr5/vV61a1e655x574IEHfH9PElsWsZtsLxT5m/W2ZfPWjH/iM2nSJKtVq1bmYBBewokTJ/pfsQ+Sj22LPOrXr2/Dhg2LpGQfyoMASjT4nXbaaTZu3Djr3Lmzffnll5HU/MeYMWPs/PPPT1rGWLHRs2dPu+OOOyJ7OYc6bN68ubfxnoAyU3Zo06aNrV271tq2bWsDBgzwOqAuskusHaRSn8ng+tmzZ1uHDh0iKXnHPiVk9t9/f6tcubIVLVrU90uWLGnVq1e3YsWK+f6eJLYsIhfYnjGSJNiKWRG7ufI51jdj87QE8PJt3rzZOwfgJVy6dKn9/PPPvi/2UWLsKXrbm7bVtGlT+/HHH/O1wNgXaNKkia1ZsyZHAqIgM2PGjJ3Ee16RdI0Mar9v3742c+bMnVRrkSJF7IorrrBTTjnFSpQoYcuXL3cl99FHH7lr6+ijj/b0DRs2uJJntoAKrlSpkr/IW7dutQ8++MDOPvtsmzVrlnsn9ttvP7/PoEGDrEqVKnb99ddb3bp1Pe5MvnfddVfk7jsgv7Jly/q9DznkENuyZYu7P7lXjx49vLMoVaqU3+/jjz+29957z/r06WOlS5f263/55Rf/S5lg3bp1fm86lmuuucYOPfRQT//qq6/cY3PmmWf6tmjRIqtWrZrf66STTvL8oWbNml4WyvXFF1/YjTfeaMcdd5zXA9fgClywYIGfG+o1lIV73nbbbdayZUu/R7ly5Tzfzz//3IYMGWKrV6/28/YlsruOofr5x1mVkw6x0rXLR1J+p1ihotanytlWt1gVG7hspC0u+qt9cPI/I0d3hVkbbYG7tmvXrt4GDBS0LbNfoGy8E9FtSZthf+rM8jcFyba4bvr06fbkk0/6TLpdu3betzVu3NiPjx492o9xX9LCLD7sDx482Pr37+/eaUAUhXMgulzhGNd26tTJ06LLFe4PFStW9P40WmCR17x589xzwTOFfg8hx7Fff/3VjjjiCL+G549XJ0BfShvC119/7RNC6rFOnTp+/4EDB3qe0eXkXv/73//s1FNP9f1QbrxNof4YbBPVRWzZY+uJMtHPkw/E3pvn7N27d+a9op8hjD08d3R6uEeiNOCe4T7kQ/gPz0ywK9rkkksu8cl6uA/iN7b9pk2btsuz411KVJ/x2j3YXfQx6pSow4QJE/K0X8yRR+aiiy7yl/HBBx/0SsIAL7jgAhcWDL4M4jwwDd+qVSurXbu2X4ewGD9+vHXr1s1WrlzpaQzaGChiA/HA+X/+85/9RaDxqaBYERPgWoTQ1Vdf7S6s9u3b+/XffPON3XnnnT7j4QVAWFG5NCKNSRrPQAVjZDQablOMDBFDo1966aV23333+Yt03nnn+f1IX7ZsmT8rwggoA6IGIYeXhRcDQzrmmGPs9ddf9///9re/ZYoYwMCiy0KH1qhRIzv33HPt22+/dYOh0enIOCZSJGM2fGypBta6TMPM2XKJjNly7yqddgw0S0fYzxuXJp01A67+jRs3uh1iG7QXHRn2QXtefvnlPsvgBcbGEOCkn3XWWXn6soq9SD60LQaJ0CcF8DAzgeSaoUOHWuvWrb0fSQQDFP3s/Pnz/fzowRnYp5wIIv6nbzr99NN9wso9GLC6dOmSeQ/uzxiQKAyFEKDv41rCIYwFASaDvXr1yhQx8eqE+zds2DDz/ow9CItYOJdnD+fRj9Kf8xw8T2x9BhHDMc5ngyAYIJSdPBmfuAfw7IwTU6dO9f149471uvGM4T60MW0d8gnXUd/x0qJBFIVnos6/++67yJEd5aJtaCOuDW3CNeHeOBoYs7Kyg1TaPdgd9yBPIF/GXpwTeUmOhAyKjgEcD8fTTz9tBx10kBtThQoVrHz58nbzzTfbiy++6J4SPCp4cADxwsAdDUoQpYyyBgwEAUR+V111lYsIQkDxQIQgImhE8t2e0YngYeHlvuyyy2zkyJHWokULK1SoUGYZksELgkHjIeK5UNCIE54LaBAaaf369b4PoQw8By8V52IMNCrCCs8SM4WsOOqoo/yaESNGuOhBWS9ZssT+8Ic/RM4QSWH8yNhWbF5jf63Q2i6ocKIVs6LWu+o5Vo+BZgkDTUaHHzkvGbx8dMbYIsIbmyhTpoyLcxbUsbaJNuXlZEbEbIkXXRRQ0si2Fi9ebMOHD/f/GahXrFjh/XVugdh4++23M0VK7D24f7I1P9HXxq4ZwvNO/SSrk9j7U4dMCGNhYsjkNpyXFXh1EFah7iC2fOG+bDxzGJxjw3up3BsBQB/P89HGeELw6AMT83DPeGmpQrkoZzwBHBYHU8fUdVZ5p9Luoe4IJzEGZ7e8u0OO18gsXLjQlWZQdvyPcMGrwIPgtZgyZUrk7NRA9BCKefbZZ92dhUi48MILXSnHEyKEqBj8gWsRLIR9ePGp5IsvvniXRkyFyZMnZz4XW3BppgIhMp4fkffhhx+6Z4YFxRh3VvA8mzZtiuztgJCZSIXtPobM2bjQBi991c7Yv6kNqdPd6mQMNAOWvGxzNy31M3aclTXMcrGh0JEwi2amEm0XzGzC7AaXKoI2zNJEQUK2tadJVCch9JEVnIcQzGsYrPHU0OcHsro3IoaoxfPPP+/PhUcFEHGMo6+99po99NBD7pWKl5YqiA/G0GgoL+MpopF7U8fUdbqTkpBBXFD5bHgrfvjhB3cl4VrCc4KbDpcgyg5BsWrVKj/v4IMPjuSQffCwICDmzp3rarlGjRqRI7+DaCH0ROOE9So0HAto8f7gHaITCLAYi0ajnHh5OAchVLx4cX8eVDWdDM9JLBWvE89Fg2cXvDKE3ghBEVKL9crEloW1OPxPyItQHG5AFD+hM5ENMsaSWb/Ns/uWvGYLNv1i/Re/tPNsObWxZifoTLCt4C6NB65YZiupCFaRpuQz2wrXBs8A4Olh4SkgfNgn5EG/xv/0bRDdL2YHBmhCDCGf6HukQvR9eWYmxDxHNMnqhHATyxrCbJ+QTLzQEudFlzMrEJX0v9GhrkTliybeIt+s7h3GAsYIiG0L8mLsozwhj3hpWYG4IsoQLYAZSxnvQjgSm2J8z4qctjvtFBv+zAtSEjI0Fh/rYmMNCW4pvC00NOEbvCaIAjwZCA/CQXgkmHXkBBa4vfHGG/bqq6+6WEGNRq8xCSBCWNT72GOPGSqYcBYzFwzp5JNPtvvvv9/DPQEEGC6/ww8/3B599FFf08O5iCTULrHIp556yp/luuuusxdeeMENIVbVZgXChzLjuuP/Tz/91P+PJrYsGATxSha7MfNg0S/rhv79739HrhDJKFSosG3fsjVjMMkYTTK26b/9aAMWvWzzfaDZkbbTlk1YFEknQjuyhe/UIIYe0rCfaNe0KBjkZ9uib2LmHSDMwgSTa1i/+Morr7gICqEA+nCORcNAzYDNhySymvHTN7GmI+QTfY9UCc8EibzdieqE+xMCItxEOn14vNBSbDkZsxhU6WfDhzWiB3jqgAWy9PfhnpCVNz6EkaJJdO9Aorbg+UK4iWN4TSA2LdW65j6Eg2hXricfoLwhjdBZ8Mgks4OctnsQ1Sy9yEvS9pt9qWgMPax6FwUL4sax66mSUb3LMVb68JpWpk55K1ws+Xqo4iVL2JTOqbtoRcGiINkWgx/rJ8KnVPIz9NlMHBkUCwLUPQM6oktjUHzCYumsBOHukuM1MkLkJxa/MsU2LlljK776P1sxY2HSbemnP0SuEiJr8rNtIV4IiTOgij0LdU/YTyImPni8+CQyC7LzGnlkRL4ku7NmIVJFtrV3KGgeGZF/0I9GinyJBhuRV8i2hChYKLQkhBBCiLRFQkYIIYQQaYuEjBBCCCHSFgkZIYQQQqQtEjJCCCGESFskZIQQQgiRtkjICCGEECJtkZARQgghRNpSoIXMUUcd5T/IyFcks919993+i9ZCCCGEKBikpZBp0KCB//ppv379IinxOeCAA2zJkiV25513+q+G8kvT/Bq1EEIIIQoGaSlk9t9/f6tcubIVLVo0khKfSZMm+c+OT5kyxebOnWtbtmyxDRs2RI4KIYQQIt1J+ltLRYoUsV69etlJJ51kxYoV8x9nrFGjhk2YMMF/+Ktp06Z22WWXWZ06dWzr1q326aef2gMPPGD33nuvlS1b1n799Vf3ivz222/23HPP2dixY/3ca665xn8VE7766iu/ht8/4RdcFyxYYLVr17Zx48ZZ4cKFrU2bNlaqVCnbvHmzffzxx/bee+9Znz59rHTp0n790qVL/YcjW7ZsaWeeeaaHjlavXm0jRoyw0aNH+zktWrTw5/jmm29c2FBWkb/R7+GIvEK2JUTBIqlHBmGAiEGg9OjRw4UMggaqV69uV1xxhS1evNg6d+5sL7zwgjVv3tw6dOjgx/Ga8DPngwcPdk/IKaec4sIIEUMel156qd13331Wv359O++88/wa2LZtm4sjhBLCg7AQedLxHH300S5oBg0aZOvWrfO0rl272mGHHeZlRbh06tTJvvvuOzv77LPt4IMP9nJefPHFnkZZJGKEEEKIgkNSIXPkkUd6KOaNN95wT8k777yTGZpBVFStWtWOOeYYFxDdunWzkiVLWvny5f04XpF3333XPvjgA1uxYoV7UFq1amX16tXzNS5PP/209e7d2wVPhQoV/BqYMWOGiyNA8CBqRo4c6V6VQoUKuRiKhbLgiUGwUBb2KQtpCBn+Llq0yNavXx+5QgghhBAFgaRCBtGAB2PTpk2+z5oUxEQA78lLL73kC2jDhiclHoiSEiVK+P+TJ0/e6Zo77rjD06NhYW737t1dBCFQxowZEzkSH4TTTTfdlJknXiI8QtOnT7dzzz3XHnvssciZQgghhCgoJBUyP/zwg3tM/vSnP9mBBx5o7du3d08HzJ4929auXWutW7e2Ro0a+doXPCyNGzf24/GYP3++LVu2zJo1a2annnqqe0pYu4LwiIX7IJxWrlzpXp7ofNesWWMbN260MmXK+Hlz5szxdTQIFvLE8/P3v//dz0UQPf/883brrbf6vhBCCCEKDkmFDAtu8WiceOKJ9uCDD7pXJYRnvv/+exs+fLgvyGXNCh4PFgIjPBLBupannnrKz7nuuut8XU3Dhg19wW4s3Jft5JNPtvvvv98XDgcQWAgpRArfE8OnkiZOnOjfG/Pyyy/btddem+lFEkIIIUTBJemnlmLhE0Qs8EXgDBs2LJIqRO6jT5aIvEK2JUTBIqlHhnAO61f4y9axY0f/1NDXX38dOUMIIYQQYu+RVMjw/S98p8vAgQPtrrvu8u+GYb2JZjNCCCGEyA9kK7QkxJ5C7n+RV8i2hChYJPXICCGEEELkZyRkhBBCCJG2SMgIIYQQIm2RkBFCCCFE2iIhI4QQQoi0RUJGCCGEEGmLhIwQQggh0pZCXbp00ffICCGEECIt0RfiiXyJvrRM5BWyLSEKFgotCSGEECJtkZARQgghRNoiISOEEEKItEVCRgghhBBpi4SMEEIIIdIWCRkhhBBCpC0SMkIIIYRIWyRkhBBCCJG2SMgIIYQQIm2RkBFCCCFE2iIhI4QQQoi0JelvLTVr1sz69u1rpUuXjqSY/fjjj9azZ8/I3p4lo6zWv39/W7t27V4rg9gzZPf3cIJtVK1a1feDnd5+++2+f8cdd/jf3eGRRx6x+vXrR/Z+v0fse7Ju3TobNGiQNW3a1Dp16uRp0SR7h0JeM2fO3KXM4Rm5nmM8G88bL6/u3btb48aNM+sg0Xn7Itmxrdi2HT16tD355JNJ67Rjx47WpUsXu/fee+3LL7+MpMYnkU3lBZSrXbt2NnDgQPv5558jqYnhGamrWKi73HifYslu+XJCojGEdr7kkkts8ODB2bp3dL/z8ccf2yGHHGJDhgzxYzfeeKO98sorNmbMGN8XeUdKHplp06bZLbfc4tuDDz4YSRUif0AH+NBDD9lHH31kbdu29e3TTz/19JzAdU888YR3UsDfZ555xpYuXZqZ/+WXX26//vpr5jmIF94Pjr399tt29dVX28SJEzPPnT9/vg0dOtT3sxqoyKtWrVqZeQfatGljJUqUiOztEGepDHqpnid2hvqnHWnP0I4VK1b0Y8nqlIHr/PPPTypiUrGpvQ3PSLmwa8oZ7DsvREyqUDe8mzl9t2Hjxo1WrVo1F/vZhWsQnwHeSUQR9fLmm29GUs3bHhuQiNkzpCRkaHgahu3bb7+NpAqRPzjttNNs3LhxPlMOPP/887nWiXTr1i3TCxJg1sZMPd7sberUqf63cuXK/jcnIFjoJKM59NBD7aefforsibwmtF9oT9r6nnvu8f93l+zalMhdPv/8c2vevHm+EY1i98jRGpkzzjjDXazXXHON7+OCZOA4/PDDXbUzgKBOX3vtNXfXASr22WeftbvvvtveeOMNe+655+zcc8+1F1980SZMmGCPPvqoGxVKe+zYse5efPnllzOPHXzwwZ5PNHXq1HH37fjx430j7+rVq9sxxxxjw4cP9/uwXXzxxZErREEDl3CZMmUyB5t47Lfffj77xSb5GzovZleksWFz2B4bNottPf7443bDDTe4d2TGjBl+zZ7i66+/9tBQgHLtv//+kb0d8N6xAc8UnpFniQ5XJDqPLXp2yf/Rs9Toff4nXEbe5MV+nz59bNSoUbvkE3sP8mCLrnva7aWXXtqtmXVew8SN2TZemVDuQHSd8ve+++7zuqAeeKZoj14spKdiU/HsM5DsGOUJxygX9U59xxKdR3TbZEXs85J3sAO2UC+hHrAb0qPLmdW94z0f5xDG4d3s0aNHps3l5DnmzJljmzdvdkEZj3h5kkaomHeLMiFqwz7PT1gpQJ2Eeqec0XWC3cdrD5FzUhIyxElDo9KYb731loebjjvuODvvvPNcwCAY6HxRusQGaeB58+ZZq1atrHbt2p5P2bJlbfr06S5o6JTPOeccb2zyrVu3rp144ol+HlSqVMnuvPNOd8cTf4wVI0WKFHEhVaxYMbv00kv9xcKgKM8FF1xgW7Zs8bK2b9/enn766chVoqBBp4bHcPny5ZGUXTniiCNcVOO6h+DpwIMT3Pp4dPDsIMKHDRvmoSDOf//99907wj5Ed9qJOs0OHTr4AJgstJAVvEfYduj4GzVq5GkbNmzw/Vh69+6d6eLu1auX1axZM3Lkd8JAgCcgPDeETjYryJO8gxeBGS2DFJMXQi5hsOnXr5/XN/lzrGXLlrZw4UJvpyZNmvi1rB9asWJFvne9Ez6ivhC10WItFp6bukglhIenJyubou86/fTTM8M52CTrbjg3q2MNGzbMPEaoKnqNY4DzEMqcw8YzJhrU4xH9vNh5586dPR/uSz8cBmomltgsxziPd4xrsZ0Qau3atesuXqh47ybn3HbbbZlhWu69O89BveHlDO9YIFGelIkJPPtnnXWWC/mwz/N/9913kRx2hvtQJ61bt/Y1QKyb2Z2+QexKttfIvP76656Gqty0aZOLBgxrxIgRnl6+fHm7+eab3dOCQi1cuLCLDli9erWvXWCxGP/TuRF//uSTT9zYQ/x/27ZtnjZr1iy/35IlSzzfaHhZeSEaNGjgQoWOHHFUoUIFW7Bggb9AdKi88OH+ouCB7WE3ycI4dBoMmHSEdDphkMd+gpBGeOPZIS0aBBIDMIIJQqfNu4BwCDBYDBgwwPOi02LR4O4Q3g8EDIMCeSbyOoUy02ECz8l6oVioI8qMtzIwadKkuOtx4kGe0QMO7y71wYYoqVKlit8DUcOMmbqgTngnixcvnvk8wEDBpCYdCGtFIJGYYXF2qoNTKjaFjYb6BeyXOkYAZnUsuix4qllzFQvnYVO0ERuTVSaMqRL7vMELFNo7PNvixYsz7Q0PFOIc8IZcdNFFmYInllTeTdid56D87733noukaHa3bmLhPrw7N910k78D+V28pyPZXiPDoi/AEPF6FC1a1AUNnHrqqR4uwmAROFOmTPH0RDBbiAdCJuSJCClUqJD/H4/JkydnKmc2Op3777/fF39SPmaQ119/feRsUdAInhg68exAp4h3IiwQZoaHncfCwI2thwE4EdGLfePNMHMCgxAdKu8VAix64IgG8UBHn1+Irgs2Zq903jwPAwIzU2AxdDqBUKSeEw2+qZKqTeUE6nfRokWRveQwoQxtxJaKNykeiBjuSx54MREvWcG98OiwJijWs1mjRo2U3s3A7jwHNkib8o5Fk1t1E1i2bJm3ucgbUhIyzHh5edlw06OqcbXxl84puOcwCDwwq1atck9JvHUtqYA4Ov744924EUYoZDryaNjHOCgTRliuXDkXLRjd1q1bfcbywAMP+EAXQlui4BG8D2eeeeZOLmLcvrEu42gY/PESYEPAoBI8grEwgOEBxOW8J0G4MENv0aJF0vUU4TxCWsB7QzgnFt4F3tFo1zuzUWaJ1COTlLAuh/eKT3ZklyAsQ1mioZx4Xrkn98oNsZeXUAd33XVXZG9HGBObyQ2ysinECN5kygDYMp4uvHLJjuHlou2DMKAd4oWWyIP7hzx2B0RMmOASOgyf7MoK7IE1aIiUEHIErk/13dzd58AGCYNy/+Atys26AfI5++yzfTzC+5msXxI5IyUhQyPjMmQjhMOME+P68MMPPYTEWpg//elPNnfuXN9Yp8JAgrtzd+Cj3rgfZ8+ebU899VQkdQd4c0hbuXKlXXfddfbCCy+48fFC4ZFhkfDDDz/s51JGUXAhds3AwCLd4A5mgW8yFy6dKHYVQiB0MGHWRyiVjpN1EQw0nMvskcEj5M+7wKCR08GYfFNZm0Loh9h7Vu7oMDBSNryRdMaxUFa+4yKcxwZhzQuTEsQL6cyU44UksiLePaJn3NQ5IWfuld+h3bGJ8BzYV3bXN7B2L97AlZVNYdOEb0iLvXdWxxC12C7HWJcYrx1j82DLqVDHRhmsyYO1OlnZDR6XEDainLHhFpYUJHo3qRvOD4t9Ez0HdU7dpwL3/uWXXzLFUrK6QSzyjsQusE4E57JYnIk3YSzWuSULqYmckfQL8fYGGAcvZuzHacW+BXFp3LsFFYQ+n5zISqDkBkEwRX/Ud2/BgIDXZ3dd9bvDnrItxBuhFgbrnAre3YX+NK+/ZC4/EoSHxpB9g5Q8MkKI3IMBjk/phU+t5CXcK5WP+u4JKAthj3RZ5Lu74MkmRLI3BUR06HBfguUOITQlCj7yyIh8SUH3yOwJcL2zWBi39t70gAAzZD59Qpvubc9QQbat0H+G9R75oe2FyGvynZARAiRkRF4h2xKiYKHQkhBCCCHSFgkZIYQQQqQtEjJCCCGESFskZIQQQgiRtkjICCGEECJtkZARQgghRNoiISOEEEKItEVCRgghhBBpi4SMEEIkgN+pCj8cyMa3Je8r8G3M2X1evln4pZde0o8iij2KhIwQQiSBbwFu27at/wBkmTJlMn+QUOz4/awnnnjCBQzwI6jnn39+tn4hXIjdRUJGCCFSgB9e5LeLatasGUkRQuQH9FtLIl+i38MReUV2bIvQEvBDl3gf+vXrZxMmTHDPQ/QPNK5bt84GDRrkngjO69+/v1WtWtWvHT16tP8AbvjhTNi8ebMNGzYsM5927drZL7/8Yo0bN7alS5faM888Y1deeaWVLl16px9+JNQzb948a968uR8jb4QVzxSdZziXHw0FnpdniL1X9DXR5SZ91qxZVrZsWb83oaK+ffv6PUN+w4cP3+k5KeekSZM8/4EDB7rwS/WZo49FX0Nd3Hbbbfvcr3eL7CGPjBBCJAGRwPqYhx56aCcRw0Dcq1cvDzu9/fbbLmqgd+/ePqiTzhZEzOmnn2633HKLpzFod+nSJXMtSfXq1W3Dhg1+bO3atS5iEEacX7FiRb9fABHDsaFDh9qZZ57paVyHiDrttNN8HxEzffp0TyckVqtWrcw8ou8VfQ3l5t6k81zRnifO69y5sx+jTAikypUru8iYP3++lyX2V7az88yhHIgpno/8SO/atatEjMgSCRkhhEhCWCPDgN2oUSNPq1KlitWpU8cef/xxFzl4EFg/g7jh7/jx4/28AKIAscOADYihFStWWNOmTX1/8eLF7uEAvBAzZ870c5cvX25r1qzx9EDIh/KsXLky816LFi3yv4gBykCZKBtlpKyUGaLvNWPGDPcoIdYAsQGIh48++sj/D4SFzwMGDLAKFSp4nsnIzjOHcgDemYsuukgLhkXKSMgIIUQKMMjjiQgDbLTXJXgPihcvbhs3bnQBsjehDMGrETY8Q4nA64P4SQQihhAS+eDhQYTkFXh28DgRyiLEhjATIhkSMkIIkQJ4FhAvhJCWLVtm1apV2ynkA9OmTbMSJUpYt27dIik7wFtCmCWIIK5DPEydOtX3cxO8KXg1QsgoFVgPQ1ipQ4cOvo94aNmypf8PiBg8RdCkSRMve1bszjNT1zfccIMLMu4nRDIkZIQQIkUI4yBgCNMQNunRo4eHW9jwWiAihgwZYg0bNsxMZ60I3hDCRYRlSEMMvfLKK5lhl9xm8ODB7mEJZRg1alSWoRo8TqHcrAcKoSpgES/Xc4x1LixuBp534cKFXg+x3zmTk2euUaOGe2E4n5AYeROSEiIZ+tSSyJfoU0sir5BtCVGwkEdGCCGEEGmLhIwQQggh0hYJGSGEEEKkLRIyQgghhEhbJGSEEEIIkbZIyAghhBAibZGQEUIIIUTaIiEjhBBCiLRFQkYIIYQQaYuEjBBCCCHSlkJdunTRTxQIIYQQIi3Rby2JfIl+D0fkFbItIQoWCi0JIYQQIm2RkBFCCCFE2iIhI4QQQoi0RUJGCCGEEGmLhIwQQggh0hYJGSGEEEKkLRIyQgghhEhbJGSEEEIIkbZIyAghhBAibZGQEUIIIUTaIiEjhBBCiLQlqZBp1qyZjRo1yt58883M7ZFHHokcFSL/UK9ePXvmmWf2iJ2S9+233x7Z2xXem5deesk6duwYScl/8Azdu3eP7OUc6mFf6BN4TuwLO9sdsIknnngi2/nkVj3T5jnNJ6sy5FdboEzxbJ10yizSn5Q8MtOmTbNbbrnFtwcffDCSKkT+gMHhoYceso8++sjatm3r26effpprQiK28+/Zs6fdcccdkb1d+fLLL+3888+3MWPG+IDFwLW3Rc3uDGDJoB6oj4IMbVi1alX/v02bNv53T5Mf6jmrMqSbLWT1Hov0ISUhs3HjRu+c2b799ttIqhD5g9NOO83GjRtnTz75ZCTF7Pnnn3chIcTu0qRJE9uwYYML5caNG0dShRD5hUIZs43tkf93ARd53759bebMmbso1wsvvNDOPPNMK1eunG3evNk+//xzGzJkiK1evdqaNm3qM8A6derYtm3bbOLEiVapUiVr2LChDRo0yAURLr2wX7RoUbviiiusSpUqnjfhrKefftr/F/smxx57rH322WeRvcRgo1dffbXbHnYVC3ZWtmxZn1UvWbLEZ2HYZqdOnfz40qVL7bbbbvP/+/fvnznz/vHHH3c5FzsfNmyYC6fp06dbzZo1/fwwC8Xr0q5dOxdQXbp0sVdeecX/hjwXL15s++23n6cHkYWXhDIkmhnGlpVr//KXv8TNA8g/lCs8G16EeM8wb948a968uZUuXTrzeYHnuOSSS6xYsWK2bt26nd5Z2gXC+cE1T/njHc+PpGpbAZ5r0aJFNnXq1J1sLdje119/bSeddJKfO3r0aBfUoe+kboH7UUfRNpKoHblXrH1269bN98kjnv3+/PPPvh8Ldh/smrafNWuWvw+hbbhn/fr1/f9QRoh3j+gyZGUL0feFaHvgnolsL5bYOsYeH330UevatetONs7zR5cp2m65H+8r7cL/1apV82PYeHR6ojJF18X8+fP974QJEzLbTex9UvLIYBxh7QGNetZZZ9m5557r3hn2aVAMDuOqXr26XXnllW4M9957r7344ouZL3MiLrjgAtuyZYvn1b59e4kYkTKIZTyGy5cvj6TsCp0qHRcdEzbGrDqEoOiw6KDpCLFf0i6//HIfxBl06OQYnDgPu4/uvMaPH29lypRx24dGjRrZwoULXTABf+lk6fyGDh1qF198sc2ePdvPA67jevKJB+WmY+VaykX56ECT5XHEEUfYa6+95s8AiJhEz0De1Ash44oVK/rzhoG2V69efs+3337bO3zuw4DHuaTHDjxZHU9XwnMhYhgU165d6xO1AH1b3bp1/Zmp45YtW3q7cW7nzp09nTohD/IKICjitSMTwtg2jxYp8WwikYiB3r17e5k5lzZF5AbCAM8x7KVWrVqZNtC6devMtoy9R1ZtHUQM9sZxNghCB+LZXiKi65hJ9bXXXruLjQMCKtyP8zp06ODpgXB/2oX2iSXR+3D66adn1jftwxgn8hfZXiPz+uuv21FHHeWu1hEjRtiCBQvcg0Kn/Yc//MGPYQTvvPOOvf/++zZy5Ej773//G8kpPuSBcfTr18+NpkiRIpEjQiQHkVCiRAmrXLlyJGVX6NRCx0VHTicchDkiPcwaETmkPf744y6QgocwEdEDG503+SQSJYEZM2b4gMH5XMf18TpVYPBgFn3RRRftNAgmy4O/CBWuZSCJHrhiQaRwPtuKFSv8edl4duqAumAmygCLsANmx9w3liAkEx1PV2Lrl4E/OrzEzB8PFyB2INgiAyd1OGDAAKtQoYLXazTx2hGhGq/NA4lsIh6hHUL5uJbwGHCMdqV9Y20ecYXICs8cS1ZtzfPzLMOHD4+kmE2aNCnzWSGe7SEaxo4d6+VhTAnPF13HeKt454ONc58A54cPp0S/13DKKaf4fjKBneh9YGwL4p/oAp5Vkb/I9hoZXHmwdetW27Rpk/8fwKtSvHhx/z8c47zJkyfb+vXrfT8e999/vy/W5HpmDddff33kiBDJCZ0qA0Gq4EIPMze24KlhNs0sjzREQCqEgS3MCnlHkkGHuGbNGl93ceihh3oHnwzKxiyRMEX41Ex288gu0TNpNmbk1Bl/mQnzrjKbj4ZBJdnxdIW2jRa+DPyEJrISEYgYBk7qD5uKN/glasd4bR5NVscDCArESiLo14OnIWx47yg3giERedXW1AceQ8qRyGuSCNrjxhtv9LVxXI93LBbqIlFdJYKJQBjzRP4lJSETy1dffeVGwaygdu3abnQo1+AuRUHjniamecIJJ/h6GgYcRM4f//hHN7oDDzwwktsOsYMafuCBB/w88hQiFcIsk/Va0e7pPn36xHVX00GzNit2IKLDYnZHfhxjsEoFZmiAWzpVQcE70qpVK1/PgrczK+jQb7jhBh94GPQgu3mkyrJly/zZ49UdMNjgwuf9jzeYZ3U8naD8PEcIoYSNGXps2CIWxEAYAGkzvNTxSNSO8do8mqyOA+dg06GsDOKIdcDO8eywVioWxDme8azaL1Fb04eTFtbUAPch7Mp984Lg7QprWGIXZb/77rsu0Al5ZUfM4DVDZIbnY8Ki0FL+I0dChk+IsBGPR8EziHz88cf273//277//ntX+Szyvemmm1wl41bFkDAyXirSo705eGRwqT788MO+z7oaIVIFG8T1zFqOMHNmYKCjjYVzCTXh7g/n4o0hJMQAzj4zXcR4gJABx3B7xw7wdMwMWIS34gkKjtOB9+jRI3PmSn50pgwYoWOnDNFrCIBzwnfj4Ponn/BM8fJIRrJniIb8mVRQ3lA/lIuOPLjtqTvEY/SMOavj6Uii0B91jpcmmdhF1FIn1AcLvqPtKZrYdkzW5pDo+H333Re3XXkvEO6cj/ck2tMyePBgFxwcYwvhnNh3JNbrk1Vb8xwsiA73ZQNET15BHRAOCmWOB/dHzFAPyd6BaMgXsRnyZcKi0FL+I+mnloTYWxDjzs4nS9IJBgLWF0R/0goP0pw5c3YatJIRLw+RGvnJtnKjHREZhK8QNqmIWpFz9N7lT3LkkRFC5By8ktEzfQYiPpUR3OKpEJuHSE9yox0JLRG2l4jJe/Te5U/kkRH5koLokWE2F8JWyb77Ixm5kce+Tn6wLbVjehDaKXyFSPT31oj8g4SMyJcU5NCS2LvItoQoWCi0JIQQQoi0RUJGCCGEEGmLhIwQQggh0hYJGSGEEEKkLRIyQgghhEhbJGSEEEIIkbYULlmyZORfIYQQQoj0olDHjh238zsxQgghhBDphr4QTwghhBBpi9bICCGEECJtkZARQgghRJpi9v/hrTpWCpxJbAAAAABJRU5ErkJggg==;" vertex="1" parent="1">
          <mxGeometry x="550" y="10" width="410" height="151.74" as="geometry" />
        </mxCell>
      </root>
    </mxGraphModel>
  </diagram>
  <diagram id="7ZK_PF0c5COwL5Uz75v_" name="RAG">
    <mxGraphModel dx="820" dy="1445" grid="1" gridSize="10" guides="1" tooltips="1" connect="1" arrows="1" fold="1" page="1" pageScale="1" pageWidth="850" pageHeight="1100" math="0" shadow="0">
      <root>
        <mxCell id="0" />
        <mxCell id="1" parent="0" />
        <mxCell id="u6fXfUsRiq09m7yTQ-iY-3" value="" style="edgeStyle=orthogonalEdgeStyle;rounded=0;orthogonalLoop=1;jettySize=auto;html=1;entryX=0.5;entryY=0;entryDx=0;entryDy=0;" edge="1" parent="1" source="u6fXfUsRiq09m7yTQ-iY-1" target="u6fXfUsRiq09m7yTQ-iY-4">
          <mxGeometry relative="1" as="geometry">
            <mxPoint x="130" y="110" as="targetPoint" />
          </mxGeometry>
        </mxCell>
        <mxCell id="u6fXfUsRiq09m7yTQ-iY-10" style="edgeStyle=orthogonalEdgeStyle;rounded=0;orthogonalLoop=1;jettySize=auto;html=1;exitX=0.5;exitY=1;exitDx=0;exitDy=0;" edge="1" parent="1" source="u6fXfUsRiq09m7yTQ-iY-1" target="u6fXfUsRiq09m7yTQ-iY-5">
          <mxGeometry relative="1" as="geometry" />
        </mxCell>
        <mxCell id="u6fXfUsRiq09m7yTQ-iY-17" style="edgeStyle=orthogonalEdgeStyle;rounded=0;orthogonalLoop=1;jettySize=auto;html=1;exitX=0.5;exitY=1;exitDx=0;exitDy=0;entryX=0.5;entryY=0;entryDx=0;entryDy=0;" edge="1" parent="1" source="u6fXfUsRiq09m7yTQ-iY-1" target="u6fXfUsRiq09m7yTQ-iY-6">
          <mxGeometry relative="1" as="geometry" />
        </mxCell>
        <mxCell id="u6fXfUsRiq09m7yTQ-iY-18" style="edgeStyle=orthogonalEdgeStyle;rounded=0;orthogonalLoop=1;jettySize=auto;html=1;exitX=0.5;exitY=1;exitDx=0;exitDy=0;entryX=0.5;entryY=0;entryDx=0;entryDy=0;" edge="1" parent="1" source="u6fXfUsRiq09m7yTQ-iY-1" target="u6fXfUsRiq09m7yTQ-iY-7">
          <mxGeometry relative="1" as="geometry" />
        </mxCell>
        <mxCell id="u6fXfUsRiq09m7yTQ-iY-1" value="&lt;b&gt;RAG&lt;/b&gt;&lt;div&gt;retrieval augmented generation&lt;/div&gt;" style="rounded=0;whiteSpace=wrap;html=1;" vertex="1" parent="1">
          <mxGeometry x="10" y="-10" width="510" height="40" as="geometry" />
        </mxCell>
        <mxCell id="u6fXfUsRiq09m7yTQ-iY-9" value="" style="edgeStyle=orthogonalEdgeStyle;rounded=0;orthogonalLoop=1;jettySize=auto;html=1;" edge="1" parent="1" source="u6fXfUsRiq09m7yTQ-iY-4" target="u6fXfUsRiq09m7yTQ-iY-8">
          <mxGeometry relative="1" as="geometry" />
        </mxCell>
        <mxCell id="u6fXfUsRiq09m7yTQ-iY-4" value="" style="shape=image;verticalLabelPosition=bottom;labelBackgroundColor=default;verticalAlign=top;aspect=fixed;imageAspect=0;image=data:image/png,iVBORw0KGgoAAAANSUhEUgAAAHQAAADWCAYAAAAATqbCAAAAAXNSR0IArs4c6QAAAARnQU1BAACxjwv8YQUAAAAJcEhZcwAADsMAAA7DAcdvqGQAAEIbSURBVHhe7X13nFzVlebpru6qDtVROYJyJkhCOYDANngAIzC2F2wwGGcGexywZ3b3t/5n57e/3R2Pjb2zxrMDBtuYYEAGJCNMkAgiGyEJZYFAqZWljtVV1d37fee8W/WqurpRaHVVyf11n3rpvnvvO989N7177yuoHDCxQ/pw1qDQ2/bhLEEfoWcZ8prQjo4Oae9o944cCvR8W1ubHRUU6Dmivb094Z7n6S4Wi+n5swX5TajbghgjrUDi8bgEg0EpKysjayqFhfaYHfgjeXYfCRUpLi6WUCik97lEkM8IhMr7/8TbzyvQsgYOHCBjRo+Rvfv2SaAwAFJiUlpaJrNnz5GJEydIVWWl1NXVSVt7m7q/ePEiCRYH5cD+OiV29OhRsmjRIhk8eLCESkrk8JHD6rdZdX4iby000tIi544cKdddt1TaYVltbTGJtkbkmmuukoUL50l1ZYksXfoZkHuRNDcclfKyEvnWN78h1+JcB9y2NNbLJUsulssuWyK11WG58YYbZObMmdIabfVCyE8oofmYIjtQFhYXBSRcXo7Ms13iIKKqMiyfu/46ee4vK+XuX/5UNr63Xm758k3SFm2W2RfNlPd3bJPqqkoZO26sSLxJamur5J13/ir3/voXsnPn+3LDf/q8Jo58hhJqZVB+wSXC1kiLtMciILRJamqqUCYGZNOmjbhSKFu2bJIB/ftJQVEJstaFIG0nrhfJkiVLcL1Z2mJxr7oUlfXr18mwYcOkCNfzuZKUv5UiLxGGw+UyaGA/GT5siDQjG25ubpEZM2bKoCEDZdKkybJ9+w4ZMmQoytRJMmDAQFSQAjJ37jwpLa9BFh2TmuoaGT12osydMxeEf6iVI1ai8rUczetKUW1trcyeM0eCoRIZM3aCvLtuHSw2JgsWLJTSsmoZN268/PGRP8pAVHpqa/rJXT/7qbz++lsy7fwLZN36rVKCCtS0aedJWbhGBg4aJL9/4AE5evSYBAKBvMy1iLzt+qMlVVRUyMwLL0DNNiSxaExeee01aahvkEUgdMDAgbJjx/vyzl/fllFjxmiZu3PHFjxxUMZPmiQNjY3afJk2ebLWgrds3Sb76vZpLdmVo3lZFOUrocwS21DWtYIYQ4eUhit0r6WxCQ6wEyhC7bZMotEoCI9KGAmAaGxskBKcJ2F6P7LYQLBYSmDpbKt6DdU+QrMBEkvFU1y5585lKgf9JKW4o1Ny6buej8jfSpEHR4ifPEcKt+nihzvWa+2dr+cj8p5Q4mwgoqdwVhDahyT6CD3L0EfoWYY+Qs8ydENo5yp/bqC349VT4fVOvDO0QxlwrpLpB6N9Jmu3Z0oPZzbenoX6I+/22bZjJzWdJM/lpvQkMvnf03LmAAudhOTiD8SGZiSGbfAqLudmU4+RctJTONOK98c5Uxgf9yzsAEmOi0qHj9ACHcZB9goCASmCEGy0640fF06WYA/Xk5EzXWRSVs+AcXWSOQx9Gu/HcsgkOjpsdEZ7O8dHtaXEU7kioS5rDRaHtJOaA6fy5RXSmYpj7xPqjk3ssTxj0jN6iPPtkDYls7U1oi8enA5SCA0GS6SktFSKgkEphCc63NHc9aFHQaV2p9huGh4AiSU/UsChqnFpaWmGtGhftF6v6D+xo7g4KBWVVRIoKsYZOAbTZ9NY1bMSoKmQVMFSm5qapDVCS2235MBxrMFgSE22g+NWPRPuQ+6CHLEcLSwskrLS8kQRWcidkpIStcg+IvMHqLbpLzkjhxz8RiihRUVFuGBZLB30EZs/IFesOJFDblG+Gst9JOYrzFILCqyZWdhHZP4DNgpOYZjY776O3IecB0lE/ur99RF6VsBfZPYRehaA9aB2j9Q+QruAZWVdS65BO4LY2eAdZx2mKBbsrLUlj7UGl+FPY69uTh3OF38o3HPhdrCikSIIzwlc5Bq02eLtZxkWkQK2hdvbtLcKSQ4S17mcHW3cJoVusKNq1/t078RB1wVgpIBNb/aBqsBPTwoYB68DvB1xoOACb+1lnNxzMaUV9Bt6Xkd1dY0+k7OOk8HJ3uFSNreqWP3tkFgrO5ihSBxTdbAHKN36lJnyVAo9115ci4qty9I4OTGF836+fnJTCZPNNm7dPvZwkTNc7O2GdY8WF4f0gnPF+88c6LvG0JOuwXfXjU1N0tTY2DOEMrWfKNKzK+1ghtXVVFfI0CGDJKTzSwgU8Mzm2OHsvRPUl+50j8jG29pl4+Yt0twcgbJLpQ1aT8a/c4SYIHi+LR6VmppKOWf4CNxXhFPm1q4mEwWzWEbO3jt2yNat2+XokWNSHq4UBN0LYIwsViZdI0loUw8Ryh2GeYK3J6KHnXg8IueOHC633foFGT9+nE4YcqBOaZMkg5bk39Jyn1z+F7nv/t9JS2tcgiXlcGwZsOvG9IP3RKMRGTCgRr5y640ya/r5CCtk2TuvQ6wlZ9DHYWpDps4wn165Su7+9X/AukWKmeh8lnpmwLAtVj6NZUSOEArHUGZDw1H54ffvkDu/95WUlJ/MCr3HwqESTFJx3A7HDU2tctddv5L7f/cHicQ6pKQsrO55h/9+h/r6o3ILyPzvP/khaLKXEfSvS33xGvzSsJpjcvfd98l/3HsfEkabzi1to9LOGCxsi1z34SQJbZBAacXAn5SWlGrkTyV6GuxJ3OiyXC0NodBIS6N86xu3ydgxwyUaa09kcVSW23fHzGp1Hx5EozEJBQvlwgvOlzgSwoYNGyTS2ipF3jtdCyMJWm002iLf+MZX5LwJo6Q5HpdYnJUf5BJIWJya6BcNF5HFrroLBApk+owL4b5Q3ntvo75UDhYjLA/p4Z0+VLO2+zHQ3CfGKZOtzE/4sIzOqUNJOlFx9/AHx9yLo1wzoAKEY9YwrTJCk8WWZRuqpNyy8sPzNJ6mpoiUl4fk72//mtz8pRukOACiW5q1MlWYUIgGQl+lMFCok4MN5of6jV8Kw04IrrF6RsFtEmFZjSL39m/dKjffdCPILJTWCMLyUnNqaD2Fk+QFgaPekSyjTgWmihMXP1y4bsEn7lPBFhcTPefE++N5rfFCGkFqEIby7W/eKl+GokPBgNaYA7xO/+kx78D9JMmVrxaGC4u6wB92/YKLELjXBNQuEYRVKHH52m1f1LCCxQXIYZokAMckkpU4htkz0Ah4cmLgM1j1MUsgOXx+rb3yGArsbjWvxKMpCR5BUGYjrKesLCh3wFJv+fKXpLSk2KxHLczdZVtHoCYN7FMKkHUogUqLEeLcuftYP6I1NqPcLg0F1FJvu/XLUhYK6ppJDIcu3V3ZAKOcRUIRumctVptkhGCfLLS6gVM5heUa/eB9JLWktEhu//ZX5Is3fkGKiwokHouoog0Whts6wvQI+zz2i53m1paW43I3dEz/mhpbpQQ5ARPQbV8BqaUltmag797eB58kixZKxdDC1MrSlNCdUnhFr+JGN/SiqIijLgpRKUJFCdbzja/dLF/4wvU6Ko69PQ4kJpEleoU6rbMzeM7Ou7jYyI6AJqJikNnSEsV+m3zrm7fIzcgVGA5zl65j3jvIbpbbBXE83614bjj8lEMvuNiUbYskgiZFv/5huemmL0plZQVqqOy2M5BMR6iWN47cFBiZNsCZgqSnYXGYB8LRsAolGCqSVtS0y8qK5DaUqQyLY2Tt/uwha4RCRVrCsTPAlaEnggCqnFQuaeWfkuRVkLhPUkl4CbJBLsiYnoXTTeKMWmdnAiyhQBAWyTRYjlKIcCjkm3FhEypcjrBQlmo3pec6W8gaoVSk6gpacl17zhIoBrXFhPA0leZI0rMJDeLIqqb6UCzTrIjurGK66gpMXLz33bXvyqFDh9QqHal+cp0vjFNrK7si4yA5i+oEqLesxcBU0lnZSTK5ZfQKtfwqLEB5iWz1zTffko2bNqNNyA4EXPfKQnrI9qfZrhGv2vaQJMOH5GXArgdh4Xv37pNlT6yQ5X/+ixKazEF4g8XcYFv67UaunxxSItAjOG1CGaVM4kdX5x1SLdJgllqoJEYirdozVAhin3pqhbz913dQfkUlGOBYVI52g1vvTy0YZ1TJmUjsFrBuaISd8HV1++WNN94UdkeyrPXFzNv6gZC9mvqJw2nkZO/rHqdNKMGcrpO4a5SuzttuIgtld5ufBC6feuDgQXnwwUdkP7aR1rjs3rtXyisq5KFHl8nOD3bCUkGo3mKVF+04YDiaSJJ+JRNNOujG3DHoOCrFAwYNkoOHjkhFVY22P1lOapMk8edgflris/BPDl3F6dTRI4Qm4sWtk+Qm5bxvN0Ew19ojnEKoHFrjvv118tAfH5d312+QElQ69uytg8LbZPqF5+vKmffe/4Ds2bVLQqh50oZUseoR/YXi4V8mIhNn4M4SAYXHBfo2ZeDAQdISicjgwUMEdSPEjx7C+rFR6/eEcH4xy80UVm+jZwjNAL9Vdg27yNTv4EhgFvbgw4/JO++slVtvuVlGDh8i69a/J9U1tTJp/Fi5FW0/rpx5z29+q5WYZOXF/DJqu1ewuYcbrxzmIdKRHDp8WKeHMB5NkRjKVbY/izXHCCCbZ0nth0sUJw/LmXoSPUOoexZunfjhO5+8bHv88xNKOOU0NDTofk1NjR5v3LRJRo0ereosCQZxvlprotEYLZxnPWtjrqt+dPZXO/29Y+eelsf3m9pRAUJXPv00rHSgLvz4+LLlsg413s2btsqWzVulualFK2iJ8PT3VODuPLW7u0KPEOol8BMTd083D8NeFw5HuemLX5ARI0aoFe7aUyf76upk2rSpqCRF5bcPPCRNTY3y1dtu0a86sNJkZLoEYmT5YYSy+5/71mXoYsHenwJY36ZN2+RpEDpsyGAZNGigbNmyRZ5c/oy88tIrcu+9v5UXV7+E9qmNdLAy3/zNFZw2oU4hJyonAiqIBJ0zcoTcdutN2mjfuGWHHDt2WCaMGycNzRFkt4flc5+7Xs47b6rVbCHUK7NJI45vSNQ39ZOw8x6J3n4bqrHFwSKdY/nGm2/LXb+8WwYOGCiLFsyRsWPPkRu/cL1MmzpVqqu4/HkxLLQRN1tWaX7onh7nAs5YGfpxSC3jMiskEo3L8OFD5fZvfg0ERySKikq/frXaG3TrLV/Wl9strVxvILVSRS1zXytKdkbhyCaUDGzZ23P8+HF5YfXLsnLlM7J582a5+aYvyYIF82TcmNEyatQ58qlPflLmzp0lX0FZftmSJRKPRcFpsvxLhNsJ/tB7B1kjNAkqw6cQJYNbCLK0CCol4XCZDB40QC67dIk2/NktN2zoEFVsO4d2qsUYeUokK1XYT6+QuWsJ4Jij+Q4ePCyvvf46T8jNN98k02dMRy03Jq1ILC2RuPLChDUa5FZWhFPI7BoaA096D1kmNE3jgFoOGfVJC8rM0eeOkuuuXSpt8bh+cKe1ld9X4f10j+wW7LVDd3YmWXN26sxoRSA3Dv/69esnM0DiJZcslqs/cxWyYZbHLstmdh5HeFFtysRxLRFK73J1QsgioX4Fm2acfhIkeFtaKsuvstIy3dcX0k6pHmwMEMhltoqr3E+vPaeDJDNxhGF1n/rkJ5CtztbmD8/Rb6s4eUJf2cug/qfC8oPcQBYJpRJMdGAX0FFQqOIfZ2BAgz/eJjGUqRplVpfphgTCoQ6p1FyQ9+F+KD0QCOIQbVOe9sBxRkU4r+rHBW4dqSSLA6103zlIk+QfAUcMFwcp71mzjCwTauSwrCI4yi6OfJNbjq5zZMH4oEQegyw95nV2JLA9aFJQUES61E0xvGWFKgpxM5tpRW1tyL6bOTKOYD8wieC9yddkWv7iuDtheBa/QuGgiYbGJn3vaqSaP9lCFgllyqYlFclLL62RQ0catcITgpQEiyXkSUmoWEpLgjpOKCk8NuH1EIRdg3o/miCtre3y3POr5Xh9I6wflgoyaUW04meffUF27T4gpagM8R42ibh1EoKfPJdRSkLYhuCOYeIY8WP96LnnV0l9fYO+SEhF75N72gOtTxW0GGaQ8XirlJWF5EtfvFGmnz9RmxFuaZ3uczG7SKtw8eb7SBratvfr5J7f3Cf79h0ACaU0cw2rDWFxCMl1n71WFs+bDrKL8Nys/NDi1QvA7WQO3wtJt7TWj/Yckt/+/iHZsm2HlJaW69XeBhMrB1o3Q7JIKCKiZLQju4rCuopl6OAhSqjN+rLZZV2DmYuqVQkhCry1Cg8ePCRHj9dDwaXasW5hdejQTg6QZgVr8OCBicRDYlyWm0poguU0IExc4n18K1OPLLcYlsvz2UBOEcr6I7UTj6LSE0NZCsVq1x876BinpOmkQX1Q9yTROOWWy9yFJIgskXeqBeoVlMJwxIePxdgMaUU4lhOoAw+ucoU7kUC6ChtQhbH2HZRiduRr7tCN+zOIrBLKRzYFG6Ft0KCd49giVmBApY7NpYVY8yMTmOnxj3VODmFxCiUhPOZrbk0UCmelcGMncMoSAZ/bD1bC1FEBLdfdz7vTwID0XlyD5Zs3VgPO4PqMwk9oj1eK+ECpwsdLCv9Sjy3rVLf4UYVC8SZmUX4hcbblNS4Ja0NUuFVi1S8SQc+wZa1FPebGLNKJkcrwkuLamhS4SLkGr90GP1bjddk94Z6VW9vvffQ4oUoPNcGxG1RmO6rzHW04z4UFmf2xAeIphYplGYY/WmtC4bykl5PKTxf8mCvc09YW1XmfDEvaOeMbWTekgJbO8DlelmN02caEe+akjEeHN18GjlJFLZP+p8aBWbSO9WV3I/xvR1gUm2VuYTrRc3x+Re+R2yPTCR24H22NQnFxCXBoCHxkxYNbkmUuTPirKgORzFZZFnFfU7eSRbhtZ7CCw4/BxlHusrnBBIEboXBWqKzcpCXTT/4pKTjHSlKopEwtXXuT1Ld00GUihuqWXxDm+rRsVjEoNlF4nmGmgM+A8FtRTrPdywoYm07myv/bc+Bz9lgZyjtcZTACBVeEy2XWzBkybPhQWE1MieVssljMBiFbFmXhUMnl4QpZt269vPra6xIOV+o7SVeuJYntjA5YHi1+3tzZMvqckSCxTft53VRABsM2LrcWGsfsBmXT5m3y2utv6rrAARzTfaZQ/FmpVtIQ3gXnT5OJ48fqcQj3MnvuzCcJRUJBdvzhR7tk9arVGi5HPFhIuG5OewxnhFBmRZwg9J07bperr1wigwcNUmuhr7QDWg337Y4k+L3O9es3yD//j5/p2KGy8grEhQ/NSg4VlE4s7+9ATtAsX7rh83LTjdeiuTMYxFhTx9xaGDbel+GTYKv9btu6Tf71rn+XVatelCDaqIWwHk7nd/4Sjky1akgEz3Xt0qvl5huukTGjR+uzWrzUWQr0ToRVjASza/ce+dXdv5Gnlq+A+yIkIlsPwsWvp9CjhBK8q6mhQSZPGid/fOheqa7ilHW7loR3Qs3ZXWRqpgV0yFtvvys/u+tueWXN62hylMF6QnBFQghTLEFi+CX7Af2q5NGH75NRI/ujTEv106QzSEIMzaMtW9+Xf/npv8nKvzwr4apa6N9yBSsWUtEajUhJSVD+9PgfZOo45Dr66pXx0cud4Cc6FmuTfXUH5X/9yy/kT0+skFBpWBf60EFnPQg/oYGyikE/KUFKtSAyK6J72D2NjfVy2aUXy2evuVQfWutE8JTtQMsGPdHlYmwSEYmkW05x5ze0x40bLTs/3KXDM/ng7GdlvFJiBY21oCwbN+Ycue22G1SBbd7Mb80+NUwK8gUVdwxFI07NzVEZPLi/TJwwVvbt2y/btm1XP1lT5pbW6c9uWW4OGTJIvnvHV1Fuc00IPptvlne6IEwSxufiKtM11WGZPHmiHD1WrwPEWasvQvaL6PQYGN8o6hJsxzsTOGVYdkaFtSFL8zrCccxyE1U93XZ08CW0t6/ZIhUPwT7uxEN2SFNzq0yZMkn+8c7vyrx5s6SluQHXWU6qj/qrUL+hDlg6lcZdqNHE+UvmcEyxcO2czv6WNg1r3PjR8uMf3SELF86TJiRGvgM1JMNScrHVr2UA4Mn8SPhPWlLFXWMbtrCwXcMaMXyI/OB735KrPn25TkaOx1r1mc8ETptQgz0MSdUjWgYt0FOmu25CRhAshY8Ft/yj26aWVpk6dZLc+YPbZf5ckNpUr9V/c+kUnQyLFqFn6AeZ9fZ53Z1LKt8p2uLW3ByT0aNHyY9/+PeyZMkiaW1pxGV2N3r+eOGptdIf3E6vnf8Gt+8XB+wjLPaFNbdEZdiQgSD1m7L0M1eiTG6CNUXUjf+OnsBpE6qPjR8qQrMtgKk480PSNcUoMuHGrJzKb460ynnnT5Ef/fB2mT1rOqznGC6gHes5JRiWIzAV5siR6ZBMVITFSRffR/Y7HpZ6J0hdBEttRgJie9Zixjh5WbC7TUG/1Ac9lUkMqAF4TTaS2oKwhg8bJN/7h6/Lpy+/TCLIgeLRFn391pM4fUKVCXsQbfcBrnZrCqYV4ihFqHDbJxJT9NR64kjREVjqRCj6dh0lz9qzU6QfSX+4TRUHjZ8XB+4z0TEczRKp6JYYmiJj5M7vf1sWzJ8Nd6jBOtLUL93Vp+G+P4xkOZ0Uf9jMqvlGh+bN8PgudvCgfpr9fvryT2j4VuxY3CyuBou1ycngtAl14IO4CJlFOPijllkCrOajvaoTapGqaR0cpDV9+vnyjyjnRo0aqcMsk2C0Kbw/M0zpLO+SCuY+w+AEYeYKhYXMVWzI6NQpEzWsyRPH63hf5gip93o7fqQ+hokHumeNvKjYPmpkXZWsZDGrHyE/vvMOueSSRdLQcNy7w3fzaaDHCE1FpshRI50FeoWwT5Zk2hR7m3JQILF4uyxacJHMmjULtWiUcQovJbt+WAX96gw/IQSPeQ97b4LBYm82NqcpBnT0/YwLJsuECeNQvqI957OWrpF8Dic6WA178ADhkUT4HwppmMUIMxgqRk25XSZNGCULFy1ADsHFPXAn4paSgHxyMjhDhKaDUWZQLGMp3PcEqZjC1MzuOxUkZaZqV25yunuc7YUEeCGZlduxg18NdAMFo/JEd5oLMAdAGPSfZLJrksfaKa+3dLbszuA1uAdhia0THGvWiy2fyW35PTl2FdrLBbrD03tFlCZq3Tt9mI9nENQLUym74bhl25Ifj3GiL6X1Ie0amncAlECleUptQ7kKnUPssa3XyYM6MUV2Bs/xEQt0whHfgx45clSJVGVrEPTACY/5gTjd0+PuQAtE0kh5Hs570bkv8J/P5cJhomKPlLXHzW/WNfSZMkX9FHGGCU1aER9ee374oNi2t9uxX/QaHtBZh9vSav0PzfSvW89vd5Hu7RyPTXjMMrO+vlH++Ogyueee+2TNK6+q0p2y6aPJiYL+MutGQvUShxKJRGmJ1xIn3dEai4scsalhnFi2fnLoUUL9RNguUjAe7tXX35DHlj0pK/68Up5a/rQse2K5/AnyxJMr9Hj5ipXypyefkpehaL3LI9X551I0kVRKUhnJc94WymaC4eMFuWIJFP/c8y/KqlWrZdCgAXL/bx+Q3bv36KAyuycZFhXfFejExMhsQbuZk5eW4dmefGqFLIc8yWd6ark8hefh+ccee1y2b9+BsKxIMX+8sHzP0FM4bUIZuYT4G/rMYtpYXS+UY/UNsreuTg4ePib7DhySffsPSt3BQ7If+wcgdfsP4NwBOXjosFYYnB/ugevr61FpshTuyGX540/gvGYwImklXFN37bvrcX+zHIcfUWS5kyZN1nB4rAtXARpf735WXui3a4IkxRKWc8dJxqtfXCNPr3xODiMbf/6FVbJy5bOyb2+dfPDBh7Lzww/lo10fyYb3Nst9v31Qh3pyRKLCi6pmzYiv87Mn0AMWmoyMixgrFSwrWEaQ1IqKSqmp7SfVtbVS26+f9B84UPoPGKDSr39/XKvR6QgVlZVmL+oPBPrmHpss6dlT5uyK56Ag/AaDhfLuu+vkV/9+j/zugYdRo1yMGuwkee6Fl2XJpZfJ8BHDtPPcyEoSpe1GhusdO/CQz+TOM129suY1GTp8hHz22qtl3LgJMmzYcFn6mb/T3iDKdUuvks9fv1T7cPfs3Q+/Xbbr+Z3IieywJ9CzWa4XUYugF3EccOLuoYMHkXr36JaTdA/DSrjlGgp6fOQwLOm4Wp09ZPIpuytrks6oHLuXZO7evVcefewxmTx5srz11tsg912Zdt55yHIHy+c+e42EwxXSGo1rTmJWbx4lw014nAp3HVHifY2wPC4P0NzcIk2QXbt3y759+2Tvnj3Ieerk6LFjmtXGUUvXUPwVOqKLYE4VPUpoJlBB4bIyqa2BFcISa2mN2OdxTXWNVFdX6wxtzr+sqqpQ8rTZ4MveugOd0J0KdMU1+ajohx55XGvWX//qLXL9566Xhx9+RFajvNuzZ5/OaGNuq1mo5481OVzicdI1qLjS0hJ5b8N7sua1d2Tr1m36QvvlNW/JC6vXyHOrXtbt89hy6KhbqdseqXu/TwenTWhG6/FO2bUO7XlphJVykftGlKf1x+rlGFLu8WPH9fj40WOye9cuWO1BKJlNFC9aJ5B6lVAS45HDsu3ll1+TLVu2yhdv+JyUlITksiWLZOZFF8mmTZtQjh+WBx9epuVrYkFGTUQWGMN2pNqZzJHgWS63M23aNJk3+0IZO368jDz3XFkw7yJZvHCOLFk8XxbNmyWXLJqLIicsrZxTqveZ32cKPWCh/sh5+15qp45Y7nC1ysrKsJQilZaXluLYhGsYlJWVytChQ2T6+VNkFBTCLEmtLemNp+wulIDTnmsJhYpQo3xfHnjgD7Jw/kLNbusbIjrO6fOfv14GI5walOPr1q+XF158BVZjQ1TMaxcYybXqmHdGfU+HXbOepyHwt6y8TBPIwEGDUC8YgFynFvWC/jrYm31HrKTxHbFLLH6kHp0eEoRaQKcCF0EoIeGHpW5UFlVhR48ekbp9e1F+7lc5evigHDl0ABa5X+pQrnKOyOWXf0Jmzpypy9nYWF1HEysgmVTqAZecdbEW+cHOj2TXRx/K8ePHkM0uk8cfWyYPP7JMXn/1Na0pv/feBh1Ssm7duxo3CwNxR3tR1yNCgoKN6rOodAqaTSLU4EEOpx9+8MEO+QOy953YHsSz/fFxNFWWLZdHuX3sCXn00SdkzKhRMmBAfx0twai6+KYi07mTx2lbKCPHbEqr4L5yiHvWSd8uQwYPknFjRsno0efIGAi3nA197rkjdb+mtgpZUpt17+FePprO86Tf2Ocsa3slZ35TK7xGvRjtPMWxP606hZ5lJoeNcBQF12GPtDQjiz8uM2dcKHNmz5RFi+bLvHmzEWbM/PF8odcMjzHQZc5pqfosFoYFzUDbpQVWP3/+XFm69EoZMXyoXHrpxXL1lZfLuLHnyNQpE+T8aVP03e7cOTPlxhs/L2UlJRJ334rx/NPnY3NMz/HK6SMxpogeIuGdNPh8HFJ5GBZ38803yM//5z+hzRXBeaRGRhXx5JALqoX+6+h1bFUxVBbutWEqfGFN0nDeAxNKTbhU/vG//W/5+S/ulkGDh2s8GxvqZfqF0+TB398rxUWwllgLXDOrRrlYFNRphJzq4MpV/nBbiJqQlZGo0JTxm+NtGj/+cGpgbUWZ/Oef/Iv86lf3oLI2AHELSHNLk4wcMVj+vOIxCRW120L98IC5CEco6oQnvgHDc5Aa+q2BQXQfwmdlnAgLrlCqKkJy7++eku9+70dS028g3LobTx5sN/fYyHlNzdwiQi6VkSuLOhXFcTj8AkPMtrAKfjRAv24E4QRbW6jYs0DvT/nGH0EL1ef1gcdqXRaY3YWTDINvbMLhcrRry7XsrqwKowYdlopwmYTLWXaX6mBpHWFBy6cwQfBX9021zCUYEfuEFwjEOT4lEw63HFAdj3IBDVg6noljhGNRG9vDYatcP5dT+Slac1dJxtn1cdvYqbQHPEUkCHWBnAoskmyU+2ZiI7tS4QReWIrHF9UBpZnwAdnxwGtaEfEm0XJ4is5P8bIMq/WmPjBftUEf8J8eG5n2OAzPdWxQOODZCTs6bJ+wewxu3yUiiyn/cA4WYDkLaVQqsU/yybOtZE3RYaSeMMdJDi11ZDLR8Lk1ACWTdQb31qUncPo+QRGMH7OeQ4cO67tArvbcgVSns6rTtnwjEfDEnTcSk7OiO/gGo6BYu+GIAwcOa7ZNUPGsMTagCRSPc2Aas1BK0j9uA4XswmN43GYWumN47PflFH5SyXKYSuZ7TSZUDiNhny0XjmQnu8UP8UU4mqJUcOwXjU/XwhyEOHDgIMjX5OElk9MHQj89UMGMCqvnXDT4z8+8BAVZpDlanGUas0z7GBxfXvPFctAE+wFPmCACvK4S0JW9eG71y2/Lm2++LeXlYS27KPRrz5698swzzykZnMHNJgPDI1Ga8nEv/e8sFi7DDwRCCJsvn7ktlrUbtsradesS6/xR0UxUR9BO/tOTy1ERapNihgU/OG44KTYKX4XXGAbOZxKOomdzaePmD+UFHVVfrAmHYfUETn/kPAlFhPj80daIjB87Wq666tMybMgATX2ayjXZJP3WqPMHp6wJwE58Zpv0jxdBEmqpB2GZTzy5UhdtDIVKeUHjyHKOM79HnTNcll5zNbZDkF0XSAxZbFzX/TNDoZ6Y5WUEHNhLbQ5DKdBKxbPPrZaXX35VgsWl+rUmpnfGK4bnGjSwP2q0V6O2PgLnuV4DslN7khSwdszTOu8l5bo9fxEsmpOrnl/1hvzl+VV0aJLBrxOFv1LUY4TaPgcXR1DxYFdfNayJCrWKgMeUgu1BVz5amcIE4Qsbu0zJ9cca5NDhI6iRlun9WnHy3FlYLVrpGVBbq5ZrA5ytaeBAxXcCo8MaLyLIRj8VEkG82a+sFozsN6aj8b2yGfHjgOvSUEjbkxoWKkS8NwU4jySgf25UQip4PqAfHziI59IQcOz0d6roUUI7g99LsaXTOLqOcSVpflgoVGbyPM/5XbGs0bIWWScVSNXRMumO1wy2JA2nCrqEpdd5BQ9kFujc+kEq8Kf+Ucmo9MCtvmlR9xaeVtRIqBczzqpjRYuHWkNO63XQ0OBe/dT70oE48llwG4sXhukS9ungDBPKaCeVkAm84kIiCZldOmWaW7px7njsCDS/kkQmPbMrzo90aH0ThNqoeBdCEvQxxXLgj7nywvUSj92XdMdzdGmuzYUfWtni1nfP6cJPaKbke9pgZN1jZhJCLQ5ix6Z4p3zTI/0wFwnfVIm2b8q2Y0esCrwwwRVsSVwmYUg2jgkqsGBTAbKd6McJfGGT3HTRNqu31XCd4I70rcX2zOCMEHoyUCKxtTapNzu6nWLfwkaLHediCeGc0zY03Lnv6VDF1JT+p+pPEYIJgJUlruXAstD8trCdtHFVsWirCsNk5wJJDcCTABhzs8CdrxoFD+6sxkEtMrl17s8UskaocYCHwz8n6kaam1AZ4euvQv1YXHlJkYTLghIuDep+Gar6lFI0ZyrKQ7o4VQyVIr7XpCSV68S/R1gOwHKT3xFl8coRIQlBMxfFmkpRUYceo4UiZQibK5NFI8jOcC/vs5aoWaw+R0b44+KXM4szUoaeCBgSH48VDZiEzJlzkcyePUMrCqaoZE2R1oQjuwlZJFfz4rdDH37kUfnow48kXMHvYtMK4KenM5dBEuaLkUnrmzZ1kiyYN1vKS0twH2vFcAmyLRvHvajQsVLD3iG2m1m5fuKJp2TDhk1SVV2LbJNL2OEkw6N7Tyyc3scZrxSdKBhac2O9zJk9S/7rf75Dxo8bizMgxlOsiw2PXfmqNdJAQDu7Vz7zovzrT38ue/buQ9MmrGS659CyTNVs4B5ftHNa/X/50bdl6pRJsMBi7Z4j6H0iMWCHhDJMhsdyli/N//mffyrbtr8v5RXVViaac18o2YGf0B6Y8HuqMA3y3eS3v/V1+btPzdeIaS+R6y0qsh4nLlDBAVbccqQ7LRdOZczYsWjwD5RN723ScUmccq+2jYt8Hj6NPRHKTIbV0ixf/dqt8oWll2nPEOez8kv5yTCLcOxNk+Aoe4TJLe8fOXKEDBs2TNeg51ihIHIJ7QJkePrrD693wYTXYxN+TxVUuNUMBYoaoueiyMb4vWsOD+GWK1zaluLOmfDTkm3xiFxxxaXygx98R84ZOVyamhuYIyvYRDTlakjINuOCZq1MmMBcQIQdStF4BwT+tnVoLxO3UWxVvDDjOMc+4xaU1wsXzZUf//i7MnkSJzQ1wFtkvrRkhuVJtpE1Qh2YvcViXJ2a+2hQsJxDNph8M+E1NLytTQWk5kBA1NYnuvzyJfLDO7+rHx1obgSpTCfKppFJt+79LC1bgevMYvVNEMPEgW6RqLRHCm5dOGSKXY2sTC1cNE/u/NEdMmH8WGRxCAv3Kan00FJQVpE1Qk3fWtqpIg1KoW4NVlGxMtW5MWiFCYrmi2x+YOCKyy+RH3z/O8gah0qTTtGzBKF+WWC6cX27RrhdIm9O1Dm33NVwbUuxpcpbdaTCP/34OzJl8iSpP34M7uG3V4HLNrJqoa6ic2JIkkvRyhGEWWwUFs4XA5+47GL5h+/crjOlGxqOwh2t0iWE1EqSwfzET0JIjm49F7zOeNosNfYNx6S1JSILFsyVH37/73VeKed4dvkSoJeRVQvNtNilKtiDf9+B55ySk9MBQWo0Jvzm9uWfulTu/OE/yLnnDkeFC9V47z7CEpD/TIYIpIFhMeGwqWQ9S0wEbSA1Kgvnz1ZLnTR5glbuMsW3t5FVCz1dBZBMitZIUVOlteJQrrryMvnG176qTQ/XLCH8CcgljBMn1d7P2kxzvuhGhQ3Z7+LFszWr5ztaTldM2nZ2kF1Cva3Lek+eYGsn6stxtE3Z7KBX7OG5ePFiqamq1l4oBuRs06mb5bYOEtNY+IVIZu1OCIZBYZg20ckW81i0aI6Ey8u12ZD0IzvIKqGEDcFIIpMiu0eSJnXv1Wj4zjUEq4HOcdWrheK6lpEEarJ8ScaS1UjIJJmhZSr85ye2SCiFBFsN3OKSLWSdUDYR/BaaSmIquemSCh5b84ZphKPu7J0sFO31CeoICm2SkHcjszOhvO72M8EqUhSNNX7sHTrJ1KtZJTX7FkpiPHLckJVUOOV2FqdYh8Qx9GltWSqdYwgoVDLJ8mq9dOfcdyHOv3TxPPCybYaFH66x69o9Cel9ZJ1QTcyJFG2KSCqP59RBBiH8yqPluHPqi/pBJO/gsUco92G5+pWmNNFe/kQYmWD+0i/b81s1xDVks4DsVoqgcA675FAT74SXXXkKgWLJSVKMZIpf4S4BOCK4q1ltN6TQC3ef31+T9GO/eGGlwIXjbdMv9yKybqHWOWDRYMJ2bzko1BtJ0XVvlVw9wrENG7ExP7zXiGTTwpGh/qC24lRtJJg7A+7nvbiH6/PCIxX2L+vALV5nLgo36gvdOOG1TqTmBrJOqCrRUw5/uUslapuvmG8+OJgqoFMFSSRnmNEdt24wNWevUdE6Hhf30o90fZvlO+F1EsdFiTkonIkK/qHZY6PZuUAUwkf7h2HznEsomoA8Us0nwgXmbZMXeh3ZJ1RtwWnAlhE/fPiovPPOOp3ivubV12XZsidk46atSupf166Txx5bpgtWcDD2u2s3yM6du7UJwYUr+F6QnQtW2wUJ8FXVTNI08fCAw0Q50v8o/H9T792+80PZuHmr7PjgQ3lqxUp59rkXpb6hSd5dt14+/Gg3EpiRS7cc2M14JhON89eITvCbBeQAoXx+pwFYGSyTL6yfefZ5WfMal8NZLs2RmGz/YJds2LhVnnjqaelAFr1i5XMgd728+fZf5Zf/99dyrL5Rlj3xpK6swnYhqyk6Jpj6hWi2Dgvnwv4E34XuP3hIHnzoUZBUKOvWbZCnlq+UF158WRdh3rR5uzz62BNIOK/oSIVQKKCv1F5/42157fW3dGWXQliuwbJnkmriEZsFZJ1Qzcq8zgXtgYEe+D507759UlJWpuvkccnV8nClvLzmDSX8ik9dKqNGj5EXX36N/Qaye+9eXQeJy8u0RvmxAvgL0bonrJJbeK4St6D0eqS1VfbvP6BKYLcdLZFf+z167LgO8KaFHgdx/MIDrf4AEsDvfv8HeX4V12rYi+zahqfoWF21zOwR6ZB9QrXtqSrX9Yg4j4WTc/main205503TaLRVlnzyssoywqVBI5uZz8qX6FxGsWnrrhcduzYDst6H5bErxHCXyYU3TNoUxHlJMtAniex+m20trjs3n1Ajhw+LP372Qh8rgexfdt2mTH9Qs2mOQP9eEMEHnRIOByW999/X9a+u1Z7h2iR9v6UVPYRClC9phBiNbK8V19dIzNnzJBiELhv726pP35UP/F46SXzpRgk0kr2798nixcukHBpSKZNmSRXXP5JGTZ0kFaiiPRaqDX+oWzPYqPRdhkxYohceMF58vsHHtRwPvmJy3QO6YL5c2Xu7Ivk+LEjMnBAP9m8eaOseHolElmLzhDnHFN6ZdkrvQSxINIku8jamCJXEeLixtdcc6VMGDtSLaisNCi1tf1kwYL5MmTIYClCNjlo0EBZvGi+DjPp37+/3skv5E+ZMlEqKst0uZzRo8+VMciGeQ+f58ixRnnkkcdBQixRS6U1XnnlFTJuzHD9WDorWRzlwKx+GnKCC+BnVVWljB8/TiZOHC9cOm78uDEyaOAAXYKHnxOprq6UCRMmyLSpUzUcdta3tsbl/t89oEusuymQvQkmKDemKIvDOFmRaJdjR/fLb37za/nMFQulvjGiU+3iyA8tgSFGiCzLKGa3LOeoZJaxzO7i8bgWjTrMEzucxsesmt/x/HDXAbnuszeiPGxEEwRZKyo00XhEfn33/5ErPnERyscoclDOL+U8UcuoOAObFR1OcOIyA6zpMAvmHFFaOBOFWiZjjwhyqTmu4lLfEJPLPnWl1B08JqVl5Xwy9a+3wAR5RqdCnCiULJDqZojFsdXVvaBI/Ro+FEwimMz4/W0qlEpkNseBWySSo9+pZCqc0/41qeAEmxkkmfu8n+1T/lm/LsPmtkATCcPXsLClFbvwdctz3Ec825GQKB0Q3sdeLoKz1BknjUiWkUVCLbVTwfv2HtAzBYXF3ig76yOlJXAANc/ZkEkuqoiaKs61caKIsJeH1sPOBGzbqNgAsmmRvXvrpKmpWTsoaE20cK5C8uHOj9QnN3OcZHBOqQ7URngMm00bNj04mZiC2yAMkzVaZt3smGfOwaUBRBefbGmJwKrpc+9aZzqyWIaaUI3M+y+44AJUQKrUqjj6gM0TGx1QhH1ubaQA9wM6Rteu6VoL7OXR80VSAtm996D8+3/cL+s3bJRQsER1TH9pbcePH0cZOV4GDxmA8g7JKeEnxwHDz2IL30ZB0N/kdYobHcFZa8Vwe+hggzzw4B/ljbf+ivPeR/V6GTlShnqEIq/isuHz58+R2RdNtU8fe80YlkXmRg8VbOrxUO/nDk7oBkKTp428vXajrEJbsYXrJYBs9hjxoZltckjKjOnny6KFs6WmqgKWZ1m4Np3oqQftQvT2/dBwucOIwMX69VvRHn5FOzbYL5xeu+4N+MvQ7BLKZ0flg0rgbLMwmgy0Eo7UY/lGqqhof6wcoQrskEJ/vKlPrk3LLWu3Nt7WCKUrXZkE5WRluELbrDZaj+EkfFVoAvD2/dCQGC6uMzL1aLNyngu//sBsOxvIGUIJqsBZD8s4ZsFsl9p17iNWPj2lEKqgS1+84UA/rQFroUvzoTM0LM0JunLxcWAC8bJjWqb+ZQc5QWhmuPCdkhkj/Gn2ZkgS6tzwWnq8eWyuuoa75+PcdYee8OP0kTPNls5wJPGXUWN2ytSfKqzd2tbcdMaJKDgZ1qmjJ/zoWWSVUC3XWBZlgJ31SGUFxRN3zqo/WY1+TiJNIy7F9Y6wDEstxzIJr3clmdz/rYoBhHY+mRvwx+vjyPwbh6rAdJHjeRYjmYlMJ31kpiOrhHZXhp4ITvTe0w0nn4Bmy7SOqqpcabb0HEgg27a6ELLXscAZZDoUBchGj86ZApst/LaNflWx3xAQmqV2qLOaM6HceDwuNTXVctGsWRJpieigMI40+OCDnfrO8mwlNKtZLpV6phTLxMI3ILNnz5YffOcWWbr0Wu2c5+u2s4nMdKQRygc9O4Svy5hqn3/uOantP1i2bd2qX0Bit2Am9/ku/CXSXp+dXWA/Kz9bJYGg/OXZ5+TAgQM64uFsA3Mjvj7jS/q0MrT34cpRIpkVcnsy5Xln9/SXwuEr/LJRSySiHfK+4HoUDCtbWbn15TZLC8tQiwJ/sxMZV46mknky8cnsnv5xeCWHevKzXBxGcqbIJLJFZhIIH/852LFArTs5EXTvnormyIa/FYDQbKesTDhRMh1O1v1ZhgSFOd/114eTRR+hZxkKaodM7ahOdP31IR+htdxm1HJzb8RCH04XSqj1M5yN9umeyy9nL/h0CQtNf+x8EDYsM5034bWuJJP7/Ba0z/ib31muNeb97VBPEk+Kx+sk3rWUe84e4AnPAoAgnXzEQWTcL+SnKG3xC05PKA6GEqLTFXDeZpzRvbJ71kBruVVV1Xn4gtvFFVkoSEksqgjh1wbtRTbc6L/163LANkfl23dFYxJv4wdq7WOt6fD3Mec6ku9Dm0noFN+IhXwCFW5E8SsR/ByHfcqSy+AU6eU2EO36WAtJKHf4oJx+0W5TB7nMeYxf543bR2LzEUZosxKayHLzKEEmQDK53kJZWbmUlZfpmkPui4O2Dh/JpNhwUUo7zJTX2WnPUQylZSW4v0xKS0p0ZhmVQ8knC/WDQ9MBS8X5As0+IbTIEhBSzIWnPIvVCcSwPi7GwSzWCdhUgumK13TJGz32/CktE36j1H0AXv/yhdQEfXnVl2uEUaj0UhJQRgKQveKBXNZqMCLMNYmx2dr+Y1LJ3NeKGmbbyLKDJbqUDq3e71s+IW8INWsxMs2aSpA1elPifWQmiXPCSRM+QuG0sCPpivPcdK0/ukLZW1wUgv8l3uy1/IMRSn3ksFD5rIgyawyHK7A1C2JpmWqZBiOuQ19qt8eTXx7kVwb1q4dwYEupGtHqk1fmsuxlk4ek6oJYOKduSHonwa25ID7kvIXSMh1pJSVl2pakkpNPYvuu0kOSSRgn8vLjOQE8YWEBP/zK9RC4kop9EkSXE/f5YWWqq0y1S7C4WEIg1R++JRWqLBfVZnEsqB3MZktut0OpUK5qUllZo6P2+EVDqN37U/tSd4y9Kh//HK65cME8XYlMVyvDHfxyA7+z/cjDD+v6gWVlYW3aaAqAiyTBTATMitulob7BW/HEbNlCIXJnKoY2W5qtHZqW1BjB3BPqmx+q4w6JcqtsJpSrhMClZ0lRtC2nTJ0kS5d+RrNdfui9EcRUVoXls9cskVtuuQl3tkMJjdZEwT2eD54YXVZRQrho4iSv8YojM3eEv0SgNDzwJyVog7kTuQZaRjEsi1/KT6hVtW8xVqui9UD4cfVoa6s0NDbItddeo2s2/PKX/yZbtmyTt995G+ViUMaMHi3lFRUydswYWbt2LdzHjLQUDRi93HCVlTiyb10PSU86d3732QWf3Q3jVAs1fnMngg7O4vi5Diq2A2Uhs1oTxtgyXmaGzB5pmeeOOkdmzZoOwkbLoUMHpa6uTo4cPSZHjhxFOdkh+/Yflrvu+pmMGjVSvvrVr+iaRq2RFvhmGW4y48UW7rmKWBDZfSpyS1eJ2GAnF0v3TmDXHsm1Mt5U7tRO6KerIs26PuDXv3aLXHX1VTJu3HBUimKi6x2FSmGFpShjIjJ02BAZNHiwbN++Ta66fL5881tfF34/lH27GYFgWG7bx+oQLjbcM2vNPYBQUwx/c00ItjXZEeC68qzSA/vULRxgG41Fpbq6Wq777FLZuGmzPPTgg7J12w6t1bpuvBCKlfc2vCdr31knixYt1nbm5i075ZOfnANrHiURWmnCf/VYhcf2IVomKtSilVFnzbkhCm8n0/fkcgaMm+tbpU2oMhXORky47l9lZYWu2vnSiy/JW2+/Lfv2HDAyYVlMEMy26+uPy29+c7+seeU1uPmr/Pr/3S/1xyO4N6zNHKeLTjpBMJwrY5+BNuSU3jQy/MmDrj+SyFW9uHUUJsEjI5vQRRhBbqCA70LdlwQ7pDXaIvz+dkNDo7q9dMlibbJsf/8DaWiy12fObyeEyxEo2iuFC6Y2k1yEEZqIJX5ySTxApfqbMNAEvCySW1RgSCgrMXRH+lnScsny2bNnycWXLJYRI4bLt2//Ni4WyabNW3QCsKNQX6/5Eo0LSv334qLk4o9VMT2XK8L4eMh5C/VD454GI9vb88pZhVonzmpTpkWuueZq+dEPvoGyMiL33HO/7N6zR4KhoGfFdM4+X2y5z/twkj5R1A33+QOqeZyryHlCVbGqYO9EV7B3ZBBr0LDSE0cbM1QclPXr18kzz6yUnR/tkwdRYdq9azdqv1ybD1mtV2midScSA+B8S3bZ0t7tQPuBEzacW/AIddHPMUDBbvFF7R1ShfvFwNN6ScEaMdy2tety43E0R5oa6uXpFX9GJeg+eX/H+0qerosH12ySsGuPlmdWibCQOPjHMHiOSYRls4aj6SV3LTRQGh7wk5KQ6ynKvYjSgtjtxxqr34IsrhCc4krYVRVhufTSi2X16pdkf90BqUEzZskli7QXaPS558r4CeNl5LBhMmH8BBk7dhyOx8mSJZeghlsly5YtQ7YcRTOHX1lSL00f2Kfhs0LU2tIiXF2bZa3BH5fsgjkM18plT1GgtLy/r+vPRTY34MouLnLB4SGp8OKKDTsQqmGNl1xyiaxatRpNkQY5fvyYRNG2HDVqlNTW1KKdWiPl5eUyc+ZFMmPGFLRdmd0G5MknnpQPdu7UV3NgLkkmt/Bbv8aPChff0LCnKRfLz1RCaaE5SihhRllgFZjEcRIsyzjYq7qqSi67dImsWL5Cjhw9ChLismP7Dsh22bhxI8rR9bJmzSsyYuRIGTJ0mPzs57+QjZs26cd3+GKb5Do4LVBRaP1ILBrRbkUtOXEx1zj1E5oXtVxaoH5MwNNk0krMnpgN8iM+PH/e+efJwIEDtHuvuqYG93KoZkw7r5n9DkG2u2PHTtmFitGhg0eUHWbr5pMJwRD0M9soM/kFfiakRLA5jIKaQZM6KquqrcD3TuYKSJBTMsv5svIwDkyz7mtGBLPCtnhU/u7TV8jsOXPkOMnFXUXqzr44wbYjZ3KXl4XloQcfknfWrjP/tI/WwuCe0wH3+UKAC1c1tzShkmWVIo2TZhPOZfbB+kUTZ581t+Q2oX5wWAjJYNbLWqw2ObxrCpzjRwYmT54s4cpKfQ9q3x1l/6syoc9Yt69OPtjxgRHIbDaNUAfNBRAGXxrH2/g976R2Uitn2UcGQqs8QlNUlFNgf6yOwUXFht16rrOeMabyudW2JMijWz6QEkqq3GNhl80PcsX16B2LSVs3p+Zfh0RamiUSabULOPYT6bzMhKSr3gGftxlxbUmMWEAMlNAcFv3QDspBKjjZ94pfXsc1utE3M2yHwrL0ey/Y8hsv+i0YCva1jxeVILpXYKsGTPH+qBRWMFrRlHEkMnwXFyfKXJqku+kNUXhbIxTQLCanQYW2a42TQ0r4AIyylmm86j0c6QgUePNckHL1i0oQ7lPowkHvg1jioF+WA7NG24J2pxuMnWtZbHdIEJofYAd8uw4zYZ8se4OMBI4QSlW6Wq9uTRwyHeuWHiHvZSWIfrP3yBHZFaE8my7ZRp4RSsXbWxWOUKAVcZ9c6MBo7FhPj6n34/4cBVSCLsUaafH8ZFdg9/S4uzNJ78Oehsg7Qs1aOrwyFVkjKgKWBdNamb3CNj1RprsQXqdbCtuqLaxUgFB90Y0w9P4u0N21bMNquZWo5eIAOsozeMSgksN5oQFO7uV0wgDSKR8mTe+WFqxOS9Iobcha47FWibGGjD8/WV1ltXTT1bVswJotLVorB6ETlVA+fy43W7oCrZKiVqUVIXbXoRaLa+yH5ZZPxa22JT0i2OzRz0d2tOEAQiJ9ZBL5RSiaWNYOzV9Ck9akpaDtKnie1ts1KeaG1+3bZ4TfOolcIq07+AnNuzLUj6TCmY1y30+AZaldiXPrSHTb5PX8RF4TSqQrP0lW98I2bTIh4DeNyHwkFU9ghOZf1FPhyDASkvvuuCtJuslz+J4h7y00M/zEdYezgMw02EDrxHM5JfRJPgl/Hc5SC/3bAztIdKu/fchvoAx1swts7AXNlgVr0or7JI+EGze+WC000Qbrk4RAKSqZruWaECxJuV/opg84UvuQinzQC/ljnzTfGBXyJS5f6PYhP6EJjoS221qFSii/OtRnpamgPpzkIsiV4ysWj+tYKQK1XZQTINUGQ5FUnvbn0H2Sa0KO2CGv73J17JP7RiqIDteO6dBXUHynWFwkJcGQrktgoAcOf4vW63/+3IGNZixAUdkqEU7R0NeAlpt4hLI2Zy0YziMJBUvsJbHLbsi8mW5WkA218mkt1ac+dyILxnnXmO9NKHHtHTqbgLMBmLtSQYyVjoYM147GPiPmvQxGJO2lcVpkeznuFiOLKDTH316FhgjFpeuBCuU7Gp6GpuxkL4LhM166TQMbLh6hRDJySiy3ne/pVagu8cOI9jZUGwg2PV1zIIASaoe9DseNIiUSOOjokP8PKcxLHagb6t8AAAAASUVORK5CYII=;" vertex="1" parent="1">
          <mxGeometry x="10" y="120" width="116" height="214" as="geometry" />
        </mxCell>
        <mxCell id="u6fXfUsRiq09m7yTQ-iY-12" value="" style="edgeStyle=orthogonalEdgeStyle;rounded=0;orthogonalLoop=1;jettySize=auto;html=1;" edge="1" parent="1" source="u6fXfUsRiq09m7yTQ-iY-5" target="u6fXfUsRiq09m7yTQ-iY-11">
          <mxGeometry relative="1" as="geometry" />
        </mxCell>
        <mxCell id="u6fXfUsRiq09m7yTQ-iY-5" value="" style="shape=image;verticalLabelPosition=bottom;labelBackgroundColor=default;verticalAlign=top;aspect=fixed;imageAspect=0;image=data:image/png,iVBORw0KGgoAAAANSUhEUgAAAHgAAADYCAYAAAAgeCc8AAAAAXNSR0IArs4c6QAAAARnQU1BAACxjwv8YQUAAAAJcEhZcwAADsMAAA7DAcdvqGQAADs4SURBVHhe7X0JnFxVne6/q2vtLUt3ks6eANlZQxIIyDYkbCEgiCC7gIgLgqCO6IzD6Mx74+/pPJ3fzBucwVEERARkiwIaDIuAEkJYQhLIRvZ00kk6vdReXf2+73/uqbrVXYlZOt1Vlfq6T917zzn3bN/5n/2cW1E3ZHKXFDkqKiqkq6tLUqmUeCo94qnwqH66Ky1d6S4193gqodOl9vjsRhp6Huh1dnZmzHjtbq8YYVKiyGFzaKiqSrxeL4hK4QmkeTwSDAYkEAgosVSeShLtAkikPdxIKBRSu5WwE8B7Rr+4URmobvhH574oQdKIqVOmyHHHHSdjxoyScDgsrbua5dTZs2Xq1KkycuRISUOSm3c2y/Tp0yUNSW1ra9N3q5AppsFOS8tumX3abJk8ebKMGzdOGoc1Qq9FIpFIURNd9Fk0FovJ0KEN8tmbbpS66qBMnjhBTgdRyXhEPnPVlTJ12mSpH1wlN954ndTV1cpFF14g06ZNlWgkLPFETKqrQ3L1NVeJ3++VmpBXzj7rTLn66qtk8KAB0PMjY6SLuqgueoLTqHfr6upUcteu/kheemmRbG/ahqIpBP0aWfznN2TBU4/JscdNhZ2R4vVVSlV1FaQ3TfHXund4Y6Mkk3H51YP3y5tv/kV2QtIfevBB2d2yS0m2pUQxougJDqDeXLdurTz7zDNy5rnnypy5c1CHeiQejyuBJ5xwgpx+9gXyzjtLZdP6DeLz+SSZoFkSDTA2qkSSqaQ2zkT8qMMrQXYSKWMabsVMLlH0BBM11bXy/nvL5LHHHpcoiL3m2mulEo0t05qukBSK65/+9Oeyo2m7NqQGDRosY0Y2Sl1NjbagvZVeEG3sen1+zQTaisZfsaPoCaa0kbSL5s2Tk6bPkGg0IW8vfQeS6Jf1GzfJi39cJC88t0A2b94qHn9Atm7ZKsdMmChzLrpMph53gnR0hGUL9Lq60L0CuXtaW2XHjp2g1lP00ksUfSua0sbWbvOO7TJkyBDUn7tk4cIXJZ5MyNatTbJz127pRNHrR/enoqJSmpubpWNPKxpZEdSxe5TcrZs3yy7Yk0q/tLe3y+rVa6QVrWzTdy5uFP1AB4tStnRjaBWziGWl6vV5tR/L7lIwGBKf1yedsMMOcywek7RTP1egAUXi4x0dEkRxzT50HPVzKoFSAd0notiluCRGsgh3V4YtZH3kT5fRdxNFu/aZfVze2+cKNK5YH3chQxQ7uURJNLIIS5IlRS9Qbj0L93N3cw5tciCkVFASBPcciFDxBXHmaV/oTr7F3vSLDSUjwWXkR5ngEkeZ4BJHCRFs6t386uDRs34vLhwGgrsn7uFXbA+RiL0pY68UcODx6OV+cP8lpiEyP0qlRZwF47N/cdpPCbbE9Q95hw53+ItLdXXlUzDKYN9E55FgOmy1rCf41dkW6u/dwf4SlGxxnBsG+2z1zHX/A5ktFey1b6HhT+cJbwX1jDKjdib++UqqHgTbabMKj0cH2/miXhlJOJDu6p9RnjzRzICT9kwNDjMigI4u4DybeJvw78ud7tCE4w3d6Qeo73vzGsRyDJ4Ec7FgZ2cSmtZyNpbdCIaTILgChAaCIR2IZ+JVkmBNHCZW/iTai3avASXTXkF+9+U/X2Vi8XogwczYp/u89gOypUgWqkM+HJVKJSUajeiqUsOPVbDrJrgLr1Jag6FqCVVV6+qGzLisk4L5PCQc48OGv+58z8zHJ4Y2I4kHgcMcrUMCRNHEDZFLJOLSEQ6b1SoaahPyHIJZugVDXMs0EC+Z9pcpBgo5mlnsLZx7y5TFDnfm5TUej0lHR7tKtI1yTiua64GDoSqtf0lsMZFLmNzcU5UqyAz54bIjXrlAMBgM6hSoRS7BXq/4fIFMy62YyD1S4WaImZkL9+0cN6EEWx65+MwYmucyigjgjLxVKofZpUZKMJlPo5lKQ9rSNcNlFBWsxGovyFUtZYpoa6GwhRd1qvPH+6w6skHO2I00HOa2OzISbFHIycXxhgpEhyVMpXPP6BV2puwbmJQwd+62k1MHu4ytJLssFQbSUtHVKelUXBLRDkklogg8ieb2E8fKEY4si1k4RbQ1KjRSLRAukBuLtktVwCtz/uZMaW/dBZIjIDgNgk24CzX0fYnuLBYFwSyKqaKRDvTzfPK9794j8+adL20gOQGSST7DXhbknsg0sgoZJBedNx0X7wi3y+hRQ+X7//JdmXPeubJ79y6Jx1Bcl9nNC4dgpo5VhQc2AtkO5JWjNpTXEY2D5fv/+7ty0bwLzY5+6Jc57omiIJgNPiXZ4wGZpgVNDG8cKl/5yh1y1NFHQ4pjOb2BMgxcRXThJo5pHXAa06P7hxjoRS//ST7e2CQP//Jh3YCWBrnlDlNPFEUdrJkPBHoqfeIPhmTB7xbKt//+O/L20ndl1eo1svTddyVUFSrArl3/oygIZu3a2VUh/kCVxBOd8p3v/lCWf/ChvLjoFZl38aWQbC+rYKBcRHeHsz8YxRsSKBAIorgrxDMpSBwlGHVwKi2tbR1SN3CYbNqyTXa3tMmePW3ihXSXwYKuQnsVbHjyvkiKaIKZEAH2+iRUXavFdTyekiVLlmrGLBfP+VFEBBsCySPJZHeJjau62rr8Kw/LUBQRwWUcDMoElzjKBJc4ygSXOHIILjdVSg9KsI7z8qbc1Sg5KMFmMN8QXUZpwSmiKblcSVmW4FJDpg4u/ZEgM9yZq0oZJn6uRlYpR9gQavKwJdeqUkQ2flkJdlQpgaUSSeVicO674s4NzifznkcN60J/JEIpl16mkeWo4kdWKrk4gARydiwUDElVdbVU1VTr7kkqzh+bj3CE1E4xf5dhX9Dto1wVn+pM67bR6qoa3VVYHCCZzJoOqY6k8sR3r98HKYWkgjju1fF4jKRmbTsZW08ASOuWS549ne5M4d5ZpenqVRSLlDO+rXtaJBHnEiZXHZyNSjGAoWXQreKivErdPkmp5Ob1YLBKTyjw+nywYhbr2W2WSixiz/sKZIZK2OFKEX0vVK3uWIku9q6jiYWTOYsjKgylUWZ4xhTFwVBQi2E9dgJSzPOhu5OqWZrE4lYl0iHZ7oOm9JNcusNvQdBdfZd2ixSG4KJBltgKTv6jSFaprarSerUCBJEKlbpupJg38ys3KNmVXFSgx1iYzfAG3W0WB4qMYAcgl388yb1Ki+OgkqqnEjjE8lkpwTOv1HVTbp+p3ERTWin9fJ+bqVki0IViLaqLkmAWuFyfFQCxelAMSLHFqJLpkGrJ1VuQxuOGUqpSPRbLZ+mDO9A3mYVnljADhaBPG1lbxYKiIVglTfePUol+k8Ef8OU/R4TEQUsV3uxMJvQDWj7WsZB6P/vCcCOVjMNOWhPBnC2mspqRVmacShTRrJN9/gBtOap4YLpJuGGxxG5SVQF2kzTtka7s7qQ7u8SPVm9tTS3qStOYsqA9IkMYftj1qUIDbOaMmVLf0ADyeLxBGn1fj6z6aJUsWfK29oXVbXUARb2+jIyjdNNfjyTgTri93TlWSkMEVXjo3k3KfFaHUlC4y2aR7JBeI1nmK6F+9HP187HGVIlwK5LLL5vx3KhPXjJfzj33HJCd0oxRXR2UCy6YKycdd7Rs2dosGzZs0Baznm2hflhXs9BuE9Ilxa+iKdymhQOmEbfxmGWzJrMXDZjx+MkcNnyM3GqBmpPUvGfEOGAR7miXgN8r8+fPk9WrPpRHfvmQ/PqxR+Xhhx+SzZs3S92AGrn+hmtl1ikzJBLpMBlGM7e64igDDpTYL6LlMy9UFBXBhPm+b/aYIDdskneivg2gfp48aYKcdtqp0tAwSJYtWybbmpqkuXmnbN3WpEXuolfekr/85Q255ZbPyqmzZ4HksDbEussvSeWfjmFDkum3racLHUVDMIcUmbh+VCHdpdYNEsRG1PyLL5brr79WLrroAqmu8WuNyoYSv03IepiK3zBcunSpfr30rjtukenTT5BYPOq4lAUJpaL/PvS7iwmGYCe1espE4YACy4ENK0H5QKmKRCNywgnHyWWfvFSWf/CBvPb669BjgwONKI47qz2PvPLyq1Jf34C6+VxZ+eFKGTigTm644Xp0u+A+6m43LMF034fMo9LLVl8RICPBhUyuyYGQWueAr70RzFgkEwmZMnWKJFMJefChh+T551+QPS0REGe/KCpoZFXLokWLYP6w7mt6AXae+8NrMmrUKDTggloXd4f100w1VmqJsvdypHBgCEbYeVPIwSU5TNy/BgoXB0HaWs3HJfnpWcZOp8ycETAOerS1taNFnNIPS7///jL5YPly/W4hE4NuaKJ0A0nWmSknoxQDlGAG1ubuQgaLZ4Zz7xJsQHP+cdKBUs8ima/w3TkokseOGSMzZ86UL37pFh3LDocjaCF7UYS7+7hWZcEnM9jCu+KYUjUEK7n4w7WQoSe77yeYGcgIydb44VUSOGnSRPnyF66Tz372Btm4cZPcf/8D6E6FdfAEFhw/epJLaMaxai92Cg2miDYy7KjCxYGMsLFBRhIYI3arKHWc1F+w4Bnh9/rXr18vP7nv5+gPb0Ff2S9dPPvDgwYUkoQzVUyLfPRlU6ioCDZgzixUMGzuYcn9Aetsrs5g8VtdHULdm5IVqGt/+KP7Ibn360elvWonJaFglX66oJONJ2QON2yqmOqBdybjFAM0JpbYQi6iGTaOAzOs+xNO2mOfmR+JZgPqnLPPkAsvvEDmXXShTEMre9aMk+WC88+D/tnyyU9eJrNnnybLlq+QaCyudTdhfDFpw18+sxTQ9CoShjNHOBAci+YSF0t44YDhM41ANoqyk/C5IO+xaFROPWWmNDY2ygsvvKDTg03btsnRRx+FFvNYGTG8UY4aP07Gjh0r559/jjQOHyl1dQNAbEye+M1TsrulRVdeMgUMqcZf+sh6ncfmcwJDNQsQzPzusWjnmw2m6KlFRHmkf6HNJmn4nIRmH5YrLfIV12zgtuzeJV+98w458YTj5bbbPo9IcuCiS4YOGypD6uthyzSk+P4PfvAv8uKi1+TXjz3OlJHtO3ZC6gM6hmGyuGFRydXbLnSvWiWBvnahgpkw76K7QgcpZsmiKx8dci0Rpk3LPwCxat65U4YNHSRTpkyTESNGQlrHiRcNKI5D79q5W7ZsbZJYPC6dcO+d996XD1aslKbtzSgdAsokucwq5w/ushXOxQIWxu+9q0JAkUiwBRO60iyKCxpJy446od8LEuLRmIwaMUK+fvdXUP8mZE/LHsfYSXJcOS5d3zBYfAGP/Ou//gckF+Tqqg1jTpBcMxxJxQV5FXCvQ8KRsDFTXcfKXsDu8j6MDwu6S3DREcxVFqyHuTiBMejUAQdNahRHTM4KSUI6p06eIidPn85H6eQ6Z2YEp3Vslvmk5c3Fi2X16jUg2qy7IowLUHTSeeLgBr8stgcJ1wkptv1x9dXc5kWZ4IMACWYft7Z2gH6djXUpZZIJyUKaZowM60kuymPRqt+gIBsOMbwwjiku43EabXSXpqpogQmCJ9tlCkc6JAIJdpzIgLb2hm5W+wRFWwdbUHpYF8fQUmS3iYTaOpJ/pgtToVLOxGe/lh8c4SAk61yqFPVg149eA8nlO0osFV9XJyo0sZhIsVg0c9ipku9C5r08qhBQdAQTTORkMqET9CTZJjoJVQXCeCV57NNScUlOd2XtElokQ5mL7Wt36TcBWe9ynpl61n6xoCgJVgpQ7FKKdRUGilqufvRS4hwbBg5r+1TdpA0PWmRDyo37EXWffBcbuUSREgwSNMHTEo9HUTeGUefEwU2FVMKAxTgjZopbSCPs5VfGDnmme1x3xXdZKnDAJArFuppm7gxRTChagokKZSetkwf8KGM43K5FN1jRcWVKtJLtKDLFP3ulHjOEKthPd6Y1o3B2ieRy3hhGDsHFiaImOAs0njpTujKyowOtXRSrJIozRCrBltRuikUuJZT1KxtRUZQE0XBEu1kkV1vfRSi1bhRdN2nfIBlKp45ccY5XJ/2h1MTp8mgTDBFmBmBxbLpM2S9oayON5LOPXWTSW/T94P0BOdHmFv8prSx+GUvG2GHM9I1JMlQFJB2kV1ZyKwyeqTRL0IzX4kHR94P3B0oNIser9n3TlNJOSGlCR6TSabP5jPpKoGOXo1v6B8KpX2zk5kNJEkxwZIrKFrdURPbeKP2jHp6UcJdZKaBkCXYjSxpBQt1VUHciS4NYiyOC4CMZZYJLHGWCSxxlgkscRxzBdhTrSEHJE2wJ1eHIeDyjrFmp44iQYPaHhw0bJhMnTpSjjjpKJkyYoLv1i33Ebn9wRBDMlZgjR46UL37xC3L77bfJvIvnad+Yn6o1Q5elK8klTzCJ5GIA7kXioWmnn/4JaW5u1h0PeuhKiSdBkexsODRwAL6lpUXrXk4o8JvDEd0yao9jKJ34sl1RhDsbDh3MtDx+afjw4bJ27VoQXQk9WzST4NIg+YiYTcoHRjwSjcqq1av13pRSzMilQ24+HDEEk1Au0eF20VyULrnEEUOwxZE0yEEccQQfaSgTXOIoE1ziOGIIZs1rFVHabecsSoxgN41Zpb9gM6NcpgePA3370Hw7WBw2gjVZ0TXhclRVaL1m7u2z06JlF8bom/fM3/7DSKNxT+/hHq+E9YdeGYV7+ud0m/hHXw8MzlvWXfpur92V+gFoHJ37PsRhGcnSyMM9Xa7aleJ0DjR4BEJaDzjhuVU8RpDQ/b2MPMyZBD6vX09yJwxRdM3StXcw/NyNoN9jcMLPU2d5cHgqnqCh6tEfPRUA9r26N9irz3/dhywYIrNg3pyMx3hx64sPfnFig1OTFlxsT3OOe3MomDE6kHgdKLqPZB0WgnlgCb+RkIhH9dDtUDCobjLiiUQKiZPSL6XwWAS7tJXjwl5vQDoiMd0XpBu5GS4lnuiZGEY6uFksJTFEqKa6SgJBP/yCdCKi6VSnJnhVMKBFFVdTMmn5z3dj8aTEESYmvvlQVtYXJn8+MDTRSERq4Vd1VRWemFbcZsrx306p0k/xwBbia6WXJMcR73giqXldD2mDGQ0Z997EYSdYA5xOSVdnUs6bc46ceeYpUhUKaKIzgV95dbG8/NJL8q17vgGSmbvNO/wUHXfkP71gkfzhDy+aiQAkhB6ZxMR33HdDN5TBIImMxIO/zz77E0hgfmJHJOj3yJKlK+Xpp5+Sb37j61JXzbMo05qhYCw8sPSF378qz/1+Ie59eoo8d0AY070A78YiHTJzxnSZP+98GTggpO55kVHfX7Zafvazn8mdd94p48YOk0SSs1jc4GZO2nt/2Rp54MFfKtH66QT4x83pJl75Yndw6BOCw+175OyzPiHf+87dMmnSURpJRoFJ98CDT8qPf/QjWfzmn1B8apoZMwYG1+/+r/+UZ55ZIJMnT5GXX3lFPzdHoiGTxgJgcz0fo5GwTJ08QX7w/e/I1CmTpQKlO6XV5xV56revICN9S15/7VWpH8ivmOlrCvr34397QH7681/IiSdOl0XIdIFglXiQyaw9a13DBxWLhmX0iEb5t3/9npx88onIhCb8jN+fXn9HrrrqKnn++eflhOOORlVh/KAZr3948U25++6/ldM/cYb87vnf64k+zFhm04z15dDRnWCmRa/B1G8MaJdcdNH5MmWyIdcN85FISpLJRDR22+FW0IEo1u+68xaZMf0EaW/bjeIupY0imwY2KUg0d+CffvqpMv3EyZrgfhBLcgk9ooXTZl2mTrTeMOJEKhWT2toq+frdn5e5556lGRONA/HAXdvaJmzTiFtUzznnLJl96omQWvqfdaurKwmJJV2mbcGCh8qiM5WA3U65+6u3yhWfulQ62loklYgh7nTdxqj30asEK7eA11cpw4cPNQ8WjhkTXCpYH+dGKvOERlkiEZWZJ0+Te/72dpk14yTpaG+FPus0ttdo06SqPoP8+vpB+sx9SCTdukUz/DpXwCHDgpmJ7YTjjp0Ekr8g5593rrS1tsANHtcA63CImdaCX1wZO3a0eaA2lPWL+55YH3PvE2FDad/m7kVuVh81ZrTc8eWb5fLL5iNzdkA/Dj9YMViXehe9SrCFSqi2MPPBRCRDg5NINnPwKe0k0mmzp8vffesumX3KDAmHW400Qt8mGutRgoQYGFetueOykp4PutkM5McTXUryN79xu8ydew6K/XYkDBtqqEMduwSJ6GKvANCil3r6ZODODITx3YBpwsZXNJaSo8aPkK/d/SX5FEhOxNrRZKF0Hx6SDwvBXOvk7iq4I6pJ4tJgq5Lpb5NGJceVTrNPnS7fvudOkD0TRSQkuZtrvNPjggFttUJZU87nsyJwtyjcbpN4bXg5Fo6dNkG+9c2vyBwU1/FYGOZGkjP+4SGJ3oEFjbLOsUHFU3nyJ6mGDe7Y6mjCMWPkrq/eJpfOvxAk8zCZpPqVda930OsEG2lhMHOdzlJCs2w0MgTbNOS9y5xV9SmzTkRx/RWQfIo2HigNxtC4xL41waMYCEuoShSUXbjheJEB/WZLlpJqYYrrL6GuPVOSqCMzfilMX56wbtnCgb0EnsLX1dUt3o65hgX32vJ3MOGYsfLVO0DyJRehPo7TkR7xP1T0OsEEc3K1fivBgMG1acjvHjETBNCNIahPZePNVmBOkeroz5pxvHwb0hVAd4rHM2QAu0H9rqDjDq/6BL/8QZhXoB9uzB2nMuAndjhAASdzcPxxk+Rrd90mg1G3s09uwWCxr05Yt+zV5wsis8BP9EIIGxYbL3b7KN2hYO6Cg0kTxyvJ48eNlXBHh6Pbe+hlgpmLWWRWysaNG+XjDU2y8sO1qj6EWr1mk2zb1qTF3AfLV8iq1eugv0rVypWrZN26TdLW1obGSEJWrITZRzRfjffX6Lv8qre7OCa8lV7ZunWbrPt4E94x7lCtWbtBmrY26YDDyhUfwq+PZcUKmq3WsGzYuE1adrfAIQ/eWy2rVq3XK/1atXoDulte9N9DaARli2SStGtni6zfuEPt0b8PoFav2SAbNmxCBvAgzKtl9VqExfFr1aq1iNdmpMdm7WczPvRLw6HmazTNGurrdRSOrQhX9j5k9Go/WIMGhyq6EnLslIkyvHEopC1i9JCQHiTaunUfy6bNG2XGjOkSDHBVI+o5/kHSvL4AEmudbNmyVU6dPRvSRffS0gWp9nh8Ekum5Y2/LIFbPHuDx+93of6KyDFHjZKjx49EKxeNFYYD79C8ublFE/zk6Sehj4v+LRtpSE02dti/Jgk7du6Sk086EVLM094tmehgpStk6TsfSEcU3SavWX3JInvCUWNlyqTx2jgyJwd0oVsWgF+75P0PVsjUY6dJ41CQlYyhyqBLFVIJ8y3I2Iz7jJNP1rMyORjkQW+C1UNFZUDefneF7GzpkArYNfX4wdF8eAc64GAnugMk+PJL5snRSIx4jEWcIZiJ+tobb8iSJUvk5ps+q4maTsM+zHloSjBUI7977ve66vFzn/sczJjgyDZ4l1/lDkeS8sBDj6DVy6+HcpQkrY2h2bNOknPOPFWLbrrFdzha9MHyj2Thi4vkuuuukbq6Gv2WEsll8VlbUycv/P5FWYkMcAvD4ufR/kk0drjL3xTFDz/yhGxDJvGj5GC1Eelok7POOA195jMkGt6jrXDara6qgV8r5alnFsjV114jY0ePkCQyNs/iYgkSqqqTpe++L6+8/IrcdPNNWmWk2d8GwT6S7QnIQ796QtZvahIf0oBpZeJx4OhOsDMk0EuAFDJHp9FfnDt3jpx95iz9UBWJJ/hBZ1/AJ++8u1Q+f+uNmpO1X4y4MGA0X4+ibufOZhB8PdxCSxxmjGolGlLhWFIe/OWvtf9Kgtkn7giHZfrJJyHDXKfjzsY269+APP/CIvnDwoVy0003yqCB1VoEmtasoLgP6AHgaz/eIJ+75ToNC9cS6wevYIfj0799bqFs2LIdYTZHDbeHO2TGrJPlxuuvRMZCyeSA4V648FX5zVNPyVVXXiFTIeH8NrGyj/Dw87X1zzbIqy+/JDfeeJ3U1aC+Zlhgaj4YUikvv7ZYln+0VgaB4N5E79bBWvyxJcmj932ow3wyYEC1DKiDqq1GYwgNmgA/Ddelp7bXVoekrrYWdmqlFuaUaL7HSYia6gDMqiB5RtVU+XVngiXQgqSyFR1EEVwD+zU11cYt+MMPVLKrU1dbg0ZfQMPBkSva89EvmKtftSGE1Y936ZexQ/vIc0q2BYt+P6oVNsroBu1R+X3MnAEd3aquCkooUKlu1SActfCbpQOllu8Hg4yH34QDdkK0j3TiXimmm9u/3kCvEsygqYRAZVrCJhNnkIjG4ClPbs8OTrih/VJXH5qwTqmAumATg9KQAbSsi0kU8Zw/YtFs4U4+c3o7beQHCTGn6VkbXXjHGamClg0XwaFI2rcjWZoWUJlk0MEYmueG1YL1vx24cYfxUNG7EgxoomvsnGDqvaMADoCoHSQGYUmy0OR0JRzvUWruE9YNfddRCujTzPaDCXcXTM/DwrM1zg2JQfc2rY6J643LH8DOKWf6ydaa46hOIUKPVVEGLgcYxm5J0SvoVYJ1nJgJpiHNDa2NC0e5WAuy8UHwHdbbFkx0G1PHub8acVOrZu1TmWeWFaZdQPDK7SpZc/5mHdd3Xe1Lkq/hcezQH+sXfxkuG3RzpV/GXM+phlvWPYaFXS+b5OqX867CvNbr6HUJNpMBHtQ7QaPhwIafrVsmNOtMg9yYafeHc34OmIhs9RKorhRWCnmlxPAdgvaorIuhYAh1rM8VFtBDc8cCv0hKAqx9vck8gCS4n92/BOCeX2UhrFXrFk+fR39OW9SEhsNaAtgFZLxsvN3vEvxsrbt06S30aiua4dWhODS0Xn/9DWlu2qizJTRhf48t348+XKX17xO/eQYJ73wQEhHjZ+U4R7pxwwaJxeIwX4D3zCGjWozCTVbblCj7qXWSy8/BrlyxUn7z5AI915n1IMEzKpctX42s5pFnn/0tGmk+4xYN4QZbvvxeA/165NEndXKeXTwO0nDwJJnqlLbWDh15s1UAPwaybNlyeeyJBYhXDGHhEiQfMlKVLEOfmvf8nO2woQPpiaYH7TADLlu2Sgdwnnj8SYQZmUT70PzaOM39sqt5p2ZIgmF0cX9IOAwT/uz7JWTShPFSVx00c55oPOjxvkiALVu2ya7dO2XipIkgnUWg6SZVInf70Z34eP1G2bOnVaZOmwp9c9wgwbVTiVSFrFqzwUymU2rRcKH7o4Y3yMjGesctHl2I8KOu2727VbZt3SHTjp2CTOHR+l8TFXYoaevQRdq5q0WOPW6amicT6EczITR5K2XlqvUSTSBzwS++04nMOmJYg4wfOxx2ORmBuMK6D9LZuqddPlq9Vk8RYCu+i/17GsKOFyXIrt17dKDj+OOORQbipATTiV9RQ5ukEplt7UZpDaOBhj4xqxUwovE+UBzWgQ7mdM6LJhNRueP222TapDHIqWaazNZdi176syx8caHce+8/oLgz0qtA8Uepe+zxZ2X5ihVy7z/cA01XOOB2HAT//b3/RyLRhEo72yutLbvkisvny4VzT3N8MPUmXX0fUvPQQw/Lvf94r9TWcDQK8kIJhyEz25NPPydvvvmW/NM/3atj4/zyNyWOVQj7wd//wX2ybtM2pAkIQzjbWnfJpy+/VC6ZdxbsmdawOSVAZMWKdXLfT/5bvnnPN2XMyAYlTgOBQNGtt99ZIY888gj8+h66ixodgO/SUqX8x30PyLsIb6hmIHR6j+BeLaKZCExA9k1POulEueBvZjkmWbTsicqLf3xRLp53gThzADl4c/F7kKx1csn8CxydLDrQ2yHBKRTF+hErgMfu87N18y++UJ/dCARr5RcP/kLOm3uuNNSzD51Jc8V7yz6UJUvelvPPP0+q8oTl3//zAafYN4nNiYfJkyfJRRfM0Wc3qqreUFLPOedsmTJxpKObBSoWefTRR+DXXKmr6Znsjz7+O4nFl4FgR6OX0OuNLB1mQwraRLHIPiJ/om+5t1KCxR4bKBngPQiUIoHiUjVc0LrY3bd0wfRJ6U/WLzptXdChUITFhrVbkBW2/iVobHvNDJPbftrp57LasMhxj0UxFIco88HE0fjljv6hopcJZtDopFkLzIQzUo36y7mn9DEhbOOpp+LkAxPHecYf3+e9qY57Rj9j3u3KutjM9ZqwZMNkrswALApthtQ/NTfKPU9sYd3AGzn2GR+6xcxm9dSOc8/1YawC0p0cEGFYsmb6DBu6grSX0asuMqAEx1dtP9dm4qwgmAjtDSYBcxNWB5MAxt+82j3hzTONrCJY95uxXqPDZFTl+M+3qDjro4C2O2jMKNp+cALP9+yEvX3XWretdzdoP+sebio4yGM0XAWDAUu+DMGuQBwi8hBMxw9SIdA2AdwSrAnqXNkIsA0ut7lVnMXhJ2HdevjRK1ulfjSOzLt03/ihOwZw7SHBnZQc84kc1UcYzRSfeY/VCS6QKmOugxq8OsokDxugJI/koiWOJjzNOJBhBjOMXY6H099k0kiw0Wc6uN2Di2hI2uccxVTRtKO9Q1VZdCMYhrnmBwQGj8Uap+2WL/9QA46fjOIzJxMYaQ7Q50TQUSF0X5LJbpkDgeJ144bN6BYlxesUnUx3Dh5s3LRZzU23xFz5zEIEXiFROZBPfb5nFJ+5ooN2Kthdw7P64/i1palFuzYmwxr/gugTr1q1Ws2tsmELBmtAOPxznqlvFZ+1W4cMwlks+65Vzbsjsr1pO9LEzDsfEuil+VHkkeBDASKCBOHKi2ee/a384Y9vSEe0SzoindLekZQUEiCeYD3Uheco7kU6wilV7R0pNU/gh9c9bdCPpKW1PS6RWJd8+NEm+dnPfyH8QLN+wJmJAx9ramrkpZdekceefB52k2q3zXErGmWDphIt9w6JJamfgF+0AymESSqNBhqSoK2dH30WCUfTGo51G7bLT/77QWneuUt8TmudqKmtlTde/4s88usF6g9nQiMIIzNRDPGSCq9+8RReqz7jRT/5jHwJ+GV3SzgT7xiuW7a1yE9/9ktZv2ED0i139K830K0fXKfkaF/xEOBBPcPVD0ePHy8zZ56km8BYLHKK7qOP1sjSpUvksss+Cb9CIJt+of8MPzma9NaS92UDInvppZfo9BtHwjjKtXHDVlny9juSpMihX8nikKCAsd89YvgwmX3qLPR3IUko4jlwsXbNBlny1psyF92ggXW1yDxcuchvJHlBnEfeegtdsjVrZf78+brlhcUv7Wxrakb3aamEwYD9BB5BaU6gq9Q4rEHOPPM0qQYhDIfXWyHrN26VV1/9k8ydex7CUo+SBkU1wkbzYKAScdoiixcv1nlyDrIw1hz82bajWd7485ua4XXo1Hh10GA10trKfjDXWyvBk7IE84uehziSRdBhDvMnIW06rMh6l5qEU28iHEYP/tI3SoHmK+hRn4nJjKL1H1JKpxfxEif+tY5VxwB1o1M6kzzkzINil0t5oG1ilWm9qx7ep9tcIaLvM9LwmHoMI+0x7uz70i8u1bEZiTBtB7gJvzgaxRN72KJgsZxC3Y6sownMBiZHqrQVjnjSDZLJ9gfHCEw4YA/GCTwzuSvhF/0/VNAPLt53jWRlCa4BwYc6VGmhjuNKadKAQ8M2wBgInYuFPs1MtGjGVi8TyYwzq655RROERLgT3N6RSCozrm1mq+g2/aFb/NqoBgHPFnyXRxwS9CvrKsmmC3QxP+gmuzzqqPlXsjxoD7Chxvls4wb9JMHs2zPzcTzcpAdN6atmcpLtitehQAnmSBZKUHX6cBFskJtIzNBOmgBuE9o0MLKWfXaDb+S6SFvWNUMydYz0ZqEmTGkXnN6KEqNXc1HYe3WPZJIQppYDljbqj3lU+1SaLdRB88Qru0WZLGzdcIz3lhaHgu4E58ZaQc96S1Gassp0N3jvEJFRPd/N95fvPV6zMDpmT3FWGWTdpq76oSznKv5lnwn3s1HKExQlEPKKBxM/1XFyjvqBe2PHuMrSRxWezAIB804+Pw5NZZGH4L7A3gOUS01PxWzPblCOQmIzzY1rjk2SrAp6ap4xMTaR+PpMMygmhFaZzrNVWUA6HY2MWznmxn/+6ke1nD99dvRzVd+gnwjeO5hmbKSwocMd+lRdqLd0tIl1peobRTs6Bcg6D+Y2vbPJaBM3F9QzBOKH1RFXmdBtuMP7Skoh6liWOKbRhUacKvPMOpivMvHcRbcbtugn8tvoG5jmpFV5k6PvYCbd4+iKhNEe7RSvB12rSjSWuDg+ncJ9Gl0ujmZxHTWJ4OLxFOxyT6+zkNyRTMYlEy0L58ESxMXpXJiPzg8U3Hf29+puP1w9KD69YNHrYRjYKEzCT/iL3MaEUylmCWKczVz7l1Inmk7kK+oaXI0s9oN7tZG1vzAJjv4H+oxeOX/uXBk/fqwmIQc1+LHm++//bzll1kw584wzdNqO4eewI1vdnDJ89NdPyOatTbq4nv1J1nUOBSADPvAFB5Xot3IPMk0vu3S+jB09WqWVI1scSnz4l48gHULy6U9/WpIxTspDuuEeFy4k4gl59PEndCsKl/5yst+07I1fBrxSz6q+AxtZnA/mJ3KZpj0J7oWBjgMFu0DcXeeFdHzhtpvl0kvmyqABA4wZAswu1Zy58+Waq6+WL33hJvQlE2qmFOLdZCop11z7OU3sjZu3om8JqdZ1xpQzUwtlk56x7pRIpE1uuO5qufmGK9UvkshlQZycv/nW26W+oUF++P3voURxTe8xnMiEV1x5E/z1SsueNmnr6NA000UGSNEsyUQ/EIwwcqDDElwYdTByF08pHzq0Xq6+6hJIVKPU1oakri4ktTUBqanmZL2ZiQmFvJnF8HW11VAhXRPV1tYqV175afnSFz8v8XgYhUHCFMVOApukxhMizZPfBw0cJNdd+xn4NVxq4daAATXqVk21H7bMlpLqKvrFxflWBfR4iWikQ+bNu1C+dvdd2jbgLgd2qU1xbUm1qn9REASzu5BCHVtXVytDGozk5iQOcyLrZ2d3fQaOsCSSnSi2IzJ4cJ185tMXy43XX6t7llifs1WsxRMv+iu6u7Gqukq/xEI4zmThDJhkQAsuS1y7NWhgnXzyknPky8hQvkpmmoi2IbRYLBByCc6jZP4McGWC9KlCokA67aFoWWWe8WOkMcfMpUyoJdzeIQMgjbfefK3cdOP1DskJk/CwR4UXNJZcOclx8LzuQZGofPr0iS3nWCwqVUGPXHv1JfKV27+gja9orEMlWu31l9KU4K/5KwgJzuZ6SA6gwbTkAlZ47LPCdWts0BFjc8TwIfI5kExJ5iYwLgTksKR1hwSxrrJdnByngFxfc6FmNHLeHTiwRj5z5cVy2603a2YKR8LWqCBQGAQbSnFjpERbwF3sh5pxW/4RZleCseNWnF/WVMc/n1OdXdI4rF5uuelq+ewN1+u+YR1vduwTHLe2evjJmFGReOsX3bbKPmvm4x/t44/LZK+5+jKt/4N+L4g2k/6FgFyCNcCa1H2v4Lc2iZgwmjgMmnnGL+5ZrLpWQ1DPufejs0qh0ek2xz6vwxsbQPAVMv/ii6S9o91kADoE8piJuDgk455LcV5XZ3t471J8ZjHPd+3sky3261H/X3/N5fKZq6+SjnC76Toxo9C7PlZuFIQEE7qUBQxEYmn048Jo6kPtiUg4HMc9TwmoQPEXgXQKyIpLe3sMKi6xOJfidhjzjggaUHjGu23tUWmFnSHDBsuxxx6LrhUaXOjHUjpZhDL9d+1uk3CUiw3oFlQ4oZPwlFKeK0m3uRiA5m1QDFsLwsISgrsUEvBr5842aWlpl90tHVJTWyfHHD0e73PqkDC//YmK2oaJiColhfPBdb0yH3ygMPkcLdugT2acdLzwnEsuMdW60oMiD8aLF78lgwYPkmlTJ5s5VegxQ3BbCA84ffvtd2T06BEyCt2eFIpINqLYaPOhyNy0ZZd8uGqt7jBg0cvlsiH4deKxkyUY4DorFKkglf1cnkD7wbIV6u6USRM0XEoTwsLJf541+ec3F8vYseNl3NiREkeXiYlHifeFQrKtaZee9eHxcRsK07Vv01Jnk1r3ZOaDC0KCSW8syi6NV8aNG4/EGytjxowGWSNB2igZOWK4BrahoR5m42TUSBA5ajhUoxI6GvboysCBA+Too46SMaNHo3gehvdgPnKMnoSnCU2PAA7k8MglvjdmzBh1T/3BddhQdJ3gV1UwiLCMhRsj1H+6NWJ4o4weNRLdoko92XYs3mVYqcaPHyeTJ06UoUManKXB5N3xsB+RR4JDfS7BTIiW3bvkxOOnygP3/xjdF44esQGEHAjJoCR+6lPXyhVXXoGW8VVIQJqjTsQvR55S6Adfdvk18uUvf0kunncu+sUJI5EAJ9kXvvQX+dbffVcGDKqHDro40bCeo/GL+3+kK0DMmmZTjrCo/+rd98iwxuHyD3/3NW2BW1BKWbfSr+tuuAF97ksyYWE4eWLtolcWy93f+LbUDqiHbsbVPkNWggtoJMvUi2Y1Bwc6hg1rgBoqjY1DZSjuGxqGcNm4HsRSXz8QZkOMOdTQIfUougfrQEhtTZUMHoz3hw7RszKphjQMkipUO5Qq2xLu4owREmLQ4CF4f7D609iId6iGN+goFg8lb2iAX0OHZsLCcNEeCa2urpaGevoFPYSHo3Ac5aqpYdFMfzRq/Y4cgk0O1ts+B9dTmRNuHBJcKpUyCZZIOLsCHH175dizuRrz7kollNnZFTlOSXIFZ177zkiWfcZP1oxrqOEUj4Uwz2YK0Zqz5FCf+rjuzYBRdHFYMK1oFmbacsoDTuJxIgDloKPjxMOxziRloh9s1aKEmFsFJZ2lSQZZb2GGH3is3SDe6i/8d7w2GUlvzLWfUTAEEz2SxJ3qTDDUcwS11SjzgmlD2ES1aZv7uqkGLAxB2efsnSGY9a0FrTp8ahDcW2u4uM79csaeufQ7GFxc3Mp124eKxZuuQcY1o/iHq89risKgs0UFPxnFZx5bxKhwA3nmXZc511/jwRmuNEnPOpn7dN32rfJxXyuY5D3fw41e+cwFBWy/+f3GL21Eucx5nBIf9V2j3bcqA6NRGaiqz3wgmq1AOxrUl6BkpVC/VlUH5cQTjpdtW7dLU1MT1E7Z0dwim7c0yYLf8miEYWgEDZdNG7dI07YdMG+G+W7Ztq1ZT60bOXK4DBhQJxs2bER/1Ji3tnXIkiXvyVtL3tHFDIwa+8EB9I+nTJkkO3fuwvvbZeu2Jqgduuh90Ut/Ar8+GT1ylGzZslm276BbO2T79l2yZesOee6FhegyjUCDrwFhgTnDsWOnDsq89/5y+dNrb6B1HtQWbV+DacndH6bdgefahgmIsiniOBKjE/4HWZcdLDhTxIF6v68CfcnxkoyH0U+FRMCsq6JSR6fWr9+ok/D1gwci8DwGkJmSUoPfLo+sW7ceXZsGGTSwRhtjpkjmGZde2dMWkc1bm/XEOkaN3TAuBRozdriWDroeSzO1qevXb9gsPn+Vjmd7upK6yF39oSDAvdVrPkaXC61v9Hk5JQljDYvH45ddLa2yZdtO8VTyEzpOGGncR8h0k+y66J4E930/mGTFYhEZNWKofPG2myUabkWIOLNUobsLYvGU3Hfff8ns2afJGWecJvysjRcR4aZrnqLT3hGWn/zX/TLn3LPllFNOVnMjPTwfMyiLl3wgv3n6tyghahFPbo7jtxqCunpkAK481p+tX77DkwPu+6+fyoCBDXLNNZdLLBxjjoBb3KLCsCTk//7bv8spp54m5809RyIc41YKzca5pUuXydPPPofMVIP3oE2CkdB9RbIhuDWXYK5aYqOj/wgW/S7D5MnHyBO/+qlKqOY4gBLFlZNzL7hUPnPVVcgAZskOMwWljgMdcUjs3PMulru/eqdc/qn5OntkGlQ82ccnz/7uJbnr69+WwQ3D9J1ItF1Gj2qUJx97QEJ+c/oO/eM7HKK88aZbZeTosfL9f/6OJHXXmBMWlCZcPnT2uRfKrbfeJjfdeJVO/ltwydCLi96QO+76W6muGazu6Rx2PxLMRUtZ4L6vAuIGE90UkZ0oDnmQqE8CAR6rBOWrRBHIWSSSwAEKbubi2VfmLEpuMuNBoiwm2bPhlVtU9V0os+Ha1ad1/OPMFDeh0b7PZ76Qxqspbs3qSjagrDtU9CsQ4Ae8PFKJe1Yjfr8f4fHrVY8/Rm5NIhOYhe3wi/msD+HEUH950ehY9G1t4YJKG+XNDYbFlCTceWgGDvKHL8nZCMTEnJNB52jPKuhzvTOQJZk+kQhj7rZrkNZWtgHfsf7TD7O81w5hZt5yAs9FedpSd+LU3eW+hhKskXaFxN72lSKYufTPIYFBYmIaQnhFArPhhWczguUaQcIfU1g7LTSHvj0PS993Et8QZexyjzK7XsaOIdDa1/zhSL1uaFP3jRkVpZQjYfaZ/WbcZJ61erDPmbf7RmXgPORIsOrm2Oob2MDZBKJimilp+oxbPQPSIdAxz2QAmiNRswQaN7gTwTyj/6sDEkbxzx7QYtyjW1m/UbPjHfdRC/THCQss89muH+OD+12eTE/QVyoT6j4Eg+TcEt0I7h8wYdj/3tPaJh0xNmoYSEOE3jvrm+2ZlDYCTimoDS02gHhUg6MDO9AjqcCWrdv0JV24B8VhyI72sPaRCeNTlgaeqmdHq3REC/5bmhBUlX6bdLyjsm9vR18a+Uz9seHrTzgE22ASuDIWfah44UHbXEj+2ONPS4IJqPpGcVkqE5xfNuFzZnWkY+73cgkOiPPa8y+cqADvLVslf1z0kh7UYqLJsy790orM9NBDv5JIHGw471j/OMhBZd3Cb8aMxy9C9tGoMsf8Q65V8X75Rxtlwe+eRx86aAh33qHifZ8ojSRh7itq69kPNmbVNbX9tHWFYEIkpWFQrR7FMH7cGEcy0YVDsfj/7rtfZs48WU4//RTpdGaPmIjah04m5X/+50H5BPrIJxw7BQ0d9I/xLtdhvfHmElm+/CNINw84MZ0GvsPZoAByzpw5Z8kx4+mXk9fh368ee0Lqaur0o1WmgcbyA76xRID68b//RGbNOkXOOH2WbmWhe63t7fLnN5fqtxtYTLvHsvsS2k1qa9XTFViCFBDBJv1SnVzZUaGftNFiTuVD0HeNCb+JqEdCmBBDmWKQ9WEsxpEwmHudYwJhwC0tkWgUkfZrZtEMTiMo3uooFKQ/BOmmnyqLCESMp9KDIHsMP+2btwCY8zsRrFJ4aIquv8K7JDoa4zES8Evd6h/kIfgYhAUBwm9/E2yQBmGQZqdrY4msRB+Vksy9QkzAHOBZz+5gw0ffc8yhz4V2PFphb+COCnjoPNE31N7MJPDWrPQg3P5xNaZPw5g1BxgGtBGMX/1Fb1EQXMahwIxk7dERNhLcPxVFHphWZ+mp/kbBEFzG4UFBEWy7FL2tjmTk1MFVNTUSKtfBRQ1TB6ORVWh1cBmHBz0IPsJLtKJHd/4qarSIBlhEV5e7ScUOFtHt7AcnYqx5y0V0qaNMcIkDBHevdMuVcHGD/GU5LEtwiSNDcK7c2lxQVsWnDOydmSDN6GctlFECAJ3lIrrEUSa4xJEluFw6lxYcPntKcHmssrjRjb9yEV3i6EGw4Z+/ZVWMSn9dUlyW4BJHmeASh0OwI+JWtJ3HsipClYHRAMFZXXtn7ZZVESoIad46mEs8M98ZLKO44SI5QzA17KbnQljPW8bBgWdncjurrrgDchpZXKqjn1Yto+igQglio9GYbr6z23tyimhKcSQW1aKaa3uMHS3Zy6qAFXkioTyMhgfUGGoNKmoGH0VbvMU/+K6o1CN2g/6A+Pzmm/LZetley+hfGB5IKslkkZxKpiQcDruk1yE/SzAfPcLv7NKY2yd5LB83ZnPHOmEkOot8dbXNDPsyI7qbu82IfO8XIhju7mEnbPjzmRH7Y97TjO8YieW2VuUw3amn7bL9pI1kmqs9ohvBdIDGBDVJMotq+0yH3ZV2903OOlBmAwXLWY8MNFAWTgQz6BYZum2t0Ejd3k90T5jezCwaq4xzJCGdN2TWyt5CvT/m+zRDHM1BMyZNTZTtG1nXexDshts673NNeyJ/jjM40DT+K/zvE7Trzsm9yG/BQTeo7yOC3Qg+NOyLBAZi36TlvmyLKHdR1TMDGXvuK0Fr5l1H4whGbhl7iGCC7k2RQCa6WxlSjaIVtyLMe+aq+rjpoahPS3TPUVrROO8e6YAEj2cKFxwMdVmwyP1rsO/sj90jBb0qwb0JkuT+2x8ciN0jBRU1gwpTgsvoDYj8f5EflZxa5+liAAAAAElFTkSuQmCC;" vertex="1" parent="1">
          <mxGeometry x="150" y="120" width="120" height="216" as="geometry" />
        </mxCell>
        <mxCell id="u6fXfUsRiq09m7yTQ-iY-14" value="" style="edgeStyle=orthogonalEdgeStyle;rounded=0;orthogonalLoop=1;jettySize=auto;html=1;" edge="1" parent="1" source="u6fXfUsRiq09m7yTQ-iY-6" target="u6fXfUsRiq09m7yTQ-iY-13">
          <mxGeometry relative="1" as="geometry" />
        </mxCell>
        <mxCell id="u6fXfUsRiq09m7yTQ-iY-6" value="" style="shape=image;verticalLabelPosition=bottom;labelBackgroundColor=default;verticalAlign=top;aspect=fixed;imageAspect=0;image=data:image/png,iVBORw0KGgoAAAANSUhEUgAAAHMAAADXCAYAAAApzm4eAAAAAXNSR0IArs4c6QAAAARnQU1BAACxjwv8YQUAAAAJcEhZcwAADsMAAA7DAcdvqGQAAE9ySURBVHhe7b0HeF7VlTa61LslS7Jsy5Lce2+4YNPBBowBUxwCYRKSgRBCCGlDkjtzM3Nv5uZ/ZoaZ58//z//8M5PJTSeQmyGQQCAUg01xxbh3W5ZkFcvq/VO577vW2frOp2IjfbJlOXrtrXPO7nutvdZee5999hcxYtSMDhkqiIiQqMhIiYyM4q20d7RLa2urtLW1SQdaER0VJW3tbRKBf1HRUSLwa29vl5iYGI3T2hqQ6OhoeHcgH8SCY3h7e4fFi2a8dgkEWiU6JlrzGUoYEsyMAOdamptlXG6uLJg/XxobGyUuPlY+/PADiY2NlaVLr5J3Nm2S6spyyRqbI8uXLZO33n5LEhOTZMnixdKMtIFAQPbs3Su1VRWyYtUqSUpKVMaWlJTIzu075OrVqyQlJUXaWtvlyNFjkn8qX+LjE9BJhk5fj/SulzUoQY2NDTJn9ixZt+42SU9NlIz0kRJobpLJEyfIP/7D92X27BnSXFcm1123Wr73t38DaYySvLxx8vDDD0pqSqzcfMuNsmbNzdJQXSkbNtwpM6ZNlTFZWTJiBBgYaJaHHnxAZs6cLlOnTJIvPPI5yczI0A40lGRzSDCT6pJ6NCExXmprqmXXjvflvc3vyNnSEpWwjvZGmTt7piQmJ0Mql6o6jYjogGTGI2mb7N71gdTV1Uh2drapariDBw7Ie1vehVRul5jYGImDKv7Ta6/J//zhs5KXmyNr194ijXX1qhXIUL+7XDEkmOlUXXNzi4wePVqWLLtG5s6dp4SOAyPef28XmJokq65dC6bVyccf74ZkxkpTU7NkjsqUWfOvkrFjx8jx48fQ4giozzhZuHC+LIM6HpmWKi0tLdLcAimkOm84J0ePHpHcnBwU3D5kGEkMDclUREhsTJxUVFTJnj375MSJkzrmJSUlS1nZWbhy+cpXviwfvL9VmhqbJQrGUFxcvLQ0BTC2bpNjx47LYoyfAuMpKioaDDsmO3buVIZHwKji+Jieni7TZ8xDhxkjBw4ckih0iOExc6ABkSBzqqqqwItomTJ1usyZM08yMkdLxbkqKS0tl7179ktycqLs3bdfSkrLYJ2KNDQ0SnVNLYymhWB6ijJUOiKkDPFzcvIg3fNl1qzZEMAIOVdeIcuuWiG33HavnDp1WjZv3gy1nuBVYGggKi4p83ve/WWLyAhMR8DMmpoaqa2ullZwqgkqt/xsuZSWlEph0RllwL69B+V0YaEUFhZJeXm5VFfXSmlxCSzeODlx/IS8+dbbKmkV5ypg9LRibG1DB6lBZyhTyW5papIzyOvVP74mtRgvaSlzrB4qGDJTEzpOL1oaGiim8IyUhLg4zDU71J+Eb0JYYkqyNNTXSixULNFSX2fx0cpo+HG8rEOHkPZW5IH5KgyfpIREHWsxL2FhGo8qmol6UrOXK8GGzKIBmUl124EJfuezZ5LwlpP+CDC4A0aLH44ZFj8UDHP+7p6uq/9QwZAxgEjUUEYSlJx2H/G7E94xqCf4/d29Y56WN4QYSQwhazYIR+iuhHfPf64YkswcRs8YZuYVhGFmXkEYZuYVhGFmXkEYUsx00wznhhGKCy4a9EQ0TgHMv/8E7Tq574qemeWqGhrWfUripix66QZMYry7viNyUDqRlcn2WPH+OgTb4mMmIwQDLGGkOr+/H+FIx/nmhcF8u6/muE50vqJtIcHiDzTCaXN44MqUd+vB6kJPC/CYaRVkr+OCNiM5RnK/Tc9SFH6jgszpDiuzd2Zw94GD1tW716aRmd5q0dCHtgiOLbSlxrb2dt3TxCVMI4O1FcyciTswMTJSF5e5EK0BKpHGVBe5K/rb84PSZZXrCRdSw3701CH6WbXLEGxIaGPa8NwaCEhdfZ12WjN8IBhkZnR0jCQkJoGZccpUJXD3PLqhv2MP2Mg/52VmP7M29CLtQxNBQnTeec1raGyQhvpGidBhpV0i0sbM6eDemYSERMSOUBF2pIgA18Oh6fngV5M9Igw1eaGUQ47VqDDb5G+X00bcqdjA14IdbRKRlbeoIyllBOKbRNI5iWF0HXsuQut7Uo1+9J+VQG/S7uFCZV+O6KlFyidcq6urdYdhJFWsY6SL4EAfCKtdL7XzOla/XE/5DXHXE9hWbqeJjYnRezAzGt5kYGhvJVMvprsQekozUO6KAjjNHfuEx8zeeD+MyxnsmJRI7i7kPaaWzqIcZuhQhfEPkqmc7WToMIYylJnEFTeW/BnB8a6TmcMYuuhot9WySPBVb4YxVMGpGAXSLesBlNCe3DAuXyh/IIvUsryP5FfDw0wbyjCpJHTMHGbmlQFVs8OW7JWBzjHz8gc7nHPD6AmXCTM/CaM4FJx/90Hf4Cuvc5ixKxVVaE3OV6/LBxG501bpy+lBGzdBufa2Ngm0BEBLYxb/cc2Yn+k1NzXrETFGaDpjQnRUjH7qTp92/Xt+kjOM22KYV0sL8uTczGtyVFSkfsPJT+FZF9sygxQRPFIGl8goDe9McBkhMipCmpubpKaqSiLGT1/dwa+RB4OZRvwOJW7aiFRJTklSYpLoba0BqaiskPSRacrU1rYA4qOOIHRUFM8rCEhlVY1mQmKrIaf59QyWRRcINEpKUoKeMtLa1oqyopSx/OiWn8Fr3Eg7b4jXNjCzvqFJauvqlLH0t5Ks9oMNx8zqykqJmDDjGi67e0GXFhFgQGugWVatWi7XX7NcMjIzpL0VzISknDh+Wv752X+S737n25I9LktPEKGk8N1rdEyc7N1/XH70nz8BY9kR2agoaePLV0VPjO2Q5sYGWTBvptxx2w2SNZp5toI5UVJ+rkb+6Z/+Wb7xzW9KxshkjR3JnRCUTpR44Ei+/Pt//CcUB0pH3Xh4VLtX1vk60KXAZcFMkqKhvk4mT8yR//U//lHmzZlsAR7ef3+3rF+/Xt7bslmmzxjv+Qbxxts75amnviYrV66STW9vgqoFoTFccN7M3P0v1YkApH9kWrL88Nn/Cx1nWac/63Eyv0xuvPFmef1Pf5IpE7MswIdNH+yXRz73l7JyxdWyfds2SDQ6XGS0MtSVM1jwM3PwDCAQob6hXq65dlU3RhLNTfVQge2oaIPnY3CEa0J4FBry9FOPybrb10hHWwskrRkNovQG2ah3KKuhsV4WL16kjOQIzHHWyW8LymiHGm9uCi3LoamhDkqhTb765ONy/333oIx2dI5GLcsheDd4GDRm2mJFu2Rnj7Vn/RuE7n1lHG8R2cA0dtfe3qqbmaZMyZOvf/1LsnbtzdIChgUCTZAakzgiwrvjPtP09JF6zyxg2mgZ7lmvIWUFwXjsVLk5o9F5HpW71t+OMb1FGRoNdcwSXHmDicGTTKCD1qK06X1XYlC+WL0Ob2zqCt0AjNo3NbdLzrhM+cbXn5DbwFASOMDNTTRgEE8duMUnMpSI0r8ulBcYUBhqOjp6IQd6EKWdG6fSR8bL008/Lvfecxfya4VUN5nl6/IaRAweM9F2Sl4bDB6iu2SSOKY0gwjeU1rITJvOiEycmC3f+fbX5I51t6q6bAu0KBOZgo5ltdM05T39tEDLz07J7H1/kOXBBFbLMaPT5Vvf+opsAEM5XukZez0nvSRwdR80ZrJwU7VGICMV/3mgUcZpgGecOVK6cEd4npGnwIUMfeavnpbbbwNDQWQeV9oZn3+8sow5QeZRitXXHrsVZvEY3+rSBv/RWSPlW998Uu6/H2MovDmlGizwnCS96t/BgEes2DjvcwjfX4Ln+PANXVy8nefj4PZO60IHGhEb6ylN+DPLCePHyLef+apMmDBex1QHLhbE6OY1A+eyrrTExETNgEeuKRgQrIqdCQTpTUpJ0WfMTrSscWPS5BkwdO68uVJXV+tPcknhOmVUWub47yklLjFYZDPGt1kzpkpG+ggpKiqS4qISKT5TIiWl5XLo8An50xtvy/LlV6nxUVBQKGfOFCPeGSktPSu7PtonH27dKcuXLZHi4hKEF2lYYVExLN0m+XjvETmVX9B5uBPV7vi8bBk3drSeMcu4Z7Sss5J/+oz8/vev6Lm1DXU1yK8Y9SjWY9uKS87K/gNH5d3Nm2XpkiUYNyuQHuHIo7ikTGpqa2XfwWNy6OBh6xSXGFzYoOHGI1wHb54JZrYEGiUPxsvkCdlQU62mqmCEREbHSkVlrRw8dFRmz5gimekpukqk9YSqjMCkvbi0Uk6eKpRFC+dLLASuDVMLigbHWi4qHD9RKGXlVZqXylF7QEZljpCpk8YjWkCtYSaIiIyR6pp6OQhmzJgxXTJGjkBmLZBkziVpGMVIaVmFHD12XGZMnw4DKAnpAsgR/2g4SZwcPV4o5WcroCUSVAPw1LBLBc4z21pbpeJc+eAys6GxVlYuXyBzpo+3VRVODdTwiZDCkkp57bU3Zf26NTI6M4Vkt14IOvF7mPyCctny/la5/967JS6GSwY24pKMHNtee+N9OZl/RuISSHyQH9I9a+ZkuXblInQaYzyZTJuoqqZZXnrpZbn11jUyJjMV/m7agkhgWEHRWXnjzbdlw4YNkpoMBnbwWDaqbuYQLZu27JajR05IUtIIrcGlZmYrmFk52MwsKSmSf/hvfytPfOEB9XMkIJ1f37QNxsUD8taf/iiL5k/tDDRmifzuD+/IM9/+a9m+9V1J7uHwyU//xZPyh1ffkvTMLCVw5bmz8vnPPSTP/uDbXowgTnAF6KaboWpfltnT8zzfIF5/6wP5whcelS1b3pO8bEhuFzz6lb+Wn/7kVzJ27DiQ0r+UcPHBZccA5rxVFRWDZwDZlCPSW36jLBAmWQQrqY7RCF7hyEh91HmHSWQnfLcaHZFVWhHP1nV7RlsgoAZRSAYhoD+kFdYxwSq3+aTPFji8RY5LKJWElWn3g8dM1IDEjoqy7ySomkCOoIoCxUjgrsRxTxwjqe74awcKBPhjclpCMD3zZBgXyXsCJ/9kBtUV0aVI7XB0Td5yH8N1SPDAdphFyfx76zIXD86aHTRmElYJr/EYKyM8R5CRtobTM0hMOq8dmk3nPUDiM3/ruebcfIzw86uTOZ2edkN/gmMw07sOQm0R5ctLpzn6zAr4KnGJMajMJAHdEhsJROJ3qlVUjcTk+0Y/XDDD9NvRYIIQuN6qecJC1idfVH+qSM4/0Yls8SCY1oHdivWhdWvPoXF06RD1UL8uaS8lBpeZUG32FZrxxIikj7oowOq5VZeusCW4KImK7jnc0jNPdhDEId89ZnUFVX0bJdnTCg6uLnxnynrE6DQHYF19UaO95UCuNWtBlxxW5qBZsxzHamurZeO96+W6qxfAg9s1QHrt4ZFy/GSJ/Pf//q/y1FNfkgl5Wagv1CQtRYokqLl731H5xa+el7/93nckJZ6MoyqFpCM8GkT/jx+/ILt2H5D4xCSoRJH6umpZvWq5fPr+dTYnRXwymUtzZWdr5Qc/+IF842tPS17eKAm0tKAEkoUSFyUHDuXLj370Y3nmmW9JVkZycGqD+vKd5nMvvCKb398mySkjlaw+Pl90sFMFWgNSXVkxuMzka6TxOVmSk52hn3GTgKREDCb9lVUNsv/gEcwNp8rIEYm6jcSOsUF1ISnnKmrlyLETMm/uLMz9ODcBI9Eh2sCdyOg4OXwkXyqrG7Vj8L1nO8pKQz4zZ0zRrSP8+SjND9Lf0Ngse/ftk4UL5klSQqw0NdaB11zIh+THJuiiwalT+TJ3zhwNbw00oZ4YYxHe2h4px46florqBjzGDQozuf2lquLcYDKzXWprKuWzD39Krl+1WJllhgpVb4wcOJwv//wvP5T/82++I7nZmRpuZAITYJXu2HVAXvjNb+XvvveMxHEJCGS09LRkRf73f/xK9u4/KvEJico4LtPdcO3Vcs+GtSwdjPLyAkNKy6tVMv/qr74lY7PStJNpRqBUFKR874Fj8u//+z9Ql7+R9JGJGOtp9cL4guRSMn/y89+qZKaMyNA8WZdLhcuCmSC7lJYUybP/+H15/JH7Pd8gNn/wsdy14V559603ZPbM7ttGXn5lkzzz7e/K7h3vQZI9Tx8+87mn5Q9/fEtSR2boeHyuvFSeeOzz8v2/+5oXI4gjJ4rl5ptvkT/84WWZM2OC5xvEps275MEHH5IP3tsiebm26cuPr37z7+TffvRTyRqdo5pgsJh56bkIcGxUCxAN118t8MGRgb8CxDgtAUhJDwjAn2uSzS1mDXcF54720pLdBn8haY1NwbcofoIHmqmOOdVxeYUyownpOjra9NoT7Oequs+JLzUGhZk67qHxRgDPzy6d442OnwDVbk+wFReba5qHXRwsnRHYlYc/FqiRGW6JIiMRjvvOd6MaZis6hCku5uMxm94uKsDx37XHucHAoDBTocQ4X8NBICWaj2ohoMSZ1NlTKJivLdEZGB7t6WOLy792Z1MWYzph12A4t2Oq+vRXtZPxod6Ey+dSY1CYSUKzNxMt3MkOdG0+JY7v6Xo90JDEVSYYuvYJ/qCpqXIL0DK9BQp0IfxlWi+Me2/xTGPIEAwjyEi6znkm0aVaoR1hcDAozGSD6bhgcPz4Cc/X6ONIEY3phb2bDN1p4MK5b5WT/Rhvp4E/cXFJpRQUntHPFxzi4+Ll8OGjUlFV7/kEGUaLlVYpd8oTZsQ4R2bbAka89zrNYGmrapokv6BIzx0cbAwKMwmOUXwzv33HLvnNf70iRUVnpaa2Uaqq66W+EYZNAFIEhvHFcV09P1Wo07llFZhR39gGvyYwO1Jq6xrgWjCnbJDq2ibMPQvkxz95XoqLS73vQ4zo8QkJmEsekJ/87DdyIv+M1NQ1YS5bp2kqKmt0OlNVXSd1Da06x61CfnS1eK6rawSzI7VutfUIZxjqeiK/WH7+3H/JwUNHJDkltVMLDBYGbWpi4MJBs2SNypBrVq2UMaNH6epMDJjArRwvvviyrL9jnUyckKsbtHQiD5Wo89CDh+XdzVvkLx7+DCbycWrdch331OnTsnnL+2Bwk/5komlprvZA9cJCTkmJl+uuuVpyc8ehM3C+GS1nSktR1kty9113y7jssbBu3W47jLso69ixk/L666/Jxvs3yqjMDAlwszUiFJ0pRllbIJ31uuqkO9wvsZplPQd9nkmYkdKhX3p1YCIeG2OTfy4oRFCNgpBciCddlbb0Rxr6MUwVC9LzdTCJyLAmjMG6cgPiqub1iMswukBLExjfpOfN8esvLuchAPfc6YB8WB7jwluXD5kYTKKfDQ8QYQQynD8ox47FDV+tyIh2wGAyc9DULMGGszfHxidIdGyCLo21C5fYoqH2SDwqYxAc9ONHQa0dXD6DIRMRjSsaooZLlFAjB+DP9Nz/Q+l1BpYDH8ms6Nh4lJcsbcijpY1p0DmgQqlGmae7t2eWb0t+Wg/UgfXiVl/Gi0GdmR8X6ZWqg4xBVrMeSAhQm73fwUmag2MNfYLSZtaqzTk9gnaGWdoQSaEf/ndltB+ccfinNIQ/L5fURelaZw0+T/4DDRZ/GUgmicCeT2ag/biygztn/qa2NNxznWEa3+0iCM2n8x7OlUMoYyFdneX6XDBedxcSj9SD8/t1hvHaWealx0VgpmuIr4H4a87dBxtrMQgXyyH03nJzcXxhHteC+RjI4tDYHAcRg3Hh4S/X5R2pnLDYIehSht+5MHUe7C5Y20uFgWUmez0axcl5e2tA2mFh8qrEoz/XU2FRqj+s1va2Fohaq35JBYXp/XPE7RlGRBgsuOEIK9z2SNcegKOxBAuVJES+EXy7of6egzrS0Y9GE+pjDvlo/VzeBB58jmn0HHS+2Wlt0c8H+UrNyqJ/s5c/w5txC8dw5u/L9WJjQMfMNliS0dFRkpgQD8MTDOVGYkwXArAYqJ342klVHaCLN2wjDRo1LKgyNQikM6nqGWQ8AAaSmPHxsWp10p8GUzOnKLBmo8FtdgqXDxnGZVz+XnUAFhXJ3BWsjsb3jYOM1YFOwPbEwdpm+/gCnXFoOTNmfKx7bcN9QsybwVHS0tLmGUfKcosywGBVB3xqwi+TM9JS9aOdHH62HiCxOyQ2Lkp++vPnMb9LljvX3ypNTfCnZIAgJExDQ7M89+vf6CcH3F0eB8tWpwioZE/NZ57s9dHIY91ta2TqtMlojH3JHBUTKc899xu1Zu+/707MFyH9ahx5Wztgmb7w2xf1pTbnsnEx6HSOcYhk9yS+5wd0QNqi0ROuW71K5s6ZqeXT6ElIipVfv/CylJ8tk8ce/bz+NIV+Zca06EiJ8THy2xdfl127dktMXBzK47czTD2wYHEDykzO+/j18Zce+4I89pcPychUmP6w81lQbGyk3HnPQzJ+fJ78y7N/jzklmUnJxDQiOlIam1pk3R33SUJispwtOyclJWWSmDwCAsvpgUlWkLS8b5e66gq564618sy3nsLkP0daQEhmGhsbLZ968PO4jZJf/fzf0MH4GYLJBBfLyfCND3xWzp6rwhyxXQoLz0hyCnehUzuwLJbE2EGSNzXUytpbrpdvPv24TJ0ySTspoyUkRMsXn3hGDuzfJ2/+6fdKA137RSellZ0QHyVfevI78tHuPWBkrBw9fkoSk9AuNcAGDn5mhi+SaBkXy1NSkmTjxntkdGYyJuRsbCRUIBevyTh+gQVJxH1SYjTUcLTEx/GgB5Fk9HB+GLR+3a3yja99UZLw3NhQg4pRApRuCiM0rpy0S5s88MD9MmlSDvJlnvxF92iJQX4si2Mi7xMTYpB/nKQgTytTpL6+Wq5euUy+8fSjkpk+Qupqq1AOc2f+oY4dgZK9YcPdMmvmJH0JnoD6k5EEO2M02kX/eDAvEeUkxCEc90RLS70sX74IZT0umRlpUleDsnwdZeBgeQ4AM00yuc6aNXqU5wOQ5h74HtC2Wvj7vIHPLTAYkpLi5YFP3SVPf/XLIEaMNNTXgPndq0dm8oD5MWPcQRLIwQ22gHUCX+GoiHvpzFg8C4HaYuN96+SbX3sSWiRJGlEWO4B1F2Mkn2z3YJSMy8nWEEOwLIyQUM2WN0F7gHaCi9Pa0qT5rl93s/zVt56UsahzDRhKuNIGAmqHILsBYaZWDZXu4JhB4BJsMgujf4iPd2WYpW3kJirgc5/9tDzxxGMwKqL0YIgohBH+plMhWp6Afnrg3SswHvsi60c+3qf25DnTuUMvHnjgbvnm15+SEcnxylCWZUn5F85TicEdCIS/HSzXXzbXenm1ODy7qBFtID698W757jNPSbYytDqkPQMBjuNhMxN90YgJIrk38T5W6V+qS0d8awT9LYy76bQiHgfiITVfeORBeerJJ2CgREpDXW1IJRlXX1ExUyJYmIKE93+GYNJiZWsHRrJoL5xbdh968F75GrRBakqifj7vVwaMr+uzruMoggXS379a5FakXJzWVr5T1Vv1uu+e2+Wvv/NVSOgoqaqq8AIGAtAkqKyv6uHDxh0/3DMJ4g/jvT2bhoSx41OVCRjc/vILD8mTX34C6jdR99g4AlF2SDQnQ2a8BfOmf+hyHRtq4aQzjaNOIBoZ+vBnNsrXv/6kjmt6FoJKG/Og1W0vpoMIlsW8Qg0a3tO5+KFp2cT7Ntwmf/3tr0h29mhoiGZlQrjQDoRsBpCZ/GTdCKWd09fGSEw5aEkGEQzkggE/sI3p8hI6ISEKDH1Q7t94r34V7BrNC6cQNPUNSO8jGF97+ftoREQ0pMfKZlGcg/KNjMKrRmxsBBh6H8bsjbDKG3VOyVHThgDf5/EKX925Txbz5FCwbPNjuSzf7vWi2AgJ/drTX0FYh25gHigMADOpIqOpZeXkyXzJP10sJ06ellNwJ06cloLCUp0G1NTUy+nCEjlxqkBOwp04kS+ncOW7wubmFqmtq8dUoUSOnTglp/Lz5TjSV0IVTZgwAVJrr75Ulajai5D8/AK4IjkOk/+EpinU/HmmXkNDkxSdKdONy6xHAep08mQhnosg5R1SW1On4adPF8AVan1KSs7K9OnTUE6QXVT91BhniooR/6yWybJOoJ1nisulrq4B+bXL6YIzyP+0Vxe0/RTqUlACw64N7a7TL7wZxvocR9pThcUoawo6f4xNZwYIYc8zqda4QTkJFbtu9QqdBrRzeYs9G2FcCNj07haY9PGy7KolaDxfIvOdJA8hjETP7JA33npHZs6YJlMmTVApJBGjMOdISEiWw0fzZfuufTbpVmaCwG3NsnrlUslITUDZVIsmkRHRsbLpnS2q+m654RppbrRDI1QSoRJZnzffelvSMzJk6ZKFmDM2ah3IsMioeCk/Vy1b3t8GLqINiMsWREoryrpKRo9KlQ7E55yOYQmJI+S997ZJZeVZuXXNTTpWc9GAmoOfNHCryfvvf6gbsJcu5dfaaDfXINH2doRzN8OW93eCDpwD+7VW38DON2DzTDZZDYzIDskeN0bf4I8dO1pGj86UHDzzzX0cCD0Ck/NcmPhjRo+RMVmj9Tp6zBikydEJPffojMvORppxOu2gGT82e5SkpCZrZTu/t6SU4l/WqCxMGXIQZyzKQ16js5DnaBhQcZh3JsoY+GVlwY0ZK5mjMnGfpY77jpKTkjTNKOSRmZkhozIzdQzjSZdcjnOLFVoWiDUyfSTqxPxQ7zFoG/LjNRHjOeONGjVKsseiHhqH5YyRvLxs3YOUgnbz5JPssdkylm1GPbMRLy0tTTsnmT9QGIAVoA6ph/k9dnSGvPbKi5KZliAtTY2qGkk4bsy6796HJW9injz77P8NyeM3JUiFDsDt/S2QzNWrb5InHn9cHsUYSaOAjOP6Z0JigvzsuZfkK08/g8ZnqhSxvBbMFV9+8XmZO2uCLiOaOECao2Pks488jvto+dlP/pc0eUfHqERr2ghZd+e9kJSl8vff/xtYrxwfzVLlj8F+uH2/3Hv/QxKbkKJLgsybCyC/+NmPZOmCGXoaFy125scVq6987f+Qj3fvlNdffVHbpKtNCOM4yQWETz/0Re0s//Ls91GXJsRgJ+nQpcSDx4vk7ns+rcNCQnz/TykZMMm0imPMBKHsAF4wjysvSQkS29Ei8ZFtwt0dVEE8gIIzgqTEOEmES0IcvU+IAyHa9XsR0A9p49CbEzWcWik+DuoTZbkpAC9t7a0SFxcDQkcirwSVEMaPj0MeHFNBVK4ApSQnqBuB/JIxl0xOZln8mUIYXAhPRhquXNFpvSHRbhHdyrJxOiEhXleaEjFU0LrmOjPj04BhXq5NySyPdU+ORX1JH64Zd2hcK5/1SdQ5dFJCgr6pGUiExUwDDSAu22F04f4NApPlTa++LId3brVHELfV+8ScZFJn9MI9JAq14L4cP0hEgtG6rwR16KnNCkRweREsiytSDszGy0qhc8ZeqMgpkE5FvGeC8W1qZOXoNMCDs3r98D9xhaidr8b0PhT8tEKFIaS08DAAzGSDWVX/JmL7+dzmBlNz1GQkMqGNQv0dgbUpuoITatU5otHgMSIG/fzo6mOKLEg6lzYI5tc9HwPSkcC4+Ince3STXAfe0rnouirGzgO4aC62Sb2FDRTCYqZViBWGo0XYOX+LkWvWrJOpi5bqY1RMDMZO6FuA9VfntUqNDT6cZ9xmOMtyTFCVGzJZD0LH4vPpL5QTuoBh+RPM142hzo9l+jupHzpn9dXbq14I/DXRLD0PTecPHACELZmUArUA4RLivNbgMnLsOElIt4V3nrHuvvPQtiPcNZwfwtJgiIv37xbXKIqE+HizlgFlKK7QARi7QuM76JsMDra9gLv3aID44TpJUlKytsMASsObRE9OTvH8QsGPgrkg4oefody+2fk5PvPiVZ9oOyRrua7TDAQG5Ow8vhHh2/aZUyfqTvJTpzB5Pn4SE3ZMrjE5f+31t9HoSLXsTp06jck3HSbsBUWSj0n7H155AyY7TH0YBSdOnrTw06eluLREPtq9Xz7cugvMpsVHZlILtMrcOTP0M/r8/FNSUMC8CqWwuFjnkS1NTZga5GICjzqgPC5OqDtdhDntu3qe3si0VEz0T2k5BahDASb+Bw4dR/p3bXWJNAGhuUI1a+Y0qSgvQ3yrWyHqXXimVN5590MpL+diwxRdfGC7809x4QR1LylDXpu0T3BaQv8CLlLwDMDis3L0eL68+sc/oXPTeAxvnsnOTst9ABYNMM8EcRNgjS6YMxNWGs3XgC4ksFfHJ6bIzo/26Gsrnj3Htxi08miRUt1xX+qOHbt1njdpYq4upyEDuDYwMF5OF52Vw8eKIFGY04EwURhf21qbZN7saZKRDolBPloLtCoCU6Hdu3brC+TFizBRh4HCnm/CBomFRG7bvktGpKbK9GmTYKfxFZWFcXGj7GyVHDp6EtOSOBDI2hbR3iLz5kyXjDT+soNt1maniolLlj37jkhNTaUsu2oRcoCG4r4mTl3wj1OXj/fsV+mcN2e27n1CBqgnVHN0rFTVNMr2j/aiXFjrYdCfzHRTkwFhJudjfNH7xGOPgKkc3yyEchQZFSP//uNfgMlJcv99d8DHwshMrry0tUfKP/zj/5Drrl0lK5bPB/G5KIBceUWv3bXnsLzw21ckPoHfctDSbJXWlnp54otfwOQd80HLECkAFPyj//ypMvOxRx9RbWDMtLpwHvpPz/5PmTh5stx5x81gjO1NMk0XISdOnZWf/Ow5PROBKdRAAQMff+xzkjOWR4LbbgIOK/xo6fnfvipFhfny1JOPIjbBepMiXFGKll8+91uo2Sj51L13aSGaHwrkClXZuUb513/7TzCCQ4Pv67I+YkCZSRFvaKiTSePHyeuv/E5Skz3q+rB+w8O6svOvP/x/PJ8guAtj0eLV8uUvf0ke+0s7Q8+PF178ozz6+NOSmjYKzIE6gmQ3N1bLpjdfk6mTxnixgrgHk36y/IXnf+b5hOLa62+VFStWyQ/+/rueTxA7d5+UO+++HxKM+SZoQkmLigjIq6/8l8yY4n9BbfjyU9+VAwf2ylt/esnzCcXDjzwuqSNGyA//5b95PkEcz6+Um29dr9tm4i+HRQMH7Y1gqn567qC93aD7YyAFnWCYF67rolCdHd58zMGkxa7OQAmCu/mcoRIK1oMS6cD0VJkOtHT59t+PzrJUvbswK5NFu10SFhZMq+uxXerhj2FtticKJbPXK29RaPduHx4GgJlmkbFRbv3U114FTf5u/PBA9cdtHmCP54PkSO/PAspa/xL0Jxk6z8zrAq2Loxhg8Q06DpKIXZjpqmZMszDOXjQtKh7SSTtzA9gJu8yPTc0adK+tVxe2iQF6Bbp2goFA2MzU6QIcCdgbw9iKGP3CS9tj1HNxlWhsmCOBF+yF68tkPJj0Mw5HVBI4GN8PSiWNDgdHPILMJBEtHx9cXViHznuA7WIn9TqOKz8IMtLfCY15joFaU39ZSOrapT9PpQ/+/MLDgDCToPS5o9OIEHKhcW6rBsEwfzgb7Z41DFk61cg5ocV3MchY/HUTeeftgT8j5eZ2JKm/m2g+SNyVme5Te/36uTMoWGLnggc82JGCqclIYxxhHYXOYzBXtjwtEExj4OZwDjEDifDVLFrIxtbW1uscUwFmuB5I0Jhwb/vp7RxBISKBaP0RXcN55roee4Y8yAR2HlqrJb6y/NCyfHlx/cBZvLqWwPCu7w+9yhZirkkpdPuR2EH5Ux18qUyoFuJVnxDOeL6Gsp7UDPaGhkF8tk4Hb03oonM+XVffECIA4SJ8ZgL82JQ7CX70o59iYl6qUkWT2/VZfm8J2dT7VoZ5jqAG6wCj2zus0dSeTMdvJbfu3CcvvfQH5M9Ttrh0BkqAoZwW/OIXv5Kjx85oj2d5XnZgBiTH6zjMW51XFysLUuadXeDC+Q7g448Py69++bzE6qqOqUASmnPhn//sl7J37xGkMKlkXoR+u+nqTYdpVls79wWZH8M6w5GI6egOHTkt/+9Pf64dJ5xpSVcMwPtMA7fxx2JOdeMN18rkyblKXXZK9tLnnn9ZRo4cKbfcvAqNcmQ3SeGLlh//+CeyCJP8JYvnKjMpEY1NAdm5a49sxSSfzFRCQoUpP8kdGCU333SjzOSPvvl6/PO/eQmqOVbuWr9WO4QOXwijlmeyX/7y1zJ+/AS54boVGkZpb8b0YO/eg7Jtxy7MMWO1o1FbaCP4cRPatnLFVbJg/iy0iQy10Fdee1PKzpbJXzz0AJgEKfbaRoGNhnvxd5gfxyfI2jU3aefm0iUt+30Hjsumze8hF77vZccL0qSvYLsHbJ7pwAGdiwckdExsNJrmKsi1EeZPEpifkSnYADJcxxrcO0UWQAVZSS6tUSo5XjkSk1it+ulBm37Orp4eNBqemZulMViucF5bec/5KI0v/sxjK1y0bj2hFkE+SEtC6Wd+rEugWaLQWZmc2VrWNP5CyzFYPa0tTGBP/E+G89SxKGgArld3Hb/7iovCTKuuSQ97nxHDenE0xjBe9aeitE3m78ClPp2LUnQ8EWMorVIjfjCuhRr4hqPrFIUEZ+wA3xf6ItMO4SPLYjr3U1L0Z+fQA4RRtnUpK5HxWVf95A8h/EDJzpS1jPnCnS+zW713tYSyEY3XsvhWGpVoRVmkhRpI8Nd9vezAXlnh4KIwMwhrKKES188KB3vshdIHy/PDn9rF6Ckm/cgfMr63upKh7H46ZquHtaun/Jyv5qtP/OuVgX9cLLBu1HNZfYWfmQPJRQ+spDnOPcmU/rhgPheCP27QGSGp4IP3/nD+c1dKmz13B30pT6Z6PWZ4dXT3fmdTE3N8btMrNAhy0DiaY89lhYuLwEw/XMX74y4u/FJ1vtJMwgzKUDplljG0L84YefFwkZn55wvXJf3uYmOYmVcQhpl5BeGKZqZbJOe0h+5KxxXLTH2nCcuFByRylzynFf73nFciLsI8c/DBKQC3ayxftkx3n/Obj8LCItmxc6fv1dOVgYs8zxx8kFmURn5U9Nhjn5VHPv8X+gkCf/H2SmJkV1yRzORCPVefNm/eIs0tAf3J4W3bt0tc7MC9obgcMWi/OX0xQenjXtTy8nN6aNS2bdtk//4D+mHQlQayjitMA7Jv9nKEU6W0ZOMT4oSnZ/GtCBfuuRJzJYFNvaLHTLd8xp0ALc0tnYy80nFFMtOBEkrHKYlj8JWMK5qZfw4M9OMyZqZbnu7JDaMnXOaSSca5F0/uOozecEWr2T83DAFmujnwlTUXdhjIFakBZCYrNVCO6MnfuXDQU36XyoViIBlJDAgzOZKxYt133XR3oY3zO1aFVz+6xuka3l8wH1fexXbd20V6qfMs7YFiatjM5FZD7myzzUwD4dhI5KnX84U7x2fn/P69ud7yvcROeY36kHZgLaoVNsJazmMFuMrCz970/Dd/PqhwT9A2wLFBXUEfhhnYaFiw3XotnsNseTjvNUOr3ZeKeHFRfTJP64DMuKdW29luequvIHnC3jfLqpEh3HTMnzPkO8MIn6D31te4f7Sz0holGJPX0Aa5MPq6WOg83l0Q/nAA9eoeJ5g332n2BqYjcd3Odz8szO4NPZXSG8BAUh7/WTuqVu6E4I+28resuatew/uIgWMmMoqP5xFkSaiI+4TgwiBDWSKrrmqG6Xj1/JwjtBy77QUudjAmO1lP45D6eZV0G59d5sEcuCXS6mfEtzQ6jMDPYnKZkPde4h6gqtS7d+hkFj/1IxCBsWprayXQbKdz9hXMckAW2kkc/uAoP1sjjdjT2GjCEZTXVu9oMecMJBAa5cXTdL44/GaSnxHQscIh6eHYcO4W571z5mf10nQow5z52xGiloeOU+6e9WZZuNfCvK5GP/wxL8TvBOIpYxjfA++0s/Cqf0OvdJo/gV7EQ4f5SNrxnCSXNhyExUxWjuqI6pX3ZBrPhCNYOXeOHUgm9fX8eWCPCLjyXFnuz+FvUHIHgEtDMA79qXrIDJ4maZrRMYcnnPBtSABxUT6Io+ob6fQ7EtYBHYWnVtKPjoxpYplIZ4zQojSMZdU3NCBO8BsZ3TeEBxarZ7d7+Wga/KMktSCOO/yXIU2oZzN3M3jPobBxkmXxLY7lRYaShrjvnqDP6PfLaTaIjIyPS9AXwQ1g1sKFC2TRwoWSn5+PRjXrWLpm7S2y7KplyugzZ4q0KBKN8VatWiUzZvJwpho5V1EhnV88o7GpI1Lk2muvldmzZkr5uXKpravV11g0uBoaUNb8+TJx4ng9tInfaypBQBieq7B06RL9RJAnLRcXF4OvHbrLYM6c2ZKeni4lJaX2blM52iEjR6Yh/kKpq6uTBjCc9ZuMvJcjnylTJmmnY/34Ea8j/qisTFmAOrBu9Y31ml/e+DyZPGmSlJaWKHPY7Rz4TnVs9hi5ZvUqOYM6kelkLmNQAFiGVqePUHqi4/LldHhqFsnJVFaiubFJFi5YILm5udKIXk6Cr0bF582bJ5XQ59yHwwN7KysrJS01VTZu3CjV1VUyIiVFnnjiEYmJju5Ux+y9119/nSQnJ0JCmuTuDXehNGNUI6QkC4R88KFPyaLFi7QcQ4RK+Ny5s2XFiuVgYoHceMMN+rPCPJSRR4lec81qWX3NKj3qRpmCf9Qc48Zly9133wlGp9qhUu2tsvH+e6W5pUGKigrkzjvvVMJr/VBSC67Z2WNRrzslLW2E1oGf6S1aMF/uuWcD8uQZR1TzylN1/FNVWSGz0aF4MHLnqZwDiLCYSZAobCGv8fFxUl5WCmY24rldVq5cIYcOHpBf/uqXelryosULVTUSr776ipQWl8oE9GYOnSQAezx3B8QlJsgcdIIdO3bIG2++KdOnz0QnydPex7P0ll91lUocrcAWqk1IKytBAi1btkzKy8vk5d+/rDv0loDhzJsdp7DgtGRAMtmT2aM5R2ac06fzkU+zRMfwE8J2/dEcunG5OfqzVzTyrBzb2UeVe/jwEX3xrcafMjogx0+e1LNvde4NZoIIGp+1i4XWOXv2rP6mSQI0lo7HgGoUxsBQES48ZrK/9d3pBzQ0JfQIFRoRbRg3MI508M1+pH4tTZVSWFQENdwgqZBIShpVzOuvvabM4OHBjQ0cewKmapAPv6Hk0dvlZ8tBgHKdSvCQwnPnzskta9aA0XP1sHweo83DouobarVs1ocqs7S0VDUAx+WxkDoymeWWlJYp0Rm3uYVjG9shYH65VCA+OySZyt++Zt2oOpOhOSiR/HkOfkzMs29p/FdCyqqqKsFIGn9mPJWUlEhNtf0AjalNdAyUy3B3/Ax/aov93/ujfgb33B9nQLWCD30BxxuwT61Qu6dzubFndugYuQCql9JCxhacPi2LFy3GeJMlD33mM0qwbdu2y+LFM6DqxklqWqoaTfVQWw1g+IxZs2Tq1OnovZEYz+plXE4emNKCDlImmaNGQ9WNQ16jJCMzk5NHlB2pBytOnTpVJo6fgPzS9PDB8Xnj9awCWo1sckxULNRvFphKo41HiEdjfOd56xGSCf/c3PH6qw1btrwnr7/xhoweM1Zy8ybIyDQeuWbGFOfVcTzNGcxlGp6ylZiYrF9D0yZKT89USz83J1ftilGobzTGdrcKpRYtrqyDPocFyyA8NasmZLAmsbHxaBx6KlQHf2bw5ZdehlrLkC8+9kX54MOtsn//IUjWWo2bAgNn3fo7JBdq7NU/vqkEu/3229Q65K/rvfb667IQjL/11tvkj6++rlbrzTfdJG+++Y787qXfy549e+X9Dz6UMkjVhns3SFIyNzvHyFtvbQKBRB749ENSVlYOVb1LVq5YifLSpKKiWg2mSZOnIN9bIT0cA6EGUWeeatKAcX/e/AXKhN2798rMmbMwBs+Tj1EWO8Jtt92mEq5dGe0+c6ZYTwyZhzhjUP/6ugYpPlOqanfu3LmaZumSpRj7k2A7zJV4HhuOdjC8K0wZh4fwtloiGU8a4WfulLL5sO5GgnkkNHvo2bPnVOVxy+N7Wz6AWqpB43nETLGczj+tqo6W76uvvgVmpOhYcvzEKe31xcUlmM40yFkwa+eujzAxhmqEVJbAvwFjMvM6fuy4Gh4TJ06UA/sPKKFqa2qlDKqZU4vdH++R0rKz0BgRGKtq1fE40/iEeFi6/BnE4xIFw4tHyZRCBVdXVaMdsFyRnkeRcjzjb6R8uHWbSmNcXKwe+UKrm+NmKewDto3S3YDxnL+XQm1Ey74J1rxax2hDBVVyTQ3amCRXYbw/eOCgnC0rUxo5w4o/EdIfESXrOrdajp++Gp2zfwLKMTtlRCrM/nhUvkkmT5kMdZoh+/buU8uTqtZ9sEN1FAMikIE0Ojie0G7BRSVkBFRsVHQkejfnhmxgm1aSRGMTOW6SoJwGcQyi0UOrNzYuRn/CohJS5xYvOC7SCOHxaVRtVGUsn0YJ65UEA4tjej06BdNQKhiHfjx3wS1U8JmOnYgH+zNvjr88OIpjpC2QwOG/1QuExdjI9gVaeI3RunDJk2NoFqzYiRMmypEjPNq0VhlJx45XXw8L2xtX+wLWk+NxVeW5/jOTjSGBUlJTlJnuoAj29PY2NpSMsO2NvFcxZmtxIez8OiOEeeoNQOaBvKgTyzBwXKEvwXBOwE0x6U8cIhqZwlGD8SyV/TVrEU8uK47uWh96MIxl0UI1BvHeVo8Ie9Y7ZsC8aakiPVPTQHJTEM2LcTWelasl8Ir4DGLHdFasAs/0oyBwUYVHpvYVzJfLedVgZr/HTFaSjeDPLLrKdhICjGIltVUeQfhMaaGvhXngPf67XuriIqo5/NFnhqnz7jWtpSNRNRuU25ke/lqmRQvJi1Juv3TLMi3MOMArLvDsLId5ePlR+jRPTYeEYJw+q2Ny5aKG65WezA8dE0/o5GAktYSRRaIQrtoL2kA7QZjwmOnl3g9HU57LWrxnw1gp9mIlEHswe5v2RvZgEhu3vOIvG2hXJrN0DKNT6XFO44c6jeeFq6R4juWo0zDG8TuG4eq5YF6WpvOepzkjfldnGqZLHUIc29KTPxzS03UyGI6qnQZVAHNaq3uXNJ/YGTw1awX0B+zBNICiMTfTo2JQQXhqmF8FgRx65xD61B3aMXwgMQ0uL+e6gh2EEuU9doEyvZd05tzfnhEsuyssfe85MA3CfUFsE8dUjnnB9vUNzI/GIdVs2MwkXG8zUCXZWMIKupCeqnq+BnRjpne1O0qKPQXhPEgwR9TuIDMuRLfQ9oTiQkQ/X1oiNDyY10Awk4rf8w4PrIxzjpHq77m+wqXrPX3XGKGut3+G7vHNmbrtOeyTuAunpWZwq1V+moUHpMd/b8wMD9bbgu6TVK7/jWD+lt7grsGyL5Rvb+GftD6ujK7ufGGhjvEYO5Ru4WJAmKkV5JXE1KvnOisf2gh1Lm5nWFfnixviEKZpHeM8P+d6LdvnegvXPBnWk3NxcN+bwx9ekU33MDj682RrndtyKuS1Q63dC6jnTwKMmauQXxg8RSXUhEe/4GTaXyk2PhS+MBhKRhpD16aoed8jjDTd8/YIBthUo3fQRusNWmqPhLVEjmG9FWFJ+ad7IaQNJka802eq2wDXhnGvtHAnSPeQtjewPJ1nVlSEz0z2qgT+PGIUjwq1uZ0Xgoa7eyK0gq6nd+2Rzq/3nsp8ON7wnnG65It/Vofe0lsZvcFfrIsVUgpuWEZoycFEXQ23IBibYXRc3OD4CkYEAroCZJY/2+XG3U8GFhdk5jQys7cKXBixCfGSmMTftWIFPU+FVVztSg2A09myB31rYP5knN2RwawgmWk5BIH8NRaASMGc7K4zLsK0I5ynTTp96hVGDsZwsZiTsc8rxys/tGSLxelZz3ApGI9xgu2ur6uT1pYW1IuS2R9mtulyXv9FEmBl+KZEl+20rlzN4P4brzLoZXym434aNiOCli4K588w8R2m+9Uf9kpm4hYblGA+i4+N5FqrvvS1nOAIu7IM7v3RtRZEjwDDlGRt6PG49zuWYTkgb5UI52dXrq/qz1/h2eplcawkkz5bxYEf732OCwGhsJIIrgvbWjXzZHLLM3hOe9e0fQPa298M0DxIlxEP9yAaV4IoPyQimWYEaZeY6Ejd7ISWqjohMXjwLn9NTxmGBuqoi6roRq0WplNaaYO5/Eamt0ElmT8DWHmWzZ8tbpIYLlzAsODiu5FOdIGcaozP6ucRj+Ub00jcgNaZzOKPfXNFhuHxsbFaF8ZncZoWTns/rozH5Tk+Y3BBZtxkxg1mqJMXx+8osQxrZaejBHodVl3YsDyiUjPy+vkKjD0xUhfZyZi6+jpZtGCBXHPNNXLs+HFpwDO3eNx0002yZOkSffPP10x857hy5UpZsGC+/pT+9GnT5dix49Zj0bCsUaN0QxZffXEBmozkC+uYmCi55eab9DVVbW2d+lMKWlqaZOaM6brfZ+aMGcJfzauprdEVqfSRI2Xhwvm6Q4HLjrDUrOZob1Nzo+5JWnn1Sv31PRKkBYznj4lff+MNMnfObN07xK0eXOEii9he1rG2vl5fuE+YkCcnT+WrP9+u8IfrsrOzpaioUJ8d2Pm4yrNw0SKZO2+uHD58yLNo0R3JYITpu1UyuK8A65iOryCDJfYTpgIhBU3NMn/hQklNTdPddtwewQZnZGRIYUG+bLjnbhmRmoKKB6SqqkKOHjsqCYmJMmvWLK+32mID3/DfccftkhgXp5JN4rFjXL1yudx11x36u8+UJoIESkxIlOuvu04KC0/rRq0771yvR3pT6iZPmSR3332XvpJy2zZAPdStRVXeDWDamjW3SCzKIiP5Y3N3IH1tdZUcPHhA1txys+7xUelGOnZ5vrrKGJkmDz+0URYvWgAJbUTeLfr67pprV8uCRfNMC6m00IFBEe0SaGsGjRpk6ZIl0CIxaJtZrqZq+yNM3RE2MwlTex36Y98lpcX68phrtgvAXBLlj6+9Jplg6rSpk/W93oEDB2T37o9kZFqabN+xQ/cN8dxyEuzQoUM6jvGX4FXyAs0yZ/YsSUsdIcePH9VFaQSoymLv53TozbfekHc3vwNpjNQdDAgCGTvkxIljqjX47Orp3rGyo7FTnIMG4NSKYfwVBb7J4EaurNGjJR4dp53vI+HHLJiOPwC+csVyKTpzRlUt11ZjYmOkqrpaSkqKVRuxPGW+OlMIVLPcI8ROxbc8Whc6qxoQvOsvwmSmUQl10m0UtKrsDQobEIFenQgrqxKqsUrfuvMXYsnomtpamTNnjm71eOvtt5XwDtyWya2aVKO1NTX6K3cPPPAp3aTM3jxr5iztySQkVWljYz3Ud7Hcc+8GMDJJnn/h18owZklG8QdT9WUxiE5p5b7YyZMmQ+rWSFnZWd3aMXnyJBsrUWeqPFx0Axc7DHcDUGrJFarCtWvXypTJk/XUL75s5v7ZBtStGSqZm8KoXThucwcEW2Xq0zZ46fiOcmj86ftcs6LM+e/7CY+Z/ow+uVPjBf/Y+9RBpcAW0nsStAxj5JRpU2X8hPGSkpIi1WDOlKlTtMGrrl4le/ftVZWXnZOjHYF9gz/hxD04lEqq3BEplMgTqsZHjx4r6RmZkjEqU3f6ue2RjzzyiGRlZcnW7dv1l2Ozc8ah4yRDbXbob5zQ4OD4SXVKo4XnpjNPjltjxo5Fh0nF+JktOTm5Wub7H2yVzVve001o48ePl0yM45RK7hhgpzxx8hTqkYE8M6FxMiUvN081kR3nFqGHL45FvvEob9ToLHSMRN3YxRf4Zo2TRmgs6Qgm2ljpXHc6X8jxLxGGZDILmOxknPcvGuqG0sIqkXCbNr8LAuXJxk99WrZt3yHlMERWrlwlCRjn+Cnbzp27ZOq0aTpuuR3ezPXU6QIdc7mjnbvefv3rX8v27btkx87dsnXrNpk/fx7GuxulEsZQTHSs7s6LhSQtXrJUlkMF5qBz5OTmagcpKS3V/Tirr1mtDCfRz0Advvzy79GZDuhmLe4VmglVnpo2EvXcKbNnz5UlS66S/QcPS0tru9y2bp12QKr1nTt3yhtvvCF7Pt4nWz/cCs1TI1fDiOLe2gpM3IsKC2V8Xh7SL5E41GnqlKkyAtpl+bLl2iG4M9BWzEx1kwG8qmCGCVizuWGdnUdJokrkKsZ0WJOZmaNk3759OgbSgj0HtUmJ3LVrl254oqXZ2NikO9tIaEoY3+Dnw6LkRi62qbCgQKqra1QKznH7f129WrTFxWekGONOWnq6MojbKCmZ3BTG37fm/tdz5ypVfdYiLQ2hgoIiqUFeqWnputGrAQaLjo9UhegwtKT56QHzq66pliNHYVlDnTeic23bsVM1AhdFWAanIC1Q10x37lyF/rZ0HVQst3ywTTT8OJbSCq6sqISxVKMbunitwPM4aIw8SDrP8qM02ljM6UoARhZ3Cvado2QdX5rrNy5501ZCT/ZfQKk+Y8GEJhCHaiojI10OoUfTWiSsgvYZAOeCbdwgHQHrEuHsofFx8cr4JhCDoPrheGPTAYNu42CjMdYwL+7i408ucpxj/mpN0tBhqO7lQWzkw07GvLiRjGMjVbr7So0GCQnRBFUdy5+MQt7cSqJjJq6xmMjTMIuDyo+N5e7DZq0D82UOtHx5w7hMwzLYJhKW+Wh7kQc7Icuhxc7d+7S+jx07hhxsbksasOPwKwDdz9RHaN4ovxqCExYz2bDExCS14PQH2UAoNg7U9GJYHDaSPlEoR5mL//QnKCUEG2UNN3+CBkioxUcgXLMwkx4TGvjZPcG4upThS8t7EpkxXLzzwfIw8J5SpHNMwOXrhz9Hf1oX19pE2uCZbdRQ1tvaXQ+jzH3S0Vcwa8dMG6TCcG7+RpVh20asQmwEmcuxhs3jP939jjRGXN4Hie0IpH6eI3M743U66+lcreHVVlbcBJz3JnG2uYvhdm/1szQXcpYmeE8J59Xl5e6DfqHxg89WB3clLYJhqA/yVVpAitGwTpr22SlQRt7U8CSTZj9/iY4rOzrxV38rg8TrGaG920XzeZ0XjM+yhxw4ZQpSX8neCgOrsaEeV9tE1leQDCqZVRXhMZPQHoYxj0aMcYW90Edod9+touEyo+8NH0xAOA1KBziIsFv18n/R3Vf0wMxwCctMe2Fgb8wMs8z+jC+DCTLTWsy/xkyShAx0tOs/M9uUmf0XSR+6qjwdN13FrMZ27wPjfBLXmb6bYyZDyBF6jz9cWaEDY7vSLhyAma6kcGAVc84qeCHHdl24bKd+urqhBq23Nh0kh4MZBT96UJ6MHmEBJBkAyTTmkL5GaF7N75M4xh1o11M5g+6UgagfnrQraodkffng4oWHiNypK/ptADkJ1Pd5MLPt3irFK5fOeoMyXq27gYdVIXziDDysvWw7acZRhMZLhy4WMKzv9GBbOT3URYNwmElwpSY2Ll5XQCgUQRLaA5/9VXThjpmcSA8kaCEOdJ4DByMI6YGurjOV1kCLfltpqz+DyExKH+eYXDhnrsogF+ZdHaw3Bn31DpF9XgMCFDPgefYFvbXfgV+V61XZCZq1t+nLd31l1s8VIMdM4yIp0EdH5vDKtyRWP1vxYcbKVIZr1nbPJ3fPdUs68+0OC0fD/BTRSrfrGqfL2zL1HECpdIx0cZiXfrjrqXRXB+cI5quvp3z+NgcMjesP6+rHd5japi7+ftdGx/VbtdJZnrcihCHq/Jb7+R3+AjSp+gnSjBXUNUvUSAkCQvOn9nXlB46E59sUjY9nOi6Oc6MUJ8q2UG750BFuDyl3GPDtgwLZ8Z5+VKH6YSrbgfw6tPxILZ9fZbOHG+PsI9Zmb4sIX0prOQiheleHfyyLZwsFWvky2Tqa82NezMfiklxWv7q6Gm/Fhos6Hbogz4V+MpT1ZDt1GdIrRxcG8EzHxX5rr7WbQHRNEy7sFZiypq9gmgg904DHk5LAS5YslqVLl8qx48d0x8GI1FRZdtVSez1UAwKAUHk5ubJ2zS16mldjXb2eCRCBcZfN4paQtJFpsvbWW2XWzJn6Kow7E8gc7jjgaV88yCk2lidvlWiPJtDH1W/27NnqV1VVpYQakTpC1iLNUtSBbzl4jA2/7Na6a/U79OQvHvTEl9J8YU0/bgNZuGihHjh1prRYP2d3JEpPT9NDoyoqyrVdZD5fTt90040yffp03SnBV3a6NQSJaEdY52zRunOHxYmTKAdh1sERjjzYEay79A2aHm3l0XKc7HjefQelkmqejsybO3eOvkGpq61VqUxNTZF169YpUXVXQFSknrzFDV2Fp/Nl/fp1WhlTT6ZC+aKaYwgl5Q6E820Hz/MhAXlqxwcfbJEbb7pBxk/Ig/RAClEPEosnedx08036zrAREs/3jstXLNOfj9qz92PdcZeRmaGbrSAjcHae3/jxuXL7ultl2rQpCGPHadd9RdffcL1MnT5VJdH9Wjz/5eTm6MlcPORCzzFCubfffqvs/ngX2nUObVpvC+dKIOdoT9jWEZ5MQk+WQ5ARYcPLot9q1sCaIif+B9FjoqP0sCO+0OVGKr51122StHQRh9suPvjgPXnzzTeQFNIGJvONgmMkD4GYMWO6bN+xTd595x304lnaIWIwLh86dFC2bduq2xsTkuIgUTUgOspH1+c7zLN8IV1boyeCsEI8LezQ4YPy8u9fAtNqJCtrlEqLjekoD1dqAe5a+OijXWBao2oGSiVfPPPlMncPsIVsJ+tPlcltlNyMrW9CQL3mQKMekjFp0kQZO26s7jVqRj5uWGFaXrl+TS1Eq1V3riNDZGf5ahnhwHIIi5kkCnsrG0ZQlXBMYBv4FoUvdDkusjCe0sEjVfIhkWvWrtXG/+b/+42Os9wBx81OfMnNMbcOqo/SS1Vp7zTb5XRBPghZpGqdm5upTu2FNjdWY9yClHBjlRoncMyXuwO4fYPHtbz0u99J+dmz+uKYtW1C3NtuvU2PnSGDuddnzJgxtjkL9eZJJE6CmBcZQini2bAci3XMxzUGHYTTC749okSy3XTUJmyTnrAJcCMXj4ehveCAlnmdJXx2EmEwkxXwnEoX2cp/9InUscm9HiO4wSkOPf2uuzbIhEmT5N3NW3TLxsj0dMnkCVsAx8eWllYQeALU3nQwH70+NhbhGXL9ddfLNIxJr73+BogaIVOmTJWMjJFqEHHSjeKV0ZRw7tVlultuWSMrV16te4327duv5Y/O4slcIHpcnO6B5WFO2dm5GAszZMSIVD3aheB+Hw4jzJMnYZKp7KS0D2Jj4vVdJM8DHD06S7fKbNr0DrTOh9AcE9ExJsrItHTd4MW0CSiLx8Jx5z9hYz0Y6Ug4QIhKTc8Jbw8Q1BnVF63FZStWSHV1rRw4cEjHFErI3NlzocZ2y8yZM3Tb4uxZsyU9Aw0FYbn7LSM9U6bPmKlnB7H3c3/NHIy9U6ZOlc2b35OkxCQlUDkMixUrVoF4Y1T6Dx86rLvlT5w4oQcq0bSfDqOJhyqRyNxblJuXp5JHSeEmLxoZy5Ytl71798MvVkrOFMvhw0c1nKdz7dmzR26+6RbUf79KKg0pdo7ly1cgzV41hDiU8OSuPagvJZ7HnXIL6aSJk1DWJCkoKNTj4qZMmSI10DDslJTsRQsX6WFWPKlr67ZtSjvuvCDp9dO+sAygNtUSHjO9kH6Anyewl3Jv6fTpM2Rsdrbs3bcPDWhD46OlAOMmDzOk+uL5dyQ+rTme3MXTs8g8Nr60rEy3RXIjMTcUFxaekYMHD6kBwn22PHnynP64aaPs3LFTN4slJyXrgYhUf7Rmufmr4tw5PQWMG6mKCovk6JEjuhGMRKfBw9O4aAlT8qiuqWK5Cex0foHWoxplNzU26/hG4us+HqhP1otDAHXPKahv7gykKuZe2VOnTmGsbNPPL3bt+khqYcDV1NapBc9Txtx5uhMm2LbNbVu3qbp3uyKYvx6c2G9mehu6cqcs56DnBfUdyckjVKWxMTyUkKrq5MlTqnYpadx1xoUFnVPhmcRTgwDqkaVyOZAjLyWAnYJjEQM0Pv67pTkyjF5U3TwaNA5GB78JZSfS/ODYw3lPkqja5409wUWoBFK6eDqlA+NThWp5gO61RRmctyJIJZgZ0bBh/RiPc0wacxyfWT92XD4TrD87ipbIuqh65lDQoYxkB+fOdqpY1BrpMX6DEdzMTdugr2DeNOZqqricN2UZqN7/oZMqhhLFqumGLNSObFISogGsoC4sKIxgDtZIEpJMM0I5f/ZWXh0hHHjPuATj8F67BXnu4vnSKJNRBqWAoG/X7Swa04vvD9f684p2cSghrFNZR3VXorM8r24O/npYJUEPMFHHYGVmpBpLjY11CLO4fQHL5/ydzORXdCiwf46V4+qKI40RlkAjEYHN4rjAqzlW35wyAD2bRoGOHcjPeiv+4aobtdw9rs5pXPxju6mq9J7AsxHLl96L6656D2cc6uI6Y/jCvWfbcWh++txTvq48xvE5F8PyQ3vxj7aE+sKbkm2L7OwciNFnxzYTRu+wwMGdm3i1l+JZs0YhXUrs2SEi06lzqs5z7MlOMrs5hKPpvTrNB/nR6ZoniKf5O4dwv8Mfde6+q39vfj05F8/v8MeurAcuaIK2g/e0Jfhd50AgIodqNgyeUho5jvEwevZ7B66y9AzG8cLQOFsBYRfglaAkaGu95x7ANJruPLhQ+v7CG8P7C3RF/avdDh2LVqwympZDP8dMLlXqmJkzObwxk2CGdtWLgvVz/qGgn+u1fO6JsJRA77YXXIgf50t/obTnw4Xq9UlB9WjS6Wdg3ytmzAzYmOn5hQWnTmjdOdf1OehsxcZ6Y2+Vv3CjzHDq2TG9q1NPzvLvn+spv/44y8sx0uXfHwTTesx0HgPtWNneXE/xg64rg7q686PnPC8v98lpcUFn/8lMXoYeqO56c39u4PhLNg6Imh3G5YFhZl5BGGbmFQEbKoeZeQVhmJlXEDxmUkyH3ZB0Omc1DEvmFYRILgfZeuEwhjoidXmJdz7JHXZDx/Fi0DdNXOw1hg67oecU3k2k7TobVrNDG8bNSNvXOoyhDO6fonaN5LZFt99mGJcz/MrVnH0NYCeVEZHchabHZ4KXzvWUcNgNtiPs3vGJlo4dXmxDZURS+tQOfhfCndvcVsgtIH6DKJjRMAYT3Gji37HCLaH84ppn/9kGMbjk9Ckdbq7JfTz88EZ/GBQJeCaBOhPXYQDs6OdDOLRi3j2lV39cyTDec4yk43cr/IDXUigzJ4fUjntc9VM9Rork9kH1tMBheBvQeofbc9sfMO8e08NfS8Uf22lhD6E7LpSZk3y1461yTxMM87A7LsDLsGh2Ppqfnx9WqS7M7Annq90Fkg7jkuK8C+1kow6svbhhXF6AZE4c5soVguFXYFcQIpJHXkAyzzeiX8gaGMYlhMj/Dx+yqKgc3CTyAAAAAElFTkSuQmCC;" vertex="1" parent="1">
          <mxGeometry x="290" y="119" width="115" height="215" as="geometry" />
        </mxCell>
        <mxCell id="u6fXfUsRiq09m7yTQ-iY-16" value="" style="edgeStyle=orthogonalEdgeStyle;rounded=0;orthogonalLoop=1;jettySize=auto;html=1;" edge="1" parent="1" source="u6fXfUsRiq09m7yTQ-iY-7" target="u6fXfUsRiq09m7yTQ-iY-15">
          <mxGeometry relative="1" as="geometry" />
        </mxCell>
        <mxCell id="u6fXfUsRiq09m7yTQ-iY-7" value="" style="shape=image;verticalLabelPosition=bottom;labelBackgroundColor=default;verticalAlign=top;aspect=fixed;imageAspect=0;image=data:image/png,iVBORw0KGgoAAAANSUhEUgAAAG4AAADVCAYAAAC2VsVNAAAAAXNSR0IArs4c6QAAAARnQU1BAACxjwv8YQUAAAAJcEhZcwAADsMAAA7DAcdvqGQAADS/SURBVHhe7Z0JcJ3Xdd8P9pUAiI0gCQIgCJLgvlNcJIq0RFGSaVHyIju2EztOmvFkpm2mk047k2SaTDvttE2T1vbYlu3YVqxp7EyTyIsWa6NWUhJFUtwk7gT3BQRAgNjXnt+538V7AB8APoCU3qPen7x433e/u55zz7nb+e6XlFdSOyBxhqSkJPsdGAgVPSkpWf8ODPoRJOzxHQdqGxfo7+83B2BOX19fmOtXP+f6+no1XK9dSxKcIx5h8O8L+Q302X14uvGE28g4pOJm3eiAORkZGZKamiq9vb2SnJxs9ympKebS0lNV1vqlp6dLn4lkZmUYUwaUOQhiSmqSpGekmoOBMI9waWmpmk66/Y6NSOUey90+3CZVGW3BKcKNxTAfla7KykqZOXOmSdGJk8elsaFJ1qy5SxmUJT3dPdLa1iI7d+6QSZPyZPnyZZKVmSVnzp6RPXv2SH5+vqxft066e3okPS1dDh85ImdP18myFSuktGSKSWtra5vs3fu+Mr7HGsWNGC8jItfrVuA2SJyvZDQuMrq7uyU7O1u++c1vSkXFDJk+fZpsvv9+SU1JkqKCSfLl33lcPv3wFr3OlgyVmq/8zpdk9eqVUlJUIF//2u9JpcbJVIn6+td/TwrzspX5M9T/q9Ld2S6PfObTFra4ME9KSkqMYeF9ZgiRyvtRuZFxixk3doZRQQmZmZkpNbNmyaWL52XP7vfk4vlz0tnRJj/+4fflzOnTcvToh/IPf/+EzJhRLhs23CNP/uhH8t3/89capl0e/8IXZEDVbLKqxl3vvCV7Nf7MqgpTnXm5OXLmzCn13yG7dr0rXd1dkpKSEmTscSvq49MYr4uM2yBxHnT4N+tuBK2ffqypqUl+9tTfy+JFi1RKtqo6zJU+BhnJEFn7KhtNihQXF8m1pkY5ceyI3vXKkcOHlUmV1tchTRs+tVm+8Qd/IK+//pp0qWrt6emWebXzZNWau1WSp5vKHR2Ryj2Wu324xYzzOn08bigY8jMQQeLOnT0nv/jFP8r+Awfl93//G1JYWKQjli6bAiQnM7BIk4sXL0l2To4sWb5Syisqpbq6Wo4eOyapaWnKvAHZt3e3pten/VmHZtetjSJLLl+6LO9r39bU2KgDlwyX8RBEKudH7SLjNkjc6BlGg36VuvT0dNmy5UFZs3atZGflyI4dO6WjvVNS07NVfV6RhoZGvS6QU6dO67O35dHPfl62bvuSSmyS/Ms//Ysx9szpc/L+nvfkpz/9mUrZAmVmjly4cFkHLpOldt48mTO31kaXvapWb8RE6uPjjteNjJSMnOK/DK5jCqjKdJWWzs5OOa19WWHBZOnu6pGnf/kraWy8JhlZuVJfXy91dXXS3tmlEZK0D9wraTplyEjLkN8885zUnTylTEqX8+fPy7Xr7VJ/5ao0N7dIQ1Or1F+9Kq0t16VL47a1t8sllb5enSp41RvriOmVE79C0t7WxmROPZIlxeZemdZvdbS3qVeSqVMaaGdXl/Qqo+0mNU1ycrKtAbRruGy97lNV2dXVLbk5udLR1Sl9nao2GQAos7Oycyy/yCPL2EPcLHlB0HDCeqZGgg/rw/v7cETyiyfEh15QeCJ7howG/zzEZKqJXyhePDMNxA3jJgYY6N2dgU8I4+48JBgXp0gwLk6RYFyc4jYzbqyRW3yP7D5O3CbGwRCS9r8jufBwo+NmpgGfJEC1W4BIQ22IfLNubDAlC6Zln2CEaDW4cjJ8JYFrT6dw0uJ3I6nDQ+JuTopCwF4kdrkyXkH3VYq2bp4P7idY/Qko754orwqmLBhITXUbiKSPeQAbisnqQisPBMeFLx+5JPBzP3qPv92Oh3Fu/ypILWZgpBpBL5nd0YiA4OM3RILGrMeyQ2Kur98WwaF/MoybXn2XMi7VAuJJoFQYF0QaC7BHkzHGGd8sCr64mwOyrVW065hjnDXSyLAnWmB+h5ebaNBvYAKMSwp4QFrsJXZ1ddluyUB/nyRVz9s4kJzsCuf55MvqJW5MIG1DwP3Nd58DSSpxMceymwe1vZWlvzE95wMT29vbpaOtTZJmzd9kYW6aSZFwQ9RPFuM+KiCFfSrB7a2tkgy5JuyUTzc4+q2bdgncDBCuFFWfOTk5jnFo4SGMmLDTf9pz36xzsRK4GcA8BpPJXExITSbwscA6ItVsCcQZbn4EkUBMIcG4OEUY41CY3iUQ6wgYF860BPPiAcNUZYJh8YJEHxenGMa4xHwuXpCQuDhFgnFxigTj4hS3gXGJkelHgVvMuMQ88KPCbVKVCebdbtzGPi7BvNuJhMTFKW6jxCVwO3GbGMcKzPjM0hK4OdxGiUvYktxO3AbGJRj2UeAWM84zLcG4241hjEuMBOMFt7GPS+B2YhjjEmouXjAC4xLMi3WMQ1Um+sFYQJSM80tZCeZ93EiqmrdR9aJnxlhqkjDw2r0mYi/fDeMhh3pGC3t5cFg6HlYqXv8JEB7spnOySJFDj5CtQ1i+48VAWL636h2NlGSl+3gYl6y8s6Pjk1NuYNx4QH1I58ac8eEBDWT0jEaiiYvGwxECKIJcboQ9GEdvMgj3Qo2rmyam/3m/rbenZ0JMjJpxnELHU47BzcrMtO8A+AL4cnB+ZNQIpPTGyvAalhYS7yGMC13zjMcjEcJpBQvhPMLgfYZG5SYs/SH5jg/k7yWPvDjou7ure9zvh0cvcVoJtEd+foGkp2W4wgwLPshIdTdTZSMsFz6e/ti9/vHVcs/dBT/2zrk6+6se4UwLUjM4X9fifcwgNQe99DHDn3g/EBbacOMzFzPc3yN5kOn9Vkb+Ud/+3j65fv269PX2Bs+jA4yLWg9wIkNaWpoVhJMA+DYAzgqmpacwnR2d0mUvmSvp1c+HxY9nnDhufhbHOfpGPtjQ3d1lX/YwYgTP9I9V1k4qD9Jz/hpMXa/myYvtxIdLTsqIr2pJn2noIA41cNeEpcVbOvjqb3dPt6bTqXGCE9EtDvmE4pCee0SZ+7VMru6EGe543tHeoTTR+JAC18dXRiD78CYRHaJiHAWkRUNkK6xicuFkKSoutgpxVDxnIs+sqpLpU6daGApJEVNTku2Y+OqZMyUrK8vCezVEOIhSWFgos+fMlrT0NHc+sj6zAurz9LRUKbUPO2i/OhBIm8YnndzcbKmurpSCgnxNp5sI9g/65OZk270hoBUE5djfTFX5fJcA8KhY61FZVSHZWj6OAfbls0ZAnOxs6yJIj1d6kaRJuTlWN8KEO5CRni7TlA6cLT3Qr/5Wbn2mvwPWPQQFGgdSCkqq/tIlMHYixjgtcHp6htGCrLdseUALOiBnTtdZodatWSPza2tlVvUs6ezskCuXL1m8VatWyrx5tUbc+fPnyYmTJweZ162tnK94bNiwQaZOmyZlU6bIyVMnB1UNfcKmjRvlvvvvk9179mo8vpmTpJLJJ1WS5L77Nsm0aWUyR5l+5cplaW65Zt/LWb9+nSxdulgOHjxo6dBHI03kte2RrdLS3CLnL1wwyV+6dInMrZ1j3zVYsGCBnD13Rjq1H6K+lHNaWZl8/guPqIprs8+/kP6iBfPlfi3TkSNHta581wdmujKTJo3tgc2b7dR2jtcP/4ZPl0oqDT2oYlSALtagowXE7le5p2ALtPCNjQ3W0vPzcuUBrcjhDz+Q1tZmeejBLfYFDVg8vXy6Fv681NdfkbvvXi95+XmDx8Wjajc/cL9kZ2fZN3Luvme9VMwoN9WF6pw+faqsWbNSFi9aaGlRYdCuDJ09u1oWLpwnb7+zQ8rKSmXdurV2ePbAQK/Gm6KNYX0QB7WoV+rSdES85q5VMnXqFMsbFb5s2VIpKSmSM2fqNM7del1sZUdyjQkqPZs2bjAJ4rgKVOrkyZNl06ZNpiFMTSvTSJ9fiHvt2jXJzsmSaVr+np7gkG+eQvjxcCwMUTPOstPSMSiwg220MHxwgVY5pbRUK5Mvb7+9Q957712pqqo0tZOiquSlF1/QlnlEFi9eLA0NDcrY64MtkHSWqD+S8c7bb6uEdcismmpjAN+9+fTDD2tj+FAuq/TyfQAICehfkLL6+quyc8dOOXL0iN7XSHJKkhH9nbd3qjR3DFFlaalpcvToMTl58oQxA4lS1sjVq/UmiQu1cXR0tktba6sNAgDqn7IfO3bW6gLN6Yf37NltjZby05AdXNmQPhreteYmnTppHsHIkqeqKc1NBFExjrxwFkmJ14/E6G9GWjq6wSSBCuAytC+gleOIlZ2dY63xqjKNyqOSUKUeqD8IiaPSNsjR5/PmzVMVVmtqC4maWV1trZt0PTNQ3SkpaZqLU1XQkIbEgIUBCurUDXj0qabdYyo62QZahKPfKp+BRrgojaoROOK+sKjI8qGH5lsE7TrI4FQfxxiXL98rsO4DTgagEdg37UwNakNRaeRsC/sXMIwUoIpj8fgwLonzBaXDhkg9Pb0qPXyY4aJcqW+Q9XdvkOXLV8iHHx6WKVPKtP+ZLvdsuFdb82LZv/+AzgOzZGrZNO3rFlhaVJSvdCxcuEju1b4M9cVHHtauWWsfcnj55e1KCNdvMIFduHCBDWRgwtGjx1XlTVOVdZ/MmFEhBw4clFpldOHkQi1hsjKhVxmUKqtXr9Z806VXCco5ZT29fH6s3friOXPmmNo7c+as7Nu7X8vTr+WeKsuWLrdvHJAvn3rpUkZ2aF9WPWu2zJw5SxsPo2j9oxygX0Qtzp8/3/pxPptWWFRoqp6+n3k8/TLMMkcrngCiGpwAKs0HGvzS1n333S/79u2X5mbmJX3a73TK3Lm12spT5aWXXrGRGl/buHT5svZHs6VACYraYVBA//D+vvetYheUURUVVcqEMlWzu+X0mTOyfNkKVbvvqIo6Jg1XG6Sto0v7sne0P9yiA5AWqb9yRVp1PsTHk2pqZqsKbpLt27cbI/gmHENxCHRBBwZbt35GDhw8IO0qxTASd6quzhoWnzp7d9cuVe0zZVr5DB1onZUPtNFt3vyAHDl8xD5EgRagcZ7WgUmezmPz8wrsmz9okuPHTygzZ8m1pmuaRpXm3SrFKrEd2gfXqMpv07IcO35cR9M5Rjcaq2mDCQxOomYcrTwriyE2er7fiA2RLigjUI/nLpw3dXj8xAntk65YpZubm+XMubMmRVeU2AcPHVRCpJhkXbrkRlsQ+fz5c8rQi9ZXkTbpoEJTlchIZZ0yk2kC80jUWq+1ZjHCNelA4MMPGBS1Sltbu/2iBvm8C5MY1COjQepJn3Xh/AWbBBOu6VqTNpSz9uWs5mvN2pj2mbokbcoMUoijdSQ89eVTL3QVZ5V5zC8btZ+nDlcbrmpjarU+k/xn1dRInZbhypWrOj3gS5JOxU+UcVGtnNB66Rcmq9RAeIhaXFxqhD2vDHOdsPYvqlIoXKoOBKzT1ngw3Pc5fDmRZTOG5vQf+KXoL4ykRcIY1AoVdwMgTVTT6IFp2gdSVj6ZyVyKUlMO64/03gYKShzKac+UuMlaLhoCZUJj4K+BLB36ZRibpP2uW0NEq+iUR8tg81V9BqGgCowiDaOQBuSUQbQMv/67PNSX8H0D9NlpUjqlRJnZaNMF6ER5SKNFNQYNLxj/RIWol7xgHLq+oGAyVVUfiOt0PJV1OtypAh9+EHrNHfEcOQIQVp8xSg1h8KnCPaBBeEBQf+If8SzfQHV74GdqiV9Nn5UbK2Pw3A/Hicd6qC+3MQY/GhylpXMK4GoQgqVA/nYHuCIMaTEA6TdJp5HTkADjAvJA1ffqqJOco0X0a5UKWmxOTq6JPXGSktyBpDiINCIsjLukUu5PCEMZdyPCGWcJEZ88rdyR4Qitz32QEeK5rINndumuuYP5g37hCA87CPy4J77zR9MQhjufI2ofNe2W1sLj3xzGxTiAKsvMZH7GPCw8ri/anYNBrTEK44bXHB8eI1lIm5Net/zHqJgJP7sD9uVJix0dxsU4rwZ9oUIfHApJ1J2Fm6NHJPAMF2IcfbOb50Er5x89xs04pxp9H0A8mBdaaf8kIbwPjAxPE/cLiUIMHR+9xq0qNVdXArsknsMnkXFjIow+jmaOzh854/wgwcZnPkrwY5I4Rvz4QlDZUaAkDK4iY3jDtvvg96NTlWRKvkFxGUXyC/zC7/BheXxDiRv8jkSXsVSln3YAa9gwTa8txaDvixbRM04j8JRBCavsGAx51sE4J/rD47vnzt9fD4XPfSS4VCOlS556ZZHHSmE0jBZ3tGfk7Z/fWL9BCVPwFzaxOMBEn8XXAZ2kj122GzEuxsEglrxYd9PbQYQYNxQhmdRrrYSFGBbO5x4JlqbG02oGPj6kk3vn63VAZEQq1yA0mksnSANCh4e3ZIO0g7IEN+r8NRh+rwgLz18zfFLHllE3ph0qcb4G0WCcqjJJ8gsKdC6XYcNaWw4KKuqJ7Irq7gdbnKoUf+22ejxc3NCaht77IuDFrf7ihRtMXSttcyQug77C5UdKQ+VzsHzqwssLfJk8iB/+3MUKgH9Y+KG3XBDWh3f5DElfr7lnn45PWff39VpZowWMG2ssOwQUhEkk9pS2paP3bFiypmjPcerf3dVlm5yuZi5eR2eHrZazSenCu4q55Si/f2XJmL//ZQ2QynKNN8axRnzNhzz6WBcNj6PhbU3RboZqAfxoNDQ4T1DLQ9NgUmzGSAEhXV4hR2j2CMnXld01IZc/VzCcsC5Pc+rL+iz5AZ93Wkqq0XEiiJpxVNiIrQ6wbTNlyhQrpF+ErZk1S8qnT9OCMtEcsH2wqqoKM8SZNm2q5OVNUn+3ZsdzJqZ5uXyz23XW9Pcs1nJMe8HkAgujgS0/aMT6X2HhZJk/v1amlJY4wuhzTU0yM9PNEAi4NUhStDstT69k52Rq/rmWptVFy4ixUc2smWa3ggmGz8rFc2yBuezGZ2ZkKvNCkoQxEuUkPR8eZ/VOS5WqmVVmHAXT3BOK6iRvIoia7b4vY3VeL+Thhx42Ax82DFndX3vXXbJq1QrZsOEe239jL4ptlAXz50lNzSzZ9sgjsnbtXWaWYFs0+uxTmzbK/fdtks4ObEUc89rbW83Y53Of+6ylbcxT0IKLlGkYKZHe5gc2a8MptX4jLT1VHtm2Ve7duEFag4+7o2ahEYZFPb1dsm3bZ2Sdpou9CmuFmZkZ8qlPbZIZM6bL3fesk8VLFukzt49n0MgdHZ0yadIk+eYffVlKtaGwE05dy8vL5ctf+bJtwqJJjGGBo+H1aPobtSxza+dKGx+hD2BM9umPE+OWV1oQkoLlVkNDvVXGE/TAgQNy9epVefjhh02tdSghDh08JGfqTsvsmppg+0QZpC0X9VNWWmo2JzCIdGHqLJWA1atWSu2c2RrGqUNIgirETA/Cvfjii1JZWSFLlyzVOO0m8ew8r1ixwspjtNE/MK5b81y0aKFZfVVXzzT7TiR1kkr/ipXL5fSZU6YJ1q5Z47afLD9Vf2YHmSR33bVaFi9eaCYXSKWv/8qVK6WoqFB6NI7tVKBC9Zd6t7a0SLpKY2XFDOs+wjFR5o2LcSbkmieFp99ib6mnp0tbbbnkTsqRd3e9K/v27ZMZ2iLzJuVJb3evHP7wiOTn5dtO9+uvvy7ZOjJNVT3foQTHnIFWTcoQvHz6dHloyxY5cvhDabhab3tjnhhZKiFnz56R53/7vJRrfuzD1dfXm1HSdS3H3r17HdE1rDFbb1jQXbhwoZlT7N692xbJbSqjOrldJYG+csXy5SZNbIgGHHeS2tsn9236lKrTHDlwqM4s0fBnX5Cd+XPnzpl9pvLQiBlySdYorzU1ucEEkQL48k0EUTGOrKxQmqnfxMSgB3M3/FENvkCYE9CibOChFeB7MNhN7tq1SxobmlxapKHhjUz6y9y9s7NbFixYKFPLpuqAgcZQYTYkzjJaW7+GQ9pWr75L1q9bL6+++qoya48xFCYSx0qgEo0Ekwe72atWrVaJyheMijBzqKio0AbXrPmUmeRhb3Lh/EWzj6G3gpmULDsrU9atW6dpa79aVCTzFywwOxQbgKkf2z7e6Khf52XeYMp6XK0/I1+3WayVU0ddAXuDE0HUsSGKdzCvTwtPJem0kaar9Vflnns2yDJtwYcOHZLikmKZpgMVjHvYgH333fes5RcpERiRwjj2+Lo1ndzcPFM9p07VybPP/dYMczDGYUV98ZIlSvg8abl+3aydH922zUwJMDdgMEJ/xz4hVcJcAruYuXPmKBHd5u8HHxyWnTvfsecYCZFv7dxaKcgvUMKmyOEjR+XipUvWl2GzQnpm6KMVfU01xEktU09Pn1xrvi5Tpk61xgSzulWbdOtodPbsOaZqi0uKzEhohqrH6dPLzYwifCrkaeea/fgxAWMhN3fauHGjGdSgLtllblRCVlZV6fB+QF55ZbvkFeSbGqNzhgHv731fHnzoQevHzimjzRxPK9ai8xqYUFlZaaoTYyHsSBoam2Tf/v06CHnACFt/tcEYSNPFXoVR7bXmZjPOgUg9qtqaNM615mty770bzeoLcwbC1tXVmb3IuXPn5djRYzpgmi8njh9XBvTJFJXw7Kwc2b79VWNccXGJ9cvJGhe7FfK+fr3VDJkwB8Ta+tzZszZyPKu/ZRqfQQ0qFPsUDJCQr+rqapNKDKqyMp2ahYl+mjAe9qF1opqAI+6oBSy1UFsw4itf+Yq25kOqAt8zXY+6LNFRHq0QRtAKSRl1lapqikHB4iWL5eLFC3L5ymWrqLVGbQj8wkgkhrzIAxtMSrRw0SI5efKUkxbpl4z0NCMOwOYRgyPyoFNDK5EuRNu/f582tsD0Wx849ZxsxMxV9d3W2mJ1Kiws0vr0mu3M0qXLVNo7zXAWlQ9tSNMlwTQlzeWn3QTGtpSV1SQ0CBJua7haFzTRts88omr4nOx4a0cwTXHP2QHHGno0eo+EqFdOkDLUDsZC6HAqX1JSSm3M/I4O3/oHVSEUnJbuR49GMP2HzicriDQkJ8JoHJa2jJFAA5Ce7wv7bITH5L/PhvIwFUB4CAsBLar7Y/0reQ2mp+AaZQHzSD1ZGY2mcLYhGBu578OaUY+LYmGZcNtIUuOTDzvZ9O3MDTFP4BlpD6mThqOvRhu1qzYgffIka6zFGG2HFe2mETXjKDAtmdGhr4y3njLi0NojxLeyqTfDZyOwelhOEDrsOb83xlZ/witjHbGVgDQGDUl6DuRPw3KxjRjkwzVhAn9gcztutRCWrm0Au2chQFzNy8ezgCQ6HEF9g/yGhNAbaNJrDYIRrAUxazbyvH69xdTleBA14zyDGARgc2LLPsZAH28o47jyKfOXwlvPaB6u5Q4+v5F6Q6Cx7S9wqzYmNhbPlcuXw4cKEIQZhN0H14pwwntYIwSD8YakOAirLWGC+DeE0oYc0gZumZwwrFW2tbXaVMOXORpEzTgPdDw63RsLOTVBJew2BKtUQHL9peg+decbgGBj5Ev8oXUMiKZwjAvPeCjGos0oUYM8RgoQKkMkkK5pmeAercF0gcUAJvHcf2SM8wSihTvG+cqNXAgjuv7a80g0UG/6jtFgKfv0fdjgfjSmgbGIMzrTx44bKYylyX91g8/1l2tuvd9Y6UfCuCUuBMK61u4KFDkuz+mXeE4ukTAa8YBTj5ExFtNHi0u+o8Um5mjEHS1v1ycD4hPO/w6tb7TMmxDjXMahgniMVAi3eDwyJsI4K/0o8ScSl/qMRpHRG41nHCBcKKXwaONhXHjKNwWycBV1fY5V7CacD+8qMNThP9IznD1Th2wM/+docWMc74jrw4ViuX9jxR10I8S131Gcq7sGNRe6BtBwrMY6GqKTODLS/wgPcxLHEBfDHo0SFRA+UmG9/0gVcZUef1z/OzzMWHEBYcYd1/4qA+03APH0h3g20hxDE0VC1KqSJ7zVonlLRnqmY14QnoLYFHuE6IQj3kgYjQAWe9S49teuIwEij4ZRiT+BuAGHjEI+FOmxrdXb06vXH5WxEIXQYLzgl5Odayslg5Nedej7iIzThxR4dOKTwsgYjYAu6sjxPy7GDc7ZoUtYMHYw2GC2VZdxMi6qPg6poaBsa7CcBWCW76CNOfqPwQCFdnehghFsLDc8HPOg8N8h/oEff8KfhTv4Gcl/JGfgd5j/UEd+w/P0fmH+LjWFUgGaBI2A/UAl2piNYjRENzgJ8mE1wIql3GFvjH0wCkxpe3UyjkkC12hvXHdvr7R1dEi735XWZ5aU/hKPBWnW7mznOawyvRqPnW2craRrWOKYU9BAeC/bNRSXX4+Gs7zUsd5Iar4cOP8unK3O07/YvQP18LseTF98HNJhLdPC2hCfMnOCkjPXsCIrLei92InDEY57dkVQi2RiE2511GMiTANRbeuQIQuwGRlsT7jBSUlpie1hsdrNqgD9XsHkyUZsrlll53nN7BrbySYcb3BCBCQVhrB8hjkBUsTWCdIModhtwK6DlXu2gQYXeYPKEy4zy51SBLAUy8jMsPew8/PzbXEXJpFXOFh8Li7i5X9M5XiT1JUlh5Mh9B9lgsHEs/Klp0tubq7t0lNv8ivUOmIUBbtQe9BFeWeAYdAGyWIvkgbhG7c1PgVWb+4lR7uNCpQ1uv04rSh7TahKt7g8IJ//7GPautvk1KlTZs20YcO9smTpUjMhoCnCtK1bPy2TlZC182qNAZcvXQ6kluWzFHnggfulomKGHY1hR1Y0NtqqzANbHrCNSc4fwZbk6NGjFGJQ+u666y477OaDDz4QTupJTU2WLVu2mNXZzOpKzTtPTp48ObjCw24Ca4QVM6bLv/rDr2qZz2p+l6yBcVoC5Tx67IhcV0YQB83BMVCPbntEKjXO7j27NZUks1TDwImdBWxleMedfUJoA9uQJWtkmu5jjz1qa5PsBdq5KgHzzCZmAoyLXlXSgPlRpkD0mVWVdnAMxcWvoKBAlixZbNJDxUtLeUc8WV54/jkp1GcY46A+qBiFn62SuGjxQnnppRckPSNV1t+9VtUmh9ek2fkjdXWnlFG92hgWG7Pduij2HO4MlRUrlpulGMxk7ywzI11efeVlS5vjmtiysWapcVgfZH8QKzQaEedwIX1ebWEQxD6ft51EhBgBYmq4aNECi4+pRnn5dJk7d7acOnlcZlVXmTGQO7PFKVfSY3O4tbXF8p06lZOFnFbweSn77He8iJJxKAF/SeHQ9Z3S0nzNWjPEOnzkcCARYi+vc/rAc88+K1WVlbYwXVd3Wji0hdbYpXGx/YAg77zzthzVuDQE4jLi+vWvf23MwbyNHWzUDQ0CaaD+H3L0lKpeTCgwPILgz2sDwf4EQ6Wjhw+7MrsE7cC1hx580Pqlo0dOqfqbZFLAS/XHjh23XXPS942QBoEBEhINqWEGdW7WcJj1LVm6RAry8/S+SeMZVTQvwtBQdNjf2yONTQ08UEA5J212FQjAeBEV46gMzjLWAkBUbtwuMcVmjuKsfenv9EKl67pJ4Nr168y664033jRVC+GpJC0RUwCzUE5OMaYTNyMjzU7mu6Sq7MD+A1JaUmpSCPNsA1VrTljurVyaZ0dbh5n/bdnyoHxw8JD88ulfGfHNYEnzKS4qlrtWrab02m8Wq2qeb/0rfZaZBmo4ntEA7bQGxw0bvkMq7smTPDguY//eXWZktHTZMhvM8IyyQAkkDz/KCqv8iX+kaPTD0aDGiagYB3zBaJe0PjJnZxomWGvTyqHTacmc2zVt2jR5/PEvGoMYyWE0tGrlymDnPEmOHD6qYbO0f3nEDrbZv3+/9V30Uw+qdDA4QXVSR+xRlimRICz3SAfEwmG8g2Hqo9seM8nGhoUBCuHnzJ5tUsac87e/fUGl3p13cqW+3tQefStpAgYgq1au0n4Q9Uc+rkFhclFSXGo2m5mZ2crsPmlovGYj5RyVXAygMIbiXBPsYKhLVWWVnXlCKzUmQboAE2EaiHpUST+DRRetk+v7N2+2o58wEmKfDmAljAXWDK18UxNqNFWuXK630SYWx0uWLLWjnhobm6S1DYviPhtVYqOyY+dOqZpZbSfPYZLHGZdI6Btvvmk2mpjrcYAMo0cogTpyxjrTVLrblaiZZozLwIS+tEYJSfxjx49BPxskYOvCewJ79uwxaeekIOwjGaUe+uCQbLh3ozKwS/3OmpQzCqZsGC8xSsQ2k4Y5vbzC8nzt9TekuHSKjZgxQ0QLMFBDC2Bp1qNTBwyP/FmXgIZEgxsPTGCiWTkxxmnlMF3gfBPUwJe+9CU5cOiQERNGkgo2g0gmlaOASGFmeqYSIdVacYW2xLpTp83mQhNVNTKgElZikoWBbXZOtnR39WjFegMzvm5jRpWOLHnhhJFihhLB8lKpQ2Vz6A1qOlX7Tw74pD6MYGk8EBfjJNc3ou41vIbDbgRDIvwpFysSGPzU1s63E/muNTXaACyFMqo2IS6rRTCI6UGRao9GDcModJJKtxvyKwWVhJQpTemBGeGxYydkx46dOkJVZqqKp9ykgXoejd4jIeolLxiHsRBDfDcgTbJRJPOnZi2IlVhBoX1/YL/63O/20qr92Sg8Axj/8MoR9xARhnFNfvQ/TLDJl0aDca0Hz/0ibb82JPozRrIwhNEkRLbTf/TaXsywkBpPL+h/zMhH06bYqMOQAZKbhzmj31CdCE/+lNEMX9UPTlEn1wg0D/yC8OSNGR/nnGEsZPYvQXo00o+McQDVkaetC3FVXtiwnKhIG5WNBAgM/FPPWA+fOyCJILiLoNeD8fQhafE4PCcLHjyzy+CehCCk+Q8mqpfD0gVODpwP9fD5gNCT4DpIO9x/JKAFSMus0yxdorLQ0DIhxkU1OCFDWhb2ghQC5qH+zLZfr4c7mOMlx+41DRxDd3+N8wQCGiyE4JofHCrLhx8en/Q97Dl5EN7nH/hbqCBouB8LVD698HyCoEOvg/TseiRHGuo4GBWJ1GKoozyo9kBaJ4CoJY4CIV30MbwHTmhiOoSuhifjzOJGT3tEaDSkLTJoQEqVsKyBZ+S485wgXP5OwiiC+3VGxBgL8SIK2zrjKd+4VKUH+h4d7gnk4NNxhbxl0KSYI0YC2dCyhzMuNuAYFw4/1/P0mSDjADlEn0g441whRqJg9GnHP+gigssAnlET0QjD+rjxEZaMhzq3HT/cfTIxnDZDaTz8PhqEMW7ioBWN5BK4tbiljEvgo0OCcXGKBOPiFAnGxSnuSMZ9EgZDccG4m2EEYVhGYpWfXQcck91YHdVOZCoAwibg8Q0Iwa4FL/azYctiOFsnmP2xXjlRQsUShq2cxDMwTOqTsrIy+frXvyZFRXxwqU9+/Hc/kRMnTtjm6kQXdWMJUe8OxDIw+OGEIYyHNm/eYBJ2pd6ZAd5J0uZxhzDO7Z/1dHeZZdiud/fJb37za7N3RGXGIuMm2u/eMX2cB0zCqoxPdV5vua79250ncXdQHxcClaEtm32k3tyJavKO6uM8YBpq6A7k1xDckRNwpMy7OxV3JOM+CUgwLk6RYFycIsG4OMUdwDgbR5rTafgw56YHd+IQJS4YN3yVIcSQm2GOe+r++TghF6/QCfi9I9c5JuGJPbTYvEKFlTW2/UwDYLY7NBT7f42lk9bBl7TjHMHKSXwwzpE8jGnKHI4R7rbjcbUyaSmSnpoqWRmZ9oIINvu88cq7erwIAmN53SotjVedgK+2k9pQ2rEPe3soHhgHSe1FDaCtrV8ZxnnIfB6lonKGfVplRvl0+y0tKZTMjFRp7+iT+vpGe5WZD7SfOHlKjh45Js0tre6bB2m8cqVMY5XFmJdg3C0DBTOmqaOwMtBv718X5E2S1atXyn2bNkpNzTQpKMi31714MT8rK0NVCWeTcMi22w3n6A7erztVd0Fee22HvPXWDmloaJCsnDxJUinth4Fh+cU6jHGVtbEvcRS0t6tDelT1rVyxVD772GOydOkcmVVdrYxyx26MiKB2rH7xWhiHB+ze86E8/S9Py7u79xmD0+18E2VenCyRWR8Xy4xjgIHraG1W5ol84bOPyBcf/4wsWrRI+yqeayBKP5aYECYIx09PT7+9/vzii2/Jk0/9XK6hPvOCr2YB/Q2uYhIwLqWgmHfAYw8wjK2ZjtYWO7vkT/7NH8vvffWzMm/eLPUPeMWfEZkWcMojuOQnWVtBWVmJzJlTI5UVVSqBe6WxodFe+ud5LDMN8HaSMq4yJhlHq2pvu64DkEz50z/9E/mdx7dKSclkujnHgzCe3IhhpA+/DeNMdnaGfYqlrGy6vLtrl3AcVXpGxijv4sUGlDSxNQH3qhEV2KfD+J7OdvmjP/yaPP65hyU/LysIpRiVaYAAEQJ5r7BHqNytD2+Uf//v/q2kpSbb671jJh8DiC3G2T83GLne3CQPbrlfvvzFbTIph1MU9Lk+5OXT8SKSIJFfenqSPLpts3z1y49Lp0o5Yk1esYyYYpyteOhvt87RykqLtF/7Iykuzjf/0RwH5Ix238s9+jG4ZzLunvWrL+/v8Z2ddPnG1x+XxYsWSGd7qxLGze5iFbHFOMioxOzoaNPR4+dkwfwabfyeyEPd+fMX5bnnXpDLl+st5oULV+SXv3pWLl6+aveXLjfY/fkL9So9AzoJb5H/989Py4EDnMsVnhb8dMwsn14qv/uVL2qe7viOWEaMDU4GtLW36Uhvmvynv/hT7ddydPIVPApDT3ef/MPPfwHF5dDBA7Js+VL51refkB/+8Hty7PgpOwrqxz95Un729z+Vk6fOysMPbZYXXnzF7C4xkF2s0wnOQImEqVNL5fU3dsilS1d0oJKlJYo9sPoaUxIHI1jKum/TvTKjfIrzi9DXME04d+aMdOrgpf4KEif6e1kO7N8nJ4+f1DR6hW++HTiw345NBFf0eUZ6hh0K6g6huRFIX2Fhnmz99EOadpfzMMRehxcjEucI09fXrUPdfvmTf/3HUlU5FQF0GEY3GMcJrZz8s3rNavsqZFFRqRw/dkL+/M//o32EljnailWrddDxGamoKLdjrLCxXLhggUybXubSHs4Pvccrb3KJPP30r6SH04lS3CGlsQQ7v8VaVYw4joKalJurRJ+tt9r/+H9cD3Ocrsf7AFPKyuy+bOpUycsvlLlz58vkyXmaRq3U1i5QN8+el0wps7OhOQjO0uDfCP1nVcUUY3ZXV0fEcn7sTsseU6qSc7s4K7moUPs2BUV0CF0BTtt79rnnpaunV5555lnze+qpp2T37p3yvSd+aPc//slP5a/+8s/kb//2W3b/2ps77JOcb7z1hjEsErwAZqQlS/mM6dqQ3KFqsYiYYhxHEVbOrBTGDUOlYOg9k/TzFy/IlYYGOXv+vPlduHBeR5gXtG+rs/vTdaflrTffUMY+I316z0dx66/Wa5gr1gzC04vkZpRPMw3AdCHWQPlT8mOoj7t+vdm+wH/v3auGyVgIEBXGTcorkNTUdFm1cpnO9YrsFaslS5bpwOJBHRmW2f26dWukpHSa7cVt2rBeMrNyZP68ebZnN1IG3nvfoSPy2mtvSnb2JC1ebI3hXB8XY+AlRDCShoJpYNasWfYi48yZNXY/p7ZWqmfNVn93P3vOXKmoqpFv/P7vSuv1dnll+2s6yZ6kc7Vye24YRQ0OvizCwuCIzejjQ0wxjkNEORn2ZvCtb31b/ut/+Sv5/vd/YPfPPfuCqslT8syzz9n9M88+L8d1TvfWW+/oyPIh2fXe+/IXf/Yf5K//19/Y80hMUyU56N16vU0bCTMmfEbh8MeEGGGca9G8y3b+3IUhfc1I7u23d8r27S/L++/vtfs67dv49viZs2ft/sTxEzaIOXjwA/vOQHZ2jrzy8gt22np4OuGOYvjrK1catK913yiPRWgfVxE7KycD/bY6//jjn5f01LCVQi4GbxyKiqdIdfUsefTRR40xefmTTUIWL1kkZaUlkpOTJ/19A7J27XJl5mV5f/8B+bROrLdu3Sqza6qDVIbCZ9GrF//357+0RpRh5yiDYQX4GIH2ji3Gaf/Vfr1FNm9+QKaU5DuvwT9hv4qS0lLJ1T6Oj8Hz9fvcSQVyvbVV5s+fJ2kpOkEvLpYe5QBf2v/tC6/Iww9tkQULF9jgJDvLHbcfDt82yOLSlRb54Y+e1EbUaxZjKoMEiRnYRmosMY7N09a26zJLJWLZ4lobiA/yKox2bHT+8pe/smUpPvQwr3aO/PjJp+Qnf/eEnFMpmVxYLP/8z0/Lz578O1Wpe+RrX/uiRkqWc+fPyqmTJ6V27pwgpRDC89rx9vvyj7/4J8nKzjYpji220b/F3KhSW1Jyurz66uvS1ecIGYlofD/74IEDZsF19Ogx89vz3m7Z/vKL8vLLr8i+fQfllVe2y2+ff0bO6/wOAyO+mdN8rUnV39kRd7g9415+abutyjBYilXEWB/HR5L4RsFl+9BDZXmpeQ9KXXDBjIBTFjraO3TutkTKy6dKVlaufYTiC49/QZYunq/9X40UFRbJY4+xPTRHBpJSpLGhXubOrpHKygpLwwM2wkv6jmMnLsi3vv1928NzajJy4/k4gapMqphz902Vi/mTjbxuCzwV3W976zW555418r3v/HfJcB+ICgUJgJpkm4aPLvEFSb7P09DQpMwrtiMykJhL2gAmTy60b+3wWbPLly5J4eQC+2bA8PSoGsz8z//tu/LUz34uOZPyNNuQvWUsway88otiQeKgIlqbXy2USh1LV8UqMYsW3tgfAd4L4BQhmOTvc3NzbOcA8Js3KVeZGjxPSZb8/Dxj8iCGceSNt/bKt7/7hEon3z9I035vGHdjBDG5cgJSlWh8VOKJH/xE3tvzofMcQmQvB87Tqz3H9tC9R/i9zdMinDJ0ou6yfOe7PzIT9bQ0b+k1JNOYgkrcjNjp48IYwlc7+OLiqZOnZenS5ary3I7BxKHpk0UYMy/Vt8jf/O/vyc6335XMTM1HOR27LHN9cYyoysjgI0tndRSI2fiCBfO1f8ozf98fjQe21qnOx7+sTPsf//Nb8tIrr+lgJNM2Tm9bV36L4OZxMcw4iMui85mzZ+TIkePaRxXIzKpyJzGKiRL4/f1H5Dvf+YFsf/VNVY3JNorUXN3DGAaNL6YZB1ilRwpYftp/8JC0NLdK1cwayclOdyTWP8bAMHpzGc7T4ayov9qiE/TfyBM/elL27NknKSppyfYJteExYxMwLmnGnPUxX1JUg/T2S1d3h/ZBqTpPWyz3rF+lU4b1KoFlw7usiCDM5UvX5PU33tRJ+uty8IMPpV2nFEnJqZKsI80I45WYhb2tEw+MY/CbrKVkN7qvt1t6dc6WnzdJZlZXyYJ5NTK3do6UlU2RAlWluXm59mYqrxS3tLbZJzHPnD5jXzQ+deqcbao2Nl5DlCU9M1PTTFHHjkCQWRzA3o+LB8bBOv4BRlR9vT0yEBispmek2YuNk3TOlp2TYwvIbA/xTdSOri4dmbZKU0OjmeVhLMSkOkWf8044pidMO0A8fY3EMW72ujhpayFlyGCdhVYkhXOXMSQHTLpNrSI+6mAMKygD9hHANO3HQmuPoUr7dOOEDApUZWzuEkaEKbTgl9V8frUCOnBhlSM5mLQr+2xdUrlkz1K1/0pTlZis6tPFcy4El2a8IY4YFy5zntyemf4ZUsiV+x3qQuHC04lXxBXjRoaXmtHcnYU7hHGfPCQYF6dIMC5OkWBcnEIZF6kjT7hYdvxLSFycIi4YZ3toCYSggpdUXrMW+YtpwLjbZ6gUf4ibJa8E025Eoo+LUyQYF6dIMC5OoYxzc4OEiy+XkLg4xR3LuDt9JHrHMu5On7QnVGWcIsG4OAS9QIJxcQpl3NBhZsLFh0tIXJwiwbg4hTsLIuHiyyl4lyLis4SLXQcSqjLO4BcWEoyLI8A0+MaLLry1NGhP73iZQKyDM1vsraQknYrjImvUhIsV56St317sTKqcvcYW0hFDzvbwb7UkEFuASUhaV1eXfWo0qXja4oE0XvpLCU6JG6Yv43GV3W/p+LIPv48V8NLliNAiU24+WcPbuP0DfdLR3il9/X3uHfBJRbMH/NF+9rpu2HDFLuOQcbYKC3zZh9/HCny5IoAndsq+D6O/fbzurLcMTJJyC2fZE55Tr/C04pFndyI8S8LZoYyrDmNVAvEBkf8P8FxrKSuYpj0AAAAASUVORK5CYII=;" vertex="1" parent="1">
          <mxGeometry x="425" y="119" width="110" height="213" as="geometry" />
        </mxCell>
        <mxCell id="u6fXfUsRiq09m7yTQ-iY-8" value="Load: Specific Data Set&lt;br&gt;Data Ingestion: Different document Load (PDF,JSON, file etc)" style="whiteSpace=wrap;html=1;verticalAlign=top;labelBackgroundColor=default;" vertex="1" parent="1">
          <mxGeometry x="8" y="347" width="120" height="100" as="geometry" />
        </mxCell>
        <mxCell id="u6fXfUsRiq09m7yTQ-iY-11" value="Split into Chunks&lt;div&gt;LLM: Context length&lt;br&gt;Google gem: Context length big but other having less&lt;/div&gt;" style="whiteSpace=wrap;html=1;verticalAlign=top;labelBackgroundColor=default;" vertex="1" parent="1">
          <mxGeometry x="150" y="357" width="120" height="90" as="geometry" />
        </mxCell>
        <mxCell id="u6fXfUsRiq09m7yTQ-iY-13" value="Convert into Vector form:&lt;div&gt;Document Similarity search&lt;/div&gt;" style="whiteSpace=wrap;html=1;verticalAlign=top;labelBackgroundColor=default;" vertex="1" parent="1">
          <mxGeometry x="287.5" y="356" width="120" height="90" as="geometry" />
        </mxCell>
        <mxCell id="u6fXfUsRiq09m7yTQ-iY-15" value="Vector Store:&lt;div&gt;For storing Database&amp;nbsp;&lt;div&gt;Vector Database&lt;br&gt;FAISS (Facebook AI Similarity Search)&lt;/div&gt;&lt;/div&gt;" style="whiteSpace=wrap;html=1;verticalAlign=top;labelBackgroundColor=default;" vertex="1" parent="1">
          <mxGeometry x="420" y="345" width="120" height="100" as="geometry" />
        </mxCell>
        <mxCell id="u6fXfUsRiq09m7yTQ-iY-22" value="" style="shape=image;verticalLabelPosition=bottom;labelBackgroundColor=default;verticalAlign=top;aspect=fixed;imageAspect=0;image=data:image/png,iVBORw0KGgoAAAANSUhEUgAAAWgAAACVCAYAAAB1nmCmAAAAAXNSR0IArs4c6QAAAARnQU1BAACxjwv8YQUAAAAJcEhZcwAADsMAAA7DAcdvqGQAAFZCSURBVHhe7X0HgFxV2fYzfWb7bnqHFIp0IfQk9GahWhARhU/88FMUsVE+y6dSxIKAIgI/NpAikCC9IyR0KaGl0UN6stns7tQ78z/POXOzk83WZGtynuTszNx77mn3nOd9z3taoGrYDgU4ODg4OAw4BIufDg4ODg4DDI6gHRwcHAYoHEE7ODg4DFA4gnZwcHAYoHAE7eDg4DBA4QjawcHBYYDCEbSDg4PDAIUjaAcHB4cBCkfQDg4ODgMUjqAdHBwcBigcQTs4ODgMUDiCdnBwcBigcATt4ODgMEDhCLpHECh+Ojg4OPQc3Hajm4WBJN/yxc/W2DiNgUAAhUJvvvaup6V9tBeGg8PWA0fQHcInlBayUGEVqDAHAkEUeDkQLGrP+QBCwRByXs4QoK6KBM13Oh9BPbyRxs1QA5797ATywajW+1QchXzbzwWL6SiFn55SgjZ5UTi8pHvBoP/buvYgf/Kfz+db+dP3DQk2EAghFA6btHqe8rohSsson/eQV+EWc6l8+HGlUinE43ETp+DHX/q8g8OWAkfQHcKSgg+RkCGKUNj8Lq+owPY77IBELI41q1aioaERa9fWY926RkMygshvQ/IIwAu0VeRdIxhDffTaOoS2iFQhdiVUJScowiMpKq1BChpLzq2Jd0PIn/wrrxv6E3m2QdChCP2BBJ0rXt0QCiOXIzkzPBYzhR8o9Gz5VVdXY8iQIZg8eTL23mcfRKMRzJk9B88+9yzLvcE8n/fyjqwdtig4gu4AIhURrIhamnFZIoG99t4Hjc2NePnll5Enmeh2nvfky/rtGKRnug3JS1dR6PxZHyLo1miPoDdi8vZAsu05tM6fj67nsf0wWhCNRpGkRj11r71w6qmn4u9//ztefuVleHwvgsrEkbXDYIYj6I1gSUSFki8EkEiUY9ddd0ZTYyPmvjoX8UQMXsGjFpg1/gRpmqFukU9bRd7zRKIQuxpq53Q4sCEiFmHHYjH89Kc/xXXXXWfIOhqJtim8HBwGAxxBlyAQCLOLLPosIMLGftBBh+Cxxx6Fl82QfgNF2zO70cZebDU0H8E2NeDukHbPwxB0F99unvka7BBJy2VzOWMCOf0rp7NjEMJVV12JSDhi7gmOsB0GCxxBF5EnmQZJ0GFqXPvuuzdmPzUbhXwOwaAG2kjZGrgq+hWBt8bGw3EO/QmfjDWoeMKJJ6KysgI33ngTiTpsCNqRtMNggCNoIhgMI0ulePr06Xjh+eeRSTcXG/Dg1yodLFnnPA//VzR9LF221AwoCo6oHQYytnqCVuMdOmwE6oYMw+tz5yIS0WBZx7MXHAYf9J71TmWjvvSXl+Ks/z6LvaWImSXi4DBQsVUTtBrsXnvthRdffBFeIIggS2LjGRYOWxJE1NlcFuecc44xeSxfvszMX/dNIg4OAwlbLUGLnKdNn47HH38M4VC4zalrGmBzzXbLg959KBTCxz72MUzYZhvce889rsfkMCCx1fXvpCmpmyvN+ZlnnjHk7LB1QXVAC1pee+01CujH8f3vf794x8FhYGGr0qC1CrCyshIjR43CgvnzTSN12Hrh26UzmQxu+POf8d9f+5rTpB0GFLYaDVrkHA6HMXz4cCxcuMCQs2uMWzf8968FLmd+9au49tprTT1xcBgo2HoIOhTC6DFjsGDBgvVLgd3AkEMpvvyVL+PKK680c6dd3XAYCNjiCdrvxm43ZQoWLVpUvOrgsDE0m+O/zzoLZ5xxhjN/OQwIbPE2aG1ydNihh5nBIBG104wcOkIoHEJdbZ2ZI710yRJnBnPoV2zRGrRHLWjagdPw8CMPO3J26BJk/lpTX48ZM6abfacdHPoTW6wGLTLWHsKNTU3Ie9p9zmuXoK2S5AjcoQUS7nf/61849thjzcChM3k49Ae2WA06GApizJgxhpw71p61A1rrTfUdtnZoCfjxxx+Pz3zmM2aA2dUPh/7AFkvQu+26m1mIIHLu2I7oGp5D2xAxa460jtxytmiH/sAWSNABVFRWY978+aZr6hqWw6YinU7jnnvvxa233urmRzv0C7aYWufrwdo6dJ9990NTMlk8eLQzyM+WaV8sBApmI/5Sp2sOXYPMHF4uhzPPPBPl5eXOzOHQ59iiCFoNKF5WgYceegj5fMuRVFsr2jpYoK1rDh1jxYoV+Mtf/2rGNVyPzKEvseX02wpsPAhh2rTpbEga+NO+zk7jcdg8+ISspeAODn2NLYagtV2ozhR84vFHEcjn6QqOnolSO7w+tVpOU8ikDarHIafrmkamLr3fjZf9taGhYf2zpd173x7r72dSem9LhPK4bPly/JVatJe32wQ4OPQFQrHyoT8pfh/UEI3sve+BePedhfy2dc9ZFaGIRMePG4vysgSamxpRUV6O6ppqDBs+FFVVVSirKEdFRQI1NTVo5P2Rw4ejlvebm5pQlohj+LCh8HJZjBo5kmHEsba+HpMmbouclzUzG/L5HIYPHYrq6ipzwG4qmSrGvmVCwquJZbNkyRLkcrniVQeH3sWWY4MOBJFMNsPLbtlE0RVIo81T0/vbX/6MlcuX4Jqrf49kcwOuv/aPWLRoPhYsXIClS5djzJjRWMjfEmh33HkL783DP2+/hZpzPb7znW+irDyODz5chBUrliIej+Hmm29EM8O56veXM4487n/gHt5bhuXULn1Ne0vG008/jREUWFt6j8Fh4GCLIeh4WTlef+0VRKOx4pWtGzJjhCIh3DHzDgwfOcz0MLbffjs8+8wz2H///YtaYAChUNgsbx4+chT+ecftWLFqhakV65qaDSnPmTMbz7/wHDK5DI4/8QQzM2bHHbczdv5YLIynnnocJ55w/FZBWuppXPG7363PqyNqh97GFkPQO+30MeSyaTdHoQSeV8Dxx5+EZctWIRiMYP78t7H7bnvimaefQSQcNjZku4Q5gOXLVuAznz0ZL77wEolHdmprhz74oEOx+x57GsJfsnQpzj772zj11NOQzXrs8icxY8ZBuP2f/7QRbsFQD0EngZ933nlbRW/BYWBg0NugpcWIUMaMHY9lSz9SSyre2bqhUnjmmWexcuUqvPXWfKxYvhLvvPMuhg0bjnL2NpqoDWp/ksbGZmOvfvOtt7BkyVIEWZZvv/0O/a/A6tVrcMihh2HsuPFYt24dCTtjeiivvDIXoWAY8+bNZ5d/FIYMHYrl9L81YPWa1Zg4cSLq6+vNb6dFO/QmBv1mSSLnfCCI2pohqF+9lL8dR/sQeegEa83cCJqTq7XpT65YRnnz24e+SkMMUbPW4gx1rtojn1INUpq1oOXQWwNZKY86HuuMM043v1VmTqN26C0MehOHmkZ5ZRXWNqwt/nLwIeLQobgSYuIQa87QtDvdtZ++y3u6GCA5Wz+Cnm/LlUKzG0qn520N0CyYgqZxmixvWB4ODj2JQU/QgWAA20zYhuTjrxzceoii6xDplrq2oHJzZdcZJKD++te/IBKRDd/NiXboXQxygmb3klphRWUlAgVLMK01PAeHnoR6Co88/Ij5LvOGg0NvYpATtJJvV8ppJeFgpmabkw1dW5AY6q5fK7ocegIi6MbGRowfPwHamMvpAw69ifba9iBCAPWr1/BvgZkJ8nPwUFEp2arht3Y9BYXUOY/4KSl17aEtv1117eWrtb8WtJRFR8/3DfweWk1tLbJuRaFDL2PDljAIoQazetUqBPlpd9Ls3wbcPWhwLcwkh5FnunMkolJXOsvChzrVOWaxtWsLXif3S2FPldnYbQybrs1xbWFjf2Ezd1tuw3fa/yqrBMZhhx5s7NAODr2JwX8mYSCCWKIMqeZ1pDtlRbr0QLcNUtfX7IdwBJWVVeZ71/au7k20x+Ktq0cX2L5TtFXl2g5Xi2Wam5somXIUxgPjvep93XPPv3DMJ46Bxgl7srfj4FCKQa9BC5ryZJv8wJc10g7VwDWwWVVdowskZytY+te1h6766w5ah9l+uDpZu65uCGKxMv4aGNVVvbaKygo3SOjQ69giCFqLJdjxLv4a+AjHoghHIgNGI+xPiOx8u25b8O9XlFcW/W0RVdbBoUsY9LXdb9yiZ30b6OYNacsV5RXFX4NHqPQWujwgGpDWas1BDg5bC1xt72MEjYlDg0uu6LuDPEVvPJ6gQHa9DoetB44l+gEddekd2oY/yuDgsDXBEXQ/wGmB3YdZKGrgzEIOWw8cQTs4ODgMUDiC7nNIA3RaoIODQ+dwBO3QR7BzbDZ0Dg4OHcERdD+gvwcJA2Zhedt6vH+9azp+a1/6bcnXxuE73Skl5v7Nf09As3EcHHobrpYNaIjcCvCCcaTCQ7G2ahJWV0/BmspdkAmF0VS+LZoqdqDbDqt4PRkfiWAhiECQBEnXFhEG8jnEIyHEwh4/AyhPRBEJBZCIBY0rj0VQwWtV5QmEgwGEAnIMk2mxO4G0DHCGGFc6FENj1U5YUrk9llXtiIb4aIwbMwJlsQISkQLi0QKi/DRUntdyIp/EFU7XiFpPKB35krj7ExKw/vztLs/jdnDYBAz6vTgKCCMcjcPLJPlr4G+grtNNauqG8LNz2VgIkJBIamsTE1B53OVYFy4zZFVeCOPDu/4PYz/xbSQDFfTHVxhsQnTuTHw8+yIWvf06MpkMCvkQfcu1IBTI4rFHH2Q4WeQLIXPG4L777YcnHn/UEE80HDEnpHy0dBnOPPPrWNecQjajwxAsRVso7RIdIdQdfSE+qtkTqUCGYZeh4ZXbsfyGU0j0Os2FfvhQkEnYbqcD0NiURaIszudslQtqoyiF24UeRYB5VPrWrFrFz/5/z08/PRv7sdxUFiJoN3XSoTfgNOgBjAAJVGcJbrPnDDSQiEWo2nckKzLIp+EVAkiTJNOIkM1JWrEynH7Gf+Ggafvy2QxfboEatSiwBePGjeVfEi4JNRgU8WYRDueRiFOrjgLRkEeNWlqvttQsw69/fRFCYZEPtXmjLVpCkstWjcLKmo9jnYSEmDjvWRpnhMGgVyTSHDwlLRzEvLeeowZPP4UcwiRcRmPSp/MMOwfjNNW1RUw4OGzpcAQ9YCGqi6FAbTZUPgoFarZmBWIghlSIKmmYxBwMIMM3mCXTpcLVSGY8s7nQ+T/8Pg6dMQMR3guT/EKG3CzKyytIyLxGwgxRww1HdJgs+x5ZatxexhB9Jps039PpZuy++8646qrL+WTe2F1LNf9cKsUaFGHYHtNUg2Zq0NSRGS6DyefMYbWhUJjhkZSZ1kQcmPvabCMMgiToPOMy5oJieB3Bc8TssBXCEfQARp7UmifJUccFuRdpupzoUIxKggtTzY1G7aGtIrogmbFpXQPiJPLLLroYxxx1hCFPa5yQFixQA89lzU5sOkRWz+lsPZkZwmG7v3E0GjXfTbiMcfLkibju+qsZZ6bk7EeGxHRkGEZeJhZpwtq6mUQsy0XEhKXwPUPUntRoQpeffe5JPmvjFD37KesIblDOYWuEq/X9AN9E0BFEWgHRcUHmC5kkdKwXSS1IIi7apjPZLNKZPDyZDUicAWqueXrPhzNozKzBeed9B5/85BGGBPNFFhQhF/JBEi3D8yw5y2ySp8abYxg5fk9nCsjosBASdID+I+E8pkwejyuvvAwxCgRjWC7kDPUHkEQoH0aC/mJMT5hELJuzJX/lkxo6H8kxLvF3lC7CLy+9/AwKIcYZyiPNfA02qEfg9yac/dmht+AIeoBC9K2Xo1kZlc1LUZlcjsrUClTklqM2vwzIZFCbqUdVbi2qvQYMC6xBZYCacSRqzCKBcAQ5Eum3zzkHHolT0PVsjnp5KEbujfEKNfO0TBf8XihjfGVmZkYkqM3xC/AyFBFZko8h5Dy2324HZBmvaFn24DD/Dgk2YnhgJaq8lajIryZRN5OcgSwFiwYvGYrRqAsUKOR0KdXsF3iIk8Q9L4VckAJGAqcTSEm36P8q6wvXAMvTwaE34WZx9DGkUdYOGWq0r441L5GAjn0KYx3V2XSsknmVsUPkCMSRQV72XYYRMqRMTXT1aoTpX7u+UQkmQYdRGYsinllH0iR5k1DCBdmZrVP8oUgMa9dR+07UIRmNUROXYSWIoJfDmPIwmhqXGiJVuoOhMkRiZUglSahkTGnEy6K18FJpoxUnk0nUlZcjmFyCUCBJ4RIxwiAcKWfceTRSAFAewMs1G8KNhhUGKZzpiFILbw+GDvWH/tasXmW0/f6ECHrOnKdwwIHT3Kb9Dr0KR9B9jO4QtEwTst/eestfMXx4Ja9lSZ0FEmQGnzr6BDzw0L3UUnPGPlugv6uuvQUvrZ2Ipyr2oS+gOhpAbWoxVtxyLirQRLIPYqcdJ+CaP17OuGVP9hAOJzD9kOOQP/EmfBQdYbVcpmtIrgHbPH8hbr3hF/xJsg1G4ZFEZ8w4nJpjGZOXR9Zrxrx5z5HQlVo6Rrr7Hvvh2WefRoxKuekBMCVZvpYxux6F4GdvQH1oGNMsWgZq3rsfFXMuMU9rRorOlWwLlqDtNLt6CqGBQNDPPDsH++13gCNoh16F66MNWMg8wH9Bz0xzkz06ZJwlLM2A0JmlsZBHwsjRZXk3i0yAOrbmS9Ot8cqxEjUIFGdqFMi+GrTLy6ZthBk156Bszx5jStNDmv74GczwetLEqWdkapX2HmRcobBSYCHB4P/y01Xwsmb2iDFJFAk3kOcdpivPRNh1hewb8FazpuflSM4e89eyXd1GKKXtDrz1CUTOmikjYtZAaMdC1sFh87CFEPRgy0bXWCZIOlPO5PSEmTPMHzJ7BEIRM79Ymqd07ZBlRJIof5kbeX7KkcjNLA5f07NxW2IhwZA8zcyMPOMqUN/l7XAwVpxhobjsGYomThKytG6YQT3NzrAzMBSiH0OQpEW+LZKqvas0a5AynCehS1Pm1fJ8I0K5lHnWrlS0T3SG/iZExf/8889j+Ig63Hrrrch5/avNO2zZUFsZtJA2d/DBh+CA/Q80v6XdlLqBiNLZFJ3D5kEnW5t1IJrSRvbTs8qfprlpNZ9eY0HkmpOnFsIQoQZJwPq0JhXFq1cue6+uhUx6PD5jtFyGFcxHQEUZKRJpMpVELke9PGPNIUqDZ7r0Srt1/rcWkIB9dVp3qK3LJBEMBxGmUAnynWV4b3WY2nOmmYKG6VHaWoXSFpRvzT7pTygNhx1+GJLNWXzuc59HNKJ5KQ4OvYNBTdCRsOYBRw1ZaUGET3r69L9vCchlPUhR02SMdDqPbI6aqCYUkwmlSRtNWFaLLLXgfDPiSNI1IxZKIRxIIaOVI0Wy1wwLQ/LUZu10OwmNAKLBNKLIoDKQRLSQQoJhlMXLiiQeRCqZY5xRlJfLFm7hkSxVgaSwZzXuyCKPkLCamrKGzPWsyNcIh6xNUznDLmccFQF+RyPvDa73pLq2dMlS3PDnG5CiANuS6pnDwMOgHyQUOQUCIinfrmoJeqBCGm+dGSS0hNkR5EPeKsuiaG5aQy03i3AkRs05StLO8Ts5OphHhMJJ4TVmw0iWT8DKbLl9OiX7cQp1+Q8Q8awsjpHXQyHZm6kVs5hEnskcCT46FB+GRiPEODK5KCZUZhBe+Sbq6mJIJusNkSfKalHfIFIS4edJ2EA8rql6SaatgBiFZSrjoawsjkymCV4mhSjDz1EQeIFKzIvsytznEA9T2pDB0xQMoxrfNEJW8687MnOIyNWDWLVqFYWCtPj+RSgcoNBUOjp/jw4Om4otgKBFFnLq2tv9IoSBStLdJegg//zzthsxekQdiUlCiCSczOKUU76Eu+66g+HJfuyRGJO45PKrcdChx2DqrjshKFsv+aM+l8ExRx/DiOMKDZO2GY0bb7yGWi+1XJaRTBbTDvoEqo6+BCsrJzI+D2GSeWV2CYbP+wv+/qefMyEZhILsqQRjmLrvDIQCCV4rmKXgHy561tqe6YSp+x+NmTNnYsxwzbMmeJOyBNvudRgqTvoD1gSrEbVyFE2vzsLQ+bca4s0qve0QrympAUbQJmMmZZ2/RweHTcWgNnFYqKG02F1FOltSt1NETiWUecqR6JLIec0k5TRWrlyBpqZmdrPpSM4m3yTjQK4RESRJ400ohJoQDVETJolIO7WbF+XNXhv5fJLk3MSwPTNFL1U+Fs2xIVgbG4mVsRFYkxiFZHPaELlsyNlshlpxmgTeUraRaKw4F8T2XTQ4qKXmdTUxZKkRe/yn+dmaA601hI35SqwOjsCKyAgs42embAzzlKMm3zHhbjlv08GhewgaAhigrmtQ81UD77iRD2aYec5FElOxBAL+znIaLGwZMIzHQgiTcLUyLxckIRdX6FmCI1kW0ghHpYmKUu2zKjdjPiBJa7KdFo1oHFGbE+UKWTODw8RtwqL/EuGnXej0a/2b4hd/8yUz00MDlwwnHJbur/Tq8QzDJkK8E9I8b4XRvvbswxe6QXUpBgRMJu3XAQqN+7blHAYPgr7GORDd1g5fUJlZHGb2hUw5/Ktd6MItgsw4Q1wiObutvXWavmY51dJgwRCiINuzDU+fntGMFU6Btwskdz0fDoXMe/Dj0GZMsahMJRb+VDwfCtnMGGGQ9G4gH/LjMS45kyYSvhz1bHNPzlL9YIDKS1CZ+OUn+J8ODj0HV6sGOLQf9JtvvoVccUDKEiv42+ihhKHFDZwVbvrk8yQRMx+aP7Qqsam5uehP4WjbTxEqNee8thvNUbElOUv5FVMbPzZMOyBGotXNIjRQmW6xLhmfVlP3vysdRSHBTw1K6pf06opABuXZlfwlbZ7pKz7RH+hqzFZQ6dM6mz/r1gskU/YDBxJ8WqHJfo35lLlLJ+X4Tkv7u5p/h76HI+gBDDV27W/x859fTHILIOcFkckFkc5oP+coPz0SZpCO2mley6ejpLooMtkgUmlqrrx+7LEn8C2rCVoief+9D7H4wxXUwsvgeWHzmffYUFkV4ny6MpBDWY7kWciiKZlivGG28jii8UpccMGP0ZxMm7QJ4XAEF198hWng0iVlg06nmSZyeJLxZxmuZnzoeqRQhkQwiepCI4aHk4guexnLX3vMJsuEMLCITRAhs7MCdlYouEhkFGDDaiuwz1674eDp+2La/ntghyljEQ1p/xLNTiENUoApN3L9D6YrKALOUZg2obIihimTxmP6AXvjkBn7Ybedt0NZghTgZZg39mZyMkQNvPewNWPAzOJQY/Ax0LSQnkR3ZnEIRmvjU/FYBKnmpFnYkVNjIjFHoiJYK2MDJAdjcpCWpM39+VwmlST5amm38WLNICT6MDXpdDplfutWKBJHmgSULJDgSa5Rkn08lEM0mDJxqaF71LQS8bgREv7rMWmj9t3cUM/GX06Kp5bsRXk/j2BY5G5NJTIFeHRrUI2EToXJNaMsxPvS4KVxd0lPsL2ANatXMw8tWnxPQG9i4xqnaYQi3ByqK8sxe84cDB2aQERFqLv8o+JsaGhERWWFIfILLrwIf/jDNcy71m6qnyCn0Pse5h2EWBeCGTw9ZzYmbzPGbKAlQaplSnqH6oxJmGqa/I03zcTZ3z4HsUQVGpu1OdbA0t1K30//lGj/YEAQdGuyaiFoXe/p16Gw+y/LXSdo/76fXhGrGjyoReu0kmCbYVhbtIX2eW7r/D67T7N19rfsxKRXkqhmVJhNiwIyO2gAUU1afqyJQw23tQDVQGJA8TC8PAWHWD4QyPBOzJpQ+E+zUHJMm36J3LQrR1fJS7FpwFNzrbVZUlt5ag/KY+v0tg2fkGSi8YxgilD4vffuQlSX23s+KbeValNkxRsnnngKHn38SbMfipbi9z4oGP0BYTJujIJb72D2U49hyuTRLektFoPEsspE702QUNZsmlgsjJ9fcgV++asrSNoU1l0qt55CMf1yJsEyycgwY+G/cf0eWKLDwt8yV9sxhNlWlI+82oq5uukYMAQdLGqCgohFoNJm7vU07OwFhW8LtS/RXQ1apeKnV9CeGGb/h6KG0xFx9iU0aKnFJp4o2Evzd5hNLmrmYiNPjZ95ELkpjdIuuwOTQzaAIMOXBt0dgu46lCaVnzTnAnsLUSyYP5ckTQ2z+KpUvP73jpBszuCd997HtIOOYnmoR9Hb78UStOqUTCy5XJKC7H3T0dDGVRvCDvq2BaVSYwo6I3jylJ2Rzbb0vnofLW3RvgkqJBT2omjVl3QxH+YNSaKUQPnpahm35Xdzn+dFc1iG2qLIOVK8rZOPZGDaHPQrQSuzOUr8aDSC2ppa81vO3tMGPTqHb/My2Bray8HT2Xt81avX1PNTA2Aa6bJd6N5Gdwhamo7kVj5np8VlshmzGZF2UdP8ZF3zeM+QYT6EWLzSmCKUD+NMKL0Pc8IL2SCbzZr0SdNfG6pj4w4gmVMVFSmEUR1qRtRLmbS15F+fHZdFXxG00qlZ3bF4GB+9/yYFjrU/+0lVukNdeG+CiO3VuQtw0GGfUu6LV3sPmj6npCWoBb//zlwTozbQas3PndU7lbW2h21qymHKdjsxXPaqNIjQ67C9NZnCmlmX84nhGL7bkaiZsBuysSpEqU1LiUvz3TfR9VXd7gqC+RwKqSZ4TfVY8/bL8BbNQcKsR2hi+asdhuhaBFB30A8ErQpi986IREjMdbVmT422oIrd0z1EKaOkZPO9YLROVmHGsWLpR0intad076KrBG3uF7KIUjK/NfdJZPh+jQZKt/0Oe2LRWy+aayJwyZUb/zELl//uGqSSqSJJB82c5t6GknnRL36Eg6bvQyGRYfmGMP3gT6D6xF/jvehOaAqUmXzUZN/Bklu/j/FYRj+WNqydU+VgzSjtwVTtPiBoTTUMhTws+2ieqSHS/q3GrBQUzQImzTb9Jumd4NLf3oBfXHSpMSfo+d6CNOhIJIxF815HBYvcL1krdFrQWb0TlHet/nx17jwcedSnKWyK+e1FZINUQGQSio3HHif/GovLxph6IxNRKpQwC58khHTiTxeKvc8hNcSeVO+hMrAO6/4zE+vm/AU1ubUU+R7Y7231JrqG3i/5jSByjiAeL8OIEaPMDme2GknKtHZMnipHTzqTZRGC+iT61PUA0zISw4YN4++BAdNdIiP/4AffMfRgLED8YlIfyJmZETIihHlNeysXMimc863/wS677MD7mtesjfx7hxBsw7cIsgj3P2A/avRNKORTCBbSxnYrFVLvUOlU+tPhUSiPVeKmG65DPpvSHfplxSVhdFUr7U1I0wmTke+8/WZb3ky36aCSVLVXtYSK3f1ab6BrkAb+3XO+gqgGG5lX2+HtjXeiMAv4rzO+hPKE1folWGyp6m+po09lkJCloC2hoRzKjP3xPbbHbrvtZASib0rrDainpdPgh049GaNP/yPmxyeiuRCBtv1KB2N2nbAZc5FjLgakk9qn5VZhrCtUIrPbaRhz6nWor5iAMvUwjWDvPjbtqc2AMiJJX1tXV/ytJKjabux0vaedwtXsATkbh2DvJRJlrdLVv9BJ2KNGjzIajTGXK5lsT5r7IOhSLpBG1hxf5SGZbMJ1f7oC228/kV5zdHYGRtdgG/mGrm2IrNaXHCufDgzwwDQEGB/J2XSL6UebISkUDRJqYUo4l8GEUcNxO0nQHARAAWJ92Ky1B3NPsz/Mr96BGpnnJbHvvnuY+Izls1WiDJnZm8VEdQzJKXl75OF7ETaHLvQOQYs8tTr0lz/9Ab/rt72uPNn3aJ0f83d/8GP89nfXGeGayqaZqg3riPz5V277583moGDtM951+HF2DuMrFELV5P3hffw0rAyNpDDXWfIyd0RYryQUbdwdp0B3S33Y+P2rre+2wN6xw9dy+tee3/bhP+PxT1bcwZe/pm4Sxp38O6yIjjamG2vm6Gp7tOgXFho+cgQCIW3sTqnDcjQmLkloOiVIrrsF5KN0FkPp986hWEOorKhixW6pFP0NDYisF1csJ5MqlRVZ287koF6neVIeNWZV9Dgw659/wa677sj861k7L7c9SGAaZ+KQs8/4Kwvl2oPVvljt8tJxJDZCRmv0SM6ZbJ6hRHitGI5G5BlmIlbA6NHDcOedtzDd1vbfWaVVw7EigSnsKDObCAUpgSHBIe1TUxP9Zqr4fCfGPvvss9eXi2z/+vzRj37EMhBJbpgPPcLsY7edJiDV3ECt1paXud6DUBo+/9nPGE0zbFq04tHflnEV+fnzn/+OocPH4/4HHsI1116LytoReO75l5DMpPnOpAZsjJqqKIYOrWOV6/gdtYDxaZm/OdTBxt0aOhjCHg5h7zcGa1F79IXIhIawR0jVSTsvqsx5T71o03spOrVTXdvY8QHmUXUvx3znTdjmpfG9UDQWna7ZcG3YVmRKdPo1UX6syPL9dMW1wNZWwyCFLNZUj0Po46cgQ2ETDDKmUq9dQDe9bz4qKytNpfFnahiCYZmYiuVlEeMXj13gsGyObRaFnE247/S8ruszwvDi0SIxMB4ti7avoMX5RV/qbKNTgwtj5MgxvMYQdKvfIB1Y23RS8rJimfyINJkmf8aLCMEvEe1eF2EeCtpgn4rsTX+/Hvvtvbcpa5vv1lDm1JDy7BZHUR6PYMzIoZg4YQzJpJ5lqUUL2q5U8donfGjKm55WesLBKCtjmNzF8iOBySyT1eRaPm00RtOP1rvU6d0h3mPV57uvra3FX//6F2ObVdn3a1EzbZqeNm3afsyx8rtxaamsjzzySPz73/82PRv91iIile9NN92Ez3/+80WfrWFzdvwJxxbnlNv30bMo4NJLLzakIp1EqVe6zOImSszX35iHEazTf7/xZrz7/vuYMWMaLr3kYqxevQxnnvl1jBs3ER98sMSEpDAEv20prJ///KemnrTcbR9+bbPcq7rZXl7lR6GHsN1hp2NVoY7kKiFv63Z3SsjUcfZ+huY+RDTdoCv2uvlk62CQEo5+J0AmNduilEKbJ71y+9rtAKTK0abEh653LVV+GeTzMbZHD5VTjyVB++ZTG29XsWEaehmq+CLotswHo0aPxJNPPsCK/Gk899yDqKmhP1GUSsoUorQBK5VV4P61iNmcR1mWnSyHxx6/kwWTQVVVOXb62PbIs1utWQZyoRCfLX4GtMJKo0BFaS/tQ41T2rxO/TCvrRvizieanoRW+UXjFbay8I+0SCWpEKmg9iahJkktemRlYO2LRanBam9skqoq7R+uvsLMkNHMFf1uDXWNc7k0fvPbX+L5Fx7Gpb+8CFf9/jd4+525OOyw6QxPvmz5mM8iFJINTQMjUSSYxlyO5EuXZgF6VEOrAjlUFppQobO8c+tQzU/JlZg2dNLpKvQzfvx4lJWXmZB6C1bwdv5eNGDdkZKoGSqzZ8/Gf/7zH/OuX331VaxZs8YQ9cKFC3HbbbcVfbaG7diee+657Q6Gt4eu1icJxqoK1YSNEY2Gsd/+ByIcTeDiSy9jPvXetVVs2vQWfvZ/F/G9RHHEEUdSePp1RJ+2MDQX+qCDppvvgtU1N4ZMhhLAMm9l1cYYBMU2/8k/n2JcRoEVTJsrbisQiCM/fjpSrLdZ1g+ZCEwMqufGc+dQOQ2LNeC+88di28BSpiSIGDXpeJACkfea82lUMHKRZlxKRcBu2BXiu5NCJ/rQKUJqW2E9rd6eSIYunE+ijGWmQyw0U8mfQtcR5MX3lkOU5VENjNVBziqAjnu0rdHnszgmTJhIDUzShQVQhF7iv5+4G/vtO329hv3AA/fiiKM+je223x5vvfkmDj/iCMyaOQvbb78dpf7XMGfOHNxz7z3YdZddccopJ2PmrFlYsWIFtbIrMGvWE7jkkkswZvRovE+N4Yc//CHKK8px/vkXYNKkSWhY14hvfOPbuPnmm/Due+8goyOd2B03aRGRsYItXryYZak9k9uukKVQBZFW61Fa+o2qLUIUNHDWlVkcepmq8CmzD3NUs2lZoQpYl80jFvFQ461kTZZgUbqpPZtN+4MkSR3uWjxdhkVs5iazy2gqXEmcil8Hxv7tbzcgnUrjjC9/Gb+67DIc96kZOONr38BVV12Fr5xxFl586VWGRalvWlcpBdgKj0AMa3JhpokEoSgo3FLZBoRTASR5r4wkr0n8QU0VzGdRHmL6Ga9oKxwJYu3aZsTiVfzVUXnYuiIBvGbNKpPvjqC8+eaGcCRs3ktHkACMMd0ffPgaH2a5scxMF7XkXf7qV7+icImx3nyDgjPEOncKjj/+eJx00klGk7766quxaNEi/P73vzfP+NDCH9UEzf4YNmISsizHoA7Q7TC/FhJea9eupaCMrc9Pa9j3mMeSJW+ZUjK1uFj39IS0xbqho7Bg0TuYutc+Zm7zwQcfij322AMXX/wLTJ4yybS13XfdBfPmvV5UflqgVKZZfCNGbcdvmpXs65Et6VcPTjppgfVVn54ZoA6SGKMU0EmWATVJHUpsfNqesQ0DSIVrMeTMWVgVGW4vML3+vVZJ2QhKgR/Sd48K4OHbZ2HanpPwhzcnYkp1GapyizH9iDGY9a/38GZTDD86fiTSfLE33Dkf047aDk/NacSI8nKsXfI+GgNjcdyhIdz7eBqnHx1DmtX1b/csw4GHjkDDR8vMKtJbX2C7CpSZ2T1dhUwtEb7z7Ft3I/rQ+RRKrPvtcENb6KwMehQ6DdmHpP56x5dSVm7NHzl20UWY1VVAeXkMu+y8g1k48JWvnIoota9fXnYxzjv/+2ZP4xA1xZ/9/Cf49jnfogZwGIn8dbCd4Sc//j+GGTIHe/7615fhN7/5Fc4774d49NGHMXLkcJL+ZJxzznfYNb3caBIbgGRi0X4hKr1qrDoJRMuBpX3F4wk88cQT+NjHPmYbDd3mQeaZIMbu8QnUHvsHRD5/AyKn/Bmjv/wn1HvVeOXl5zB37rN4481n8Nrcp3Hhhefih+edjbmvz6H7N15740m88dqT0OZG7aUlSOL/+O6TcMbp/8XKHmMY/4fdPn4wfvvbq3DaaV/FtX+6uoN8kJ51r5Ll+bmfovwL1yP2+esRPekaxPb+Fp5/Yhbef/4WvPz43/DKozfi5cduQ3U0g38/fj+e+Pf9ePyJe3HPPbNQZwZlu15hTWepHWgBj30n1N3INHpHV15xpSHNjqe5kVQ6If0XX3wRhxxyiMlzTU2N0ZhPPfVUY6pJJBJG8Dc1NRV9bwg905TqREgwfQq31J1w/AkkzwfM2EJ7sHmSOcP+bg1d1oZbansLF7yCu++5lwrMv/CLX1yEd95dgEcfuZ8CJkUh1j7rqE211AJ927BOFFiP0mVj0FixDRoS26CpfDLWDd8Hk//nH1g77jA7aMZnROOlMDGq/UurLPCTzvpscfpd6lpCYPswylOB2m0OB+0IfJjYCccevzPKKQzGDwNqIgtxy+1v4dYfTMAuNc146aG7cePMt/Hpw7fDLpUMr2kxvn5CAN//1FAMjyXR/N5a/PGCGK675Xk8OHsxPrVjHJ/aFWh+9x089HwTtfKIOWxiw1y0D/mLMInqFYweOYG/E7zSvTMslec+gyqTCNksQS51vJ5qZob4IkXQ+m0Gm3LsingZNDc18ppOkVbXOI977p6Fs7/5dWoBu+HnP/spnnrqMYwePYINU4MEEgRaYpw3z06fsbu5HqG2NrROAzsFLFgwF7V11WyUJlVFJ5gLRDu1vQilT8QuQSLtTJ+ywaZSKUzYZoKxUdqGs+nQyw0wM+lwFO9Sw1ydq8bKbCWWpSsRipaTvPnyqB3KY5Afzelm5of6NK+rOcupDDvqVu+2626Y+a/7We4yE7GLmlO+pGEdQY3wWpRTnkpz88cLSiHS0UBiOtmIFdHxWI4arEAVlhYq0EiB1cxGox33pG3IPq5WbmZ8FLLIZemYN/G7XRWm3LYPDdmYlXLGX/tVVge46l0ofEFmCaV/6NChRdNa2/HoXWmpc3vQc9KUL7jgAuN32bJl+NznPofrr78eq7U3CHHddddh+vQWU0Ap9Ew8rjfSMerr6zdwSn+YvaE6CoGO6pN/a2Mv7Enwmpb2U9fBjIM+icMPOwz7778vjvnEkdh2m8n45tnfZbnF2dPYuJ6otNovlRZoPUFa7dqwKMvea+TDDI9fQ2U1vK+xDL1nhaa+k69Hs9fH9x+noqUxKF2xO+/JYKL33X6eBenj6rYNCzVjZ0Z34w8mYwQTPcx7W1Y+1K8NYklgnAll5doMPvOZT+KWH03E608swG0PrsIRE3KoJu/svFs5DtmrArNfm49d6Pdv352Kn502BjVjyREZ4P1MHVIYYuOT+dDE3jnUc8yytyiz0DqdBBTQKfZtC/H20H5t7wW010CE3/zmWuy334EktwCOPfZEXPG7vyHDfsZ+++xrumkVVLFTzSmMHFaHT3/yWPzql7/Ca6++hi998VQcfuiRWLZ0uSHIjI7b40vWaR8inTtuf4ihK5sBLHpnjSENkZA5HUSXi3Oh9UL9wpCWpm0YuzP3s7GxkcR2sNF4egqs89QOWAfZwHLME/nTVEjWdkghk81QaVW6lf7WLVQ9+44bttVcJFzMtqT0a7S9xmZ899xz2XwYne6xuVinUmyButYaSswGqBXQn8pbZJDn9xylhjQjzXfWgoO8l2VYfkNVueo70+2P3Jhrm4dSM4Cf78t+dRlO+sxn0NCgwaP2UVlRUfy2MVQmN998M6ZMmWLMG9LM//a3v7HBf2Z9j+++++7D6aefXnyiFCqXIJ5++gUTTntoy4TxyCOPGK191epVHT4rAaq60tqLfsppXvro0RNx+pdPw/Il87HDDpOonR+Lj5YsNLOWJk3a1vQC19el4nOCPtfUW4HXHoJeM6oa30Flw5uobHoLFan5iC19EouuPRWxef+izkgFZj2tsY7xr+IIs27ks2lUeGv5vmwN6IyUfRi9O8D6xXK74KvV+OQvHsfnLl2MEy9ZgC8dvg3rVgqpEDmA/7TB7oydJuDamXPx+f9dhJ/+zxS8szaML35hJ9x4xyO4emYOpxxET5VT8Aar56mXzcY3r5mLFxd+ZAwzmtucyYcp7JQLv2Q6h2lbfEbCaNXrT5BTFJpy3nV0z3cPoC1tTMm4+dbbsGDRu/j+Dy/AeRd8HTf94zakKb0uu+wKfOELX8HJJ5+GIUNH4LDDjsdpXz4Dr78xH83JDC66+DJ865zv4Te/vZKVrJyN5svYbvsdzC5jc+fOx69+fSV23unjmDHjCJx44sl44423zanT6gp/8Ytf5ydVCyP6lS6btu6e1iy/amDqRpbaoTcXXiCLSCGNhOyY7KZ6JD2zF5EqZiFDrUM6iOZ6UOOgCiIboO0VKE3FrmmrtCinqjTaeOjl/7yET1GTyma1grJlxkaOasOzzz0lamWJ6J9tNn6JGGFAaPAxxzhTTJtIWf6CJOtgNkfBkqWw1VQ76Q/q3BZJZH2x8ofK3QhIoeerot7Le+++Z3penb1PCXfJCtPVbiMtd9xxB+viZea7/ArqRb3yyiuGsD/66CNzbSOwXFTlL7/8SvZouieEVq5caeppZzZ0laX0X6VaufRJRH+1F/iVV/4Wzc2NePXlF811HZOWzaWNAH74kQcYR4S90n+Z9+NDX/2fs+c8xTy0X37qFUvbCbB+Bqk5hwsJxFlny/KNrL8Zq+yYvCsMlW8xfP6Ms3ebX/gA61TSaJwaPJTV3jpL2qXO5s86MyhJJeEfs97F29GDsDIyBu9443DXK+/guYWr8W6mBnn2QL5zwyLctzCJSHkBnz2oEl+7YgE12wpcdP0SPLt6Eh54I4Uf/OEt1FPB/8rFjfjiEXtgp1oPr30Yx43Utwrl44xiVGA+FW9XYWoS67jpmzS8z/LJsY0q510PpedbxSZAyY3GEvjwoyW46vdX47DDv4CJU7Yzcxo/WrYGN91yJ+obmo1b15zDDX+5GctXrmNm43xmFX57+R+wYiU1JP5ezN9vvrWIhFVmZhVkcwG88J9X8dTs51hAMaxrSrOysGoWwli4YDHJSd2uDYtB3cvukKz8yrWlBW0OPK2iCkaQNdKbSaYL5u0ZgQVP0xOZbjYETacKs/wKoSj9siLTn8hGPf3WNnaRqj0DkM+HInj/3eW47dabzVFYmtGhLSpF1rNnP46zzz2fmbO6T6kz5cUwMvoViJm9o1Vcqr55auUSwhqhz1Ll117VkUiMGjS16myB2iYboA4HkD86Txs/9TvyFEoe5s9fvJ44lBsfb7/NLjMJSNrzLrvsgqlTp5r3XV1djdNOO81o0a1XoRqzTPG7Zkvcf/8DLBtbej2PAs76xnfXv5+WWCgUWRFOPOF4LF++hJrwKowctS2Jei5m3nEXho/eFqec8jnMm/8GJm47uvhMCxSOxOePf/y/rAY21JawS8D3rSpVYI9Og8lG0zR1TFPTJFxUlgrJ9lZ9iKy0j8Vbj9yI4dl3eVdlpvt8tkWSbwD/qkkb4wh5YTyxfBs08oJmYmTIAa/U74W1GI3G8HZMSxT/WTYJyUIdnlm9K65+YRg+CE5i8w9h9upRWJvYButCZXi2aQc0hmqwmsR9xfMJPLZud6wN1+HFxQWsTEfYItjuqBjpKLhNgvZf13a+pjy6jj6bxaEKPX7CeJYsXwNjNPYce6f42ZIMSeQ8Jb+6zBuSZ0uj2TSocFmJSAylEM/58Sebm7CamovVuDbxZXQAWdi6ut2oF0ogmKjDqqpdzPmAoDaSoMYQXvoqpk4cRi1A5ZQ1tuY1DevYHlIYPbwSUdm9mKnGpId331tOEmQGDYMWdUNproqBH/lcE6697vc4dNqeeGHumygrK8OUSRPYM/k9zjvvfzB5x70RCVfYBlgkGKVc36QtrWUHtr52f3ajm6k5ZZFCAhWBeuxYtgKVMQqOXNbMi5b2sWjR25gyeZLR1DSVUQNzby/6iJ8dz2owb0HPsOLYvTg67nJ3FyxFZiiPigSF9sI3jR3fzDlnnKWat777QtgnbP3W99aw9GyHxRa9uwQHHDDNLN4RScnCakuxZyBTU5jvfNlHi5hGG7IVqy0QcXosv0gkgGkzDsfYsWPxjxtvsGVLKAcaDlCd8Kum6pWyVjt0HIk+znYrnXvzUVpaageFQBhD9zsFDbudicZIDSlMvVDd7biczDRcpkk73alOGU4vepc8od7SJs/remv45VAKhbHeq5lqSpC/SqpEh9A70PiLml/ynqtRt+gPCFMgpbr4vNBnBK1BiDFjJKWZZSNhbdfZ1ACD1kXEF2em4pW+zp6AsquaKGlvs24rpR3kW7N6JTyjVdOn0QJ6FiLoIUOH2YrZwZs2BE4Nd+huR2DlqMPNVCdpI7FMA1Y9cS0mHnM2mtiVzLLCqMkX3nsU3zh4DI4/7mCSokw07JWU1bIxHkUNj2EpPFvri9B3iUlVvDziiZBZMSb++eCDj/h8EGPHjcF9D/wTU/c8gprvxqQoIZBMDEP1tLNI1NXUaOiHQiW/dA5uOfco1JQzDmrlErYhatGfOu443HnHHWb+tjQRle9JJ53CVGiD+/Yb//pSYqbshv09S9DKvxqTDtx96t+PY9JkEhJ/lxaX3lWpUPW/t77uQwStMtStiZN3RgMFqHqEdopdzxK0WTZPDe/SS3+B0049mQJG+5toQFZx+PEUP9ttTlJciu1BDYLQr6/+97dx++0zSWq+EaU19W8+lDIvUIlRh56F1PaHYHVkLC+qfbbUCc2R9rGedPmgviubrdPkX1/vt4j2st/6eWFDv76PYjm2QunzKscIm1VEiiB7pA1sxxXL5qH5zjNRmVxBsdJWbG2jvfT2OMoSmmLCxJMBtG/AusZ6rF6zEtmM7Hm6ptVZLc6SozIiAil1/vVNdXxeti5+mm4bvyuu+vo17AYuI5mp8ft++w9KU44acWOkFisqd8Wq2l2xZsgeqK/bFWl2lz6s2BUfVu+MJbUfw+KanbA0tg3iZRGMGFlL7WgUxo8bjZqaMmo+HVdJkYXmgDcngfc/WI0PF69huei5KN57/z3MmH4UkhRcbZFQgVpFYy6E5JDtsXb47lgzYirqa0hG8YkYNbQGNbUJDB9WY6Y7DhlSbWfSUAgM4T3r6hCPa9pRx2WtmNtuFj2D0rAPOPAA1gEKLqpkbRGyPtu6vjHs9Vl33WdXHK731p7/TYfSoHnHF174v4iyjFuSVBpXsYxZ9UUgvtN126NUH8Y63+/KlQ2YNfMuhGRb5h37rzuQ786fUIy5QgM+eOw6rPjX5ZiQfZ+KiGY88GlWXzmZ7OSMply8ZvJZ/NT1Uvjlbci71OlaKyeE+aW1Ez20ONmT5Vpft065yFNQhgLs5Wpx1uLZKLz/FCrz9VSY2JaHDUd2m4PQzLbbHfSJBl03ZAgqK9VNpjRpaCA5rzNalWxyqljxRNwMtGiQTd3G9RKcKVMl8n8LtjKqkbRc6w5EfKVzXpcvX26mZdm06K2quljYCtyz6KoGLZ9pJqd8ny/j/UlfNpVAWY6nVyJ9z/cRPf5KpAJ2XrlKIjfvQfz6sAzOPPVY0q36JtqLGdh19+ntaNCdQRHKnqzuZqx4bUOog7MqOgbVJ12OtYFqPsFuPwk7985DeP1n+yMaTSIiAUiPGsCcfvAhePSRR21jomqTZcU9+ujjzBmLHWnQPlRevaFBm+RQ+Butk+naaacd8dgjd5vrQulr6moRarrnmvp12HHH3Uy5yLwg26yZ6bI+5J6CegCWILQf9IcfLDAJ0LL7NrFB01HmihlcX/W14CmPMeO2JXFSc2a6dU350P4ZJcXRYxAhNkbCCHtlaGbc4VHboWL3T2P42O0R1ows9rpUdho/8YzytiFUN7rSXo0waMmogdpWjJc2+a0wPVpqXr96FZpWf4C1c+9HqOld1ifW68R4bLvvKYiMn4xcvBrv3X0ZYu8+Xnywc/QJQftkVPoptFWgpffs7baKbfOSXIzCoIUofc2jJey20re56DpBszIxPbGpX8R7251hVhHqmfLcKjTOOhdlJ10lOW1KJ8wGlJ1/Ly47zMNZp37CzOygvoGUF8Luex7CXgpJkj67mxu/nCQMWw+AKqx8yEM9u6O1J16BJcGh7GSraxdA9O1HSND7IBRNmWn5ymYgEsWB02bgscd0UKwGFUmJXhBHHPkpkoE2ztqANdqEyqt3TBxMn1zx/atntc9ee+CuWTebE0mKljCD9jjPh4hY5NbY1ISJk3dCKJxgiLJbqvw6z+PmgeUfDqCiMoF5b/zHiDzTgWr94jdIhn9T9ZF5ZTI9kvs2Eyebg38LmkJpSsc+ZH1vWBd6BBJg6jmzrMzfRJVEJhMjrZTx5jMkUsWrFLTOEK90o636HNNjYHgyAend69iwXDbN9ipDBgVaSOa7qNiF1zQ4rrbp56Nz9HaNMfALr/SzvQItvSdiUGFu7EyZbLIrRUs6rKnDj7/lev8hrql0qbWIstuUY8KlCGtinSSzFn3IfF8gmUj7j7BlaVaGhgHtYA4rOuuCPS1m02CLoCNBEkTUS6M2mKOQsI3Wb7qhYMj0jswULEKLd8w2pQzKvgNqSSTttgbYegqqK6Wf7UF3lUMrxNioWH4v/Oc1jBkz2eRHBG3vdwx1zDSj5rbbbsfOO+/O9xHjb39QqbebmsKXuSqMtQ1JDBk+ER8tY09VcTODfvrVzd8YVnhrNt/rbyyk5jwR2SxLIhTndWn80p47z//mQCYl7Q4oARPXXi3ZRkSz9Yjm1yGcb2L9SjMVWTqzhdhGTr2frrq2nt8sR9IN51Nm3w6kmda80qmSY3xehkoLr3nrWPfTLGn13rtekn1C0JuOtjLSm9VkQ3TWsHsXEhJ5LH3raYzPLsTQQgOGoQm1WMuEeajw1qAqS5drQGV+LcoKjQgVZ8gYWwhx/IlfMIQh4tlUtCesFGqImlaC8WfeuA/Ds4sxLLMMNbmVTEszkxCjp5ghO60qM6Z9VtkANbJCPopcLoJly9YgQ+1emkdH0F3fR3dy4qe7q8JW/iTs1N/IeHmkcwWMGjUZn//8V9iwSWASeC3WsQ2gGJ7/z+sk9Yk499wfUovWtb5rXr7yItOhZKWE9e577IW99z4Mjc1MNxMoV1qAKnbVD2nNCxctwfjx2+HQwzQvntdJ9Co2df9Lne70BhR0qSuF7X10DKvMdc31PETTFGShqPkUbD78wmYbMn+7jz7fLEmZ6Tp6pzJ0PQ09H7/katem2dEnW4h2p0uGyrFSSyQDYcT4/itDBTM4F0nUoOAFzFzueDCJYZFGZJpl3wciUU2LUsXoDqVtCvJmJWEmwK48a5Lii0mAhNPIZZpJaJryR72B6llZebk5kkuasz89zcuTWKhtd0Si5i0wG92dZqd4Fa7/2R5UQm3d1eCZNC5+MeMjmlM+dc89cfJnP4sTTjgO7733Du6cdRcu/eWvUV5ZTVLW5lrFhxVnsbH2B0REWoGq5fieDvGNBDFu3Fh88YtfYtqPNWV/55134sorr0J9va0zgl9f7IKKjdFbLdKhbTiC7hD9R9C6r1NIpM8pvbJj2Qav31qfxxbF+1pXYlc46boaJDuCJG1tkGO7UxuqfAzVmBlKoW6v3zD1178vG3hHsFujS3OTtqU0tMCkSOSokIsEKVIQMZfm3f/eGwTdE1BNMe+Czg4iM61Uo0V8SrPKSIN/PV9TNh8U4eZ9BkOsJ6wjWQpLpTmbyZgViva9FDXrNtqErVMO/YnusGUPQS+9q6630FZcbbn+hSFNEq66yjpSKm8G13THErGZ7xoOQBvNaE8CDW7JVm00UvO8D9NMjTM2YOZNtr6QdjIyc2ipzfrko34vW63/RHvQfbtFawIBpiNGEohTWmjbU+2+pp0GNUJltpalL33qEFsbTUvKhI7IuT/hE7OgNOowXjlrGrBWRi1c6A5saH0DM+OCPQClOcMejF/M0Zi2/1Qe1MPSP/tGWjuH/kc/aNBbN7qjQZsWJZIIxpAn6TblqPEEo8hQQ64IJpFlWIWQ7LxsbNSOwrwWy2v+qMjD/l0PqcmETqqJBDTCrHuizkBxxZgG9fjdy5JkQ2bps2zH7c2uUGjaZSAfC2CtV8aUxIw5Q1P8qkMNyGTrKTzsXtZKn8c4NDsgwgfV/Tak7TNGJ5BfRdjXGrQh6OL3UpgSKSa9WKxG+HQF8t41n5uPFnurjdHWh41jt2nvSBw79BccQfcxukPQZptOusbocAz75AVojo9Bin3qeAx4+45fYtKnv441Xjn9ZVEWbkbhjccQfesOEmEjcjmdWKHZHDYeaVKCNgz/y/V/xPY7TjGEqvsHzTgYDz2sXfg0cm8HmpYvX4GTTzmDRO2TlP5a4l/fyDXyvttnkZpyJIVDNe9EsOrlO7H8ti+ZjZqENL3Kvrn7HtP4SQ2e17T2USF0dUVVXxB0a3oyKWvnHemqf0dCRu9KZ/qJEDWgZT+LHlpBz3Ut1z0LU59MzBvH7gh64MK9lQEKtZkc344XyiM4bmcsSUzGykAV1kWqsU5H6LDLujZUieZYFZojVVgdHIFUtBoXXXwJqisjpEBt8egZG7Vesn/o5vBhQzBhm9FIZ5qo1SZJyJp1miXBypCinccyCAU197SAbbcZj+kH7MNrHjVvBiQzSlFlFFEXEqMRJDlrY5plqMOKYCUaAjUm7Vrgongj/KE9foP5NGbdcQu8rGZ4kMwUn8I0NnIrPNqDDk5S2k13vChoeh6WaA2RBbUkW9OxZAoKWhMS0xoQCdPpuC4taLFzWq2dv7KinAJIW6qSDLUyj/f0XbvJaWm7OZ5M4Zu4+gqaNuohntBcZplmPDot9BAp84ohZg3WMm9FZ86bLDqViUP/whH0QEaRiybusg+aEbMzQNnCtS+H1NIMG5jmRmvvZRQi0IGsOn3mwX/djupEAFE2uDBJQcOFIgZpe7V1NdA5jkbDDUgTFenovghaRESCogaoaVpaKviTH52HI448pDhHVcSlqUryE0ATJUhzsAK5UBTaNkGbwvCG+RSpKU7NBRXByxK93fYj8eBDd5s0mnh1z5CAJYr+g43/6GOOwNS9P44f/vB7pifx8isvYddddsJ/XnoRmWwaT81+EnvvMxX33XePIb7XX3/NmISyuQxeeukFsxHRAw/eiwMO3A/33H2X8fuFL5yMY475BKqqqmxUfQwd+aUNsPQyMuxVXX/DDcU7wD/+cSOF9XjEo1E899yz7HVp5agj5YEER9ADGCJDqjVoymrze9IIOUxOJgO1uECB1JvXIKFeYwg6IDSbXmdMAffffS/K4tSkgyJBX0u1g4H8b8jatwErbIVAPuentGT6pLasWRoJhnHe979DkjkUiYTmNisMJctqWzkzSMaGzSjMHGGmRcnWlqiCnXliZ3kojtEjh+FPf7qKfrWhk0TOQIAth2gkgqefnoM77rydZUxNM5dFQ8Nac7hDeVkC3zr7m3jxxRdw1113kcCD+OCD93HWf5+Fr371q3j33behE1AU1tNPz8bIUSPx/HPP4cEHHySh39vpgQGbD/MGWzkL7YetdEUoZLXKza8LMsf86U/XmOmPv7ns1+YFyqfpddkicehntLxFhwEHs2eAiLBAguNvjdfJwqCDKKX9qhGFpf3mSJokx7x2nPMyyOvoFXq+5+57ECWpSuv225u/F7SBb65QcIa4qdPqh2zL1KDNysqiVn7Ot7+OadP3Ivmm2D1Ow8unmb4Uo4mjQLKKMag4nfb3NWEGZP+2VCAJoH0U1OWPRoOYOnVXzJx5m9GyjXTod9iENDY1Y9y4CXjrzXlmzrNIeOHCBbjkkosMSY8dO4YkF8LEbbc1ZKz9oI888khzHJYGWUWEIvbhw0dg3333oWatva9FhC3CsC/hC8pYXAO1fBMUqBLOMr8U8lmTl2uuuQbX/PGPpieggWF/Ns+AeC0OjqAHMkTAWqxSmVmFeCGJBF3ca0KUBIlQCBGSpL6HSJWVJOxyPhCKJZAjWchlSYp333cfCVZbXIos1eyCaE5lSTgeSThOYrHLeUNRbV1aMMdqpdnVzfOZZLaAdNaSjA7H/c53zjGnzfh0b054yWeYjkb+aGRYaYaZMjpzLh9EhpGSrwxRaD9iIzf0NK9NGL8NauvqjHCw6CIlrPffs1CwOv5p8eKPmJQQSU27jjHhTPy5537PaJkf23lnzJz1Lzz9zPMkurDZDOnC//0xvve9H6K5OUO/YaTSOSxdusL0JrTxV2VVlZnmZvJddL0D+4ZLnQYrZVqZeedMavVPmy1P95q6N1544UUceujhZjHTLbf8E8tXrOS7i9BJEZCt37ouvxOHXoObxdHH6OosDkGWYQ3gNGUKyJfV8eE8MiTUxkAVYk1LES6rAimaZJhDMBJERaoRlWUpJJvWUcuWrTiCMF15ugFZkgVVQjOLQ3saxKJ2MEzzeXVYbCpDgk7EEQnlkCahhEmwgea1GFabQCbbZGZ8xBNVWLOGZBzSoBPJN8K0BCsYjzayYX74XDm1be24J3ustDZzWrSOwSqEsCo3lKSl09hlPmGeJCDSa/m8sVS3SweW2Hif4WnHMDs41zuQINKqR2m8GgjUSeE6uFUkG4lQIBXXS+v9bagVt3z3Z3PIWX/Wf1/Dxs2y1rs3kCZviVufgjR+af/Kk9Afmr5D+3AE3cfoDkEbHSaQw/XXXY3tJm1DYrOLPVatWYtvfe1/cNNNf6cWq5F5qmvREC6//K94KTUO8+N7UAnUVLYAQg0fIPf4bxBPLYFHDW/KxAn421+uQya9juQj0onhgBmfwPBjLsLyikkIa/EKn4s3LsPQt/4fbvzTRRQAzYxbC1DKcMSRn6QWLdLVSsEc5r35JJqa04hR4y5jGvbYcz/8+4knEYtRg2f4ol3NpZ6831EY+skr0RCttV0DUnLq5ZmonfdPkp9H7Vo2aksarWGusrj6YyXh5sHPj+uoOmwaXM0Z0LANvK6uhkRNQsynEQwkqdXGsWoVu9EFrS5MiurgZRoRoBadDA/HmvBorAqOxMrwGNTHRiOTpx8Su7Q/7TKXTjeR8DySaIBdeWnWQdRX1GBVrBofRUZhcb4Wq8rGGJOHzijUjA9p8ul0MzLmgAULM6ODn2VlEWrk1DzJu7niaTRa4SgtPRYvIEqFO0jBtDpazXQx7NBQumFoTowytk9rF98SoeblmpjDpqMfao9faQeD60+wO1r8Jtgus7YxDBibsJkNFbIzJgoh6qmmF6tBwjQ86JBLa3c283I9DRJpsp3ypG0dmTt+9byMcfxGV0k/ipX3yMga+NNcYG1rqsEl3dHZd9ZHa9hriksmAr93oA+ZMtTDLuTjCHki8SCJX/ZoOqXHZER69pZK0g4Om45+YCE1xMHi+h++TVCp0cCNdn/TZkh5MTKdyNAexaPlHKJgO1XKUDEf1cnH2q/WDvoUyVCsbqD50/ouU4QGsrQ/h2Ym2+/aS1r7OG8EQ9h5M7MhyyDtTGsbumya9puJif+YKuOHKZCw4B/zmy6qdPGanrCU7uDgUAq/pToMQIgoNaVuyZLlfFMRspg9WTmnJYYkZw3uebkwNWStEiFh83ckkKLztDMGYoEcYoWk0WRFmSJzO+1L6naEmq1mcdAntdgAr2v+a4TP6a6Wj1valBDwnd0jWIN1IvTKijgS9OJXogy5vBAMmQFKxWciLkLnSoAaeJR6c4TPh/Me4gXZtuWn42poQmGAJkyHzYDK2TX5wQQ3SNgB7Ch4zxZP1wcJFa+WGgdw0PQD+TWLfC5r5idncnm8+OJLOOCAvamReiRX6bsFvPj626gvn4iP8sOpmfKKxg6DacTeexRharaap1tbXYm9Pr4zybloJmGDvf/BxxDf/lC8HxjJX9R0wxUYGW5E4u2HMf2AXSgQNIuDSShE8OBDj5vpWUqfzB+f+vRRSKfWUUDIYBHAww8/iqOPPoblZndPy+dI+OEyzHzkaawbd4gh+RA1c/FyY1M9qhYzvJiO7pIe3TH0LjRI2BtHXm0dkOgV2ugVOQxIOILuAP1L0NIcpal6+PpZZ2D8mNHQjnUyT2gl4SWX/BI//vGFJGjZpRku+e3Bx+dg1IRJmDh2KAmQaQ9UoCEfwq9/8iNk8jmSchhD6ypx/nnfJek2I5sleYai+M73LsSofb+AD6PjDdlncwFUZVehbOFd+NmPv82EpGBPPong/PN/zDhJ0NTsM5kkrv9/f0Bj4wrEqDkrzvPP/1+m6ycUBnkSfQwRhq9z+U45+1zU7f91pPlsRgRLjb1+8bsY+t69TLsETOdwBL25sIuHtATKYXDAEXQH6E+CNvephYqgb73lrxg1fAh/U/MkETY2NuEzJ52KmTNvRzCkDXpk1w3id1ddi32mTcd+U3dWCGa7pMaMhxOOOs7u38HYt58yAX+65grmK01yDiASSWDq/p9A+Yl/wfLysWYQT/OMq70GjH36Qtx6w8Uk5DQfDZNwy3DggYcyHEvQmhs9f96TCtiYpZWj/fadhif+rWl2umrLTscqTfr4cQgd93ssj9aS6M1lFN68D0NfutJsxCQbemcYfATt152uiJ++gF/GnfdWHAYGnEFqAEPN2idyfWhOdCCg3dQ0AyOLaDRinBZQaPBNS5M1O8Ms5KALIWuWX+eMLcMKG40PhsMFsyOb/CkcmSNyIa08pFZMUtG8jmzYnuas6X1Kg8I2e2cogiJCio+fpGoTr3/L33BHgsPfwU2zNvLBGHKBGMPTbntRfg+bQULtdrdlkoby5ZP0QEF76fHTWuoGG1jHNP5BJaZrfbKBj5bW5jBgIWK1TYaVj/VOlc/TtLvid7MchN9JuYYQZQvWP5k9/Od9FPL2hA17zQwH8kGp11p4IqcTVniVxO2Tpom/GIbZBKk4i8M8w7/rZ3H40Zj7uqt/skXbmSX8gSDj1mw9pZ3fSM5KfUv6OoPicdhU2HfWNnS9LTeYwNbAJGv/mMGUdjv+YttMaziC7gClxNYf0GQ3rRxctmIltYIgNdBgURMNI8d/HonQk8ZgGNVWyQi1WpkpzIpk3rA73YkKSYQkb4+V106FE6lrW1EtsxaRMlzGpSPjdXx8JNfE/KeMHwVutWJp3QxHphc6HaiaTNpKZGKhF+3jQXWbmoxiNTng9xzSFAJZMrO0m6ykCa9XFppJ0AEz3c6G0DZM9eUjPjm3TBN06Dn4b7HU+SU+eCCy0z7jgyvlfnlvjLavOvQ77F4JrGh8Q+dd8CNDyoVAAoFwOUk6QuU3StKKmO+ZfBhpL2CO+k+nSaBmEC+GqspqfPOb3yZx2lF7zeKYN28B4okEQybp+vGIWM1yQWv20PYZ5HkUwtqDgtSe14G1MSxY8B4JXdP96IGNQOQ+Z/aLyDHeFBVuCYpUOouQplczzLyMLPkQY9JBWFlU5NehOp9CgvGMiDRj3fwn4ek4L6PJOzhsnVA7bA9ukLCP0b1pdnLSfEly5DBfcwzydzKVQmVlpdGGZUfWrIhMWvs3l5kFJHpOG/PnPFmVFZeZicwgs/yVQSSmOc2WVYPBcqyIjMPqQhnCsknTWwXjq0q+g3iImm9Wh9UyDRISvOlvtKMBS3tsVgFliTiJmRo+Neh4PIFUsqm49zBj5nNNhRgWR7Y1C2ckBBJIIuE1IZ5LwfQHOigOExvvD769OBwcNg+OoPsY3ZlmZ1jJEDS13aJGbWGJWiYYe2yRNF5pv5bEFbQJXTYHmQ806ZjxWlqVf+vs0m3ZqvVAmBq51WQVrqbMyT4s+7GFnlE4JuT1UD6sKYjh8bvZmpQqtK7psvb+0O5wzYw9x/ATQZ3yErY5kKlE+dNf+de1NuAI2mFrhW3pDgMUllgN/7UBzaiQ2UJOxKzfPu8bygzI5ivrs5wPedBrZ7j5CJ3mxpKYGYk225cLiTj5KaGQNwH6CSgGXgLfTi9/ZqiR8eWKxK7nzUbwfD7PKIM6TZzXQ3ltT6r52xqQ1PMtqXNwcGiBI+gBDRGXoVo6kaNPri2Q1tqeNm7tzP5zmwaNircVb2toHof8+k7+/XTpwFWtPYzTT4TXpTNrENMfzJQzj7QDkwP1IBiOnTfi4LB1wBH0gEcpdW1ItNaM0L6z2HRyFuzTnYeh+AyRFp0PX4DoVEW5jUNq/cTG2MBHx14dHLYoOIJ2cNhqoDEGO87gMDjgCLoDtGc62ByENZ2tC+iNuB36GjLHDCSTzAZ9EYdBAEfQ/QBHvg79g4EmMBw6gyPoPobZBF8rOxy6jWYtWyScgNscdDQcuyVAlLZ5tKan7eyl/q9njqD7HAWkU0m++o41mZZBvq0XaiPW2UHPXNbOf3Zls6lQnRv8ZdexgN68XoKGsXOsbxGtDegjghYJtxeTI+g+hw5fTaG5qcl8d+gMBWSyGTQ2NiKbcwtUHHoXWuVaEQ7i+mPGoTyvNtq/cCsJO4Akde9oa3aOcCQaRbysHJFwpE0JuuHqQQut1OtPKN29Y2LYWFeQ5pzJZNBEYZYzp7AoXmnT/VsGXYefTqcH9SR6ul2WhmfqGOtXba4RDeEKaGOE3oZqh2JvK0eOoDtAT1eEjeEabscYLETs0JfozXZpWmTeblugzb/6ogZ2RNCOIRwcHByKyJOcDVn2vuLcJTiC7lf0pnbu4LBlojd7tSJmozkzjr7qv3WUG2ficHDoNTgbtMPmwdUcB4etBmrurskPJri31QE0UODgsOXAEfRgg3tbDg5bDczwl/3qMAgA/H8ggwKnDTjjmQAAAABJRU5ErkJggg==;" vertex="1" parent="1">
          <mxGeometry x="7" y="468" width="540" height="223.5" as="geometry" />
        </mxCell>
      </root>
    </mxGraphModel>
  </diagram>
  <diagram id="w5o-FRYlsOf2HkvCJ3do" name="Langchain">
    <mxGraphModel dx="523" dy="662" grid="1" gridSize="10" guides="1" tooltips="1" connect="1" arrows="1" fold="1" page="1" pageScale="1" pageWidth="850" pageHeight="1100" math="0" shadow="0">
      <root>
        <mxCell id="0" />
        <mxCell id="1" parent="0" />
        <mxCell id="cgK7Sclr0pB-ZbxwvVhr-3" value="" style="edgeStyle=orthogonalEdgeStyle;rounded=0;orthogonalLoop=1;jettySize=auto;html=1;" edge="1" parent="1" source="cgK7Sclr0pB-ZbxwvVhr-1" target="cgK7Sclr0pB-ZbxwvVhr-2">
          <mxGeometry relative="1" as="geometry" />
        </mxCell>
        <mxCell id="cgK7Sclr0pB-ZbxwvVhr-6" value="" style="edgeStyle=orthogonalEdgeStyle;rounded=0;orthogonalLoop=1;jettySize=auto;html=1;" edge="1" parent="1" source="cgK7Sclr0pB-ZbxwvVhr-1" target="cgK7Sclr0pB-ZbxwvVhr-5">
          <mxGeometry relative="1" as="geometry" />
        </mxCell>
        <mxCell id="cgK7Sclr0pB-ZbxwvVhr-8" value="" style="edgeStyle=orthogonalEdgeStyle;rounded=0;orthogonalLoop=1;jettySize=auto;html=1;" edge="1" parent="1" source="cgK7Sclr0pB-ZbxwvVhr-1" target="cgK7Sclr0pB-ZbxwvVhr-7">
          <mxGeometry relative="1" as="geometry" />
        </mxCell>
        <mxCell id="cgK7Sclr0pB-ZbxwvVhr-10" value="" style="edgeStyle=orthogonalEdgeStyle;rounded=0;orthogonalLoop=1;jettySize=auto;html=1;" edge="1" parent="1" source="cgK7Sclr0pB-ZbxwvVhr-1" target="cgK7Sclr0pB-ZbxwvVhr-9">
          <mxGeometry relative="1" as="geometry" />
        </mxCell>
        <mxCell id="cgK7Sclr0pB-ZbxwvVhr-12" value="" style="edgeStyle=orthogonalEdgeStyle;rounded=0;orthogonalLoop=1;jettySize=auto;html=1;" edge="1" parent="1" source="cgK7Sclr0pB-ZbxwvVhr-1" target="cgK7Sclr0pB-ZbxwvVhr-11">
          <mxGeometry relative="1" as="geometry" />
        </mxCell>
        <mxCell id="cgK7Sclr0pB-ZbxwvVhr-15" value="" style="edgeStyle=orthogonalEdgeStyle;rounded=0;orthogonalLoop=1;jettySize=auto;html=1;" edge="1" parent="1" source="cgK7Sclr0pB-ZbxwvVhr-1" target="cgK7Sclr0pB-ZbxwvVhr-14">
          <mxGeometry relative="1" as="geometry" />
        </mxCell>
        <mxCell id="cgK7Sclr0pB-ZbxwvVhr-16" value="" style="edgeStyle=orthogonalEdgeStyle;rounded=0;orthogonalLoop=1;jettySize=auto;html=1;" edge="1" parent="1" source="cgK7Sclr0pB-ZbxwvVhr-1" target="cgK7Sclr0pB-ZbxwvVhr-14">
          <mxGeometry relative="1" as="geometry" />
        </mxCell>
        <mxCell id="cgK7Sclr0pB-ZbxwvVhr-19" style="edgeStyle=orthogonalEdgeStyle;rounded=0;orthogonalLoop=1;jettySize=auto;html=1;entryX=0.5;entryY=0;entryDx=0;entryDy=0;" edge="1" parent="1" source="cgK7Sclr0pB-ZbxwvVhr-1" target="cgK7Sclr0pB-ZbxwvVhr-17">
          <mxGeometry relative="1" as="geometry" />
        </mxCell>
        <mxCell id="cgK7Sclr0pB-ZbxwvVhr-1" value="Langchain" style="rounded=0;whiteSpace=wrap;html=1;" vertex="1" parent="1">
          <mxGeometry x="160" y="130" width="120" height="30" as="geometry" />
        </mxCell>
        <mxCell id="cgK7Sclr0pB-ZbxwvVhr-2" value="Langsmith" style="whiteSpace=wrap;html=1;rounded=0;" vertex="1" parent="1">
          <mxGeometry x="50" y="10" width="120" height="30" as="geometry" />
        </mxCell>
        <mxCell id="cgK7Sclr0pB-ZbxwvVhr-5" value="langServe" style="whiteSpace=wrap;html=1;rounded=0;" vertex="1" parent="1">
          <mxGeometry x="240" y="10" width="120" height="30" as="geometry" />
        </mxCell>
        <mxCell id="cgK7Sclr0pB-ZbxwvVhr-7" value="Chains" style="whiteSpace=wrap;html=1;rounded=0;" vertex="1" parent="1">
          <mxGeometry y="127.5" width="120" height="35" as="geometry" />
        </mxCell>
        <mxCell id="cgK7Sclr0pB-ZbxwvVhr-21" value="" style="edgeStyle=orthogonalEdgeStyle;rounded=0;orthogonalLoop=1;jettySize=auto;html=1;" edge="1" parent="1" source="cgK7Sclr0pB-ZbxwvVhr-9" target="cgK7Sclr0pB-ZbxwvVhr-20">
          <mxGeometry relative="1" as="geometry" />
        </mxCell>
        <mxCell id="cgK7Sclr0pB-ZbxwvVhr-23" value="" style="edgeStyle=orthogonalEdgeStyle;rounded=0;orthogonalLoop=1;jettySize=auto;html=1;" edge="1" parent="1" source="cgK7Sclr0pB-ZbxwvVhr-9" target="cgK7Sclr0pB-ZbxwvVhr-22">
          <mxGeometry relative="1" as="geometry" />
        </mxCell>
        <mxCell id="cgK7Sclr0pB-ZbxwvVhr-9" value="LLM" style="whiteSpace=wrap;html=1;rounded=0;" vertex="1" parent="1">
          <mxGeometry x="310" y="127.5" width="120" height="35" as="geometry" />
        </mxCell>
        <mxCell id="cgK7Sclr0pB-ZbxwvVhr-11" value="Agents, Retrivals" style="whiteSpace=wrap;html=1;rounded=0;" vertex="1" parent="1">
          <mxGeometry x="50" y="230" width="120" height="30" as="geometry" />
        </mxCell>
        <mxCell id="cgK7Sclr0pB-ZbxwvVhr-14" value="LCEL(Langchain Expression Language)" style="whiteSpace=wrap;html=1;rounded=0;" vertex="1" parent="1">
          <mxGeometry x="140" y="280" width="160" height="32.5" as="geometry" />
        </mxCell>
        <mxCell id="cgK7Sclr0pB-ZbxwvVhr-17" value="Model I/O" style="whiteSpace=wrap;html=1;rounded=0;" vertex="1" parent="1">
          <mxGeometry x="270" y="230" width="120" height="32.5" as="geometry" />
        </mxCell>
        <mxCell id="cgK7Sclr0pB-ZbxwvVhr-20" value="Open Source&lt;br&gt;Meta (llama 2), Google(Gemma)" style="whiteSpace=wrap;html=1;rounded=0;" vertex="1" parent="1">
          <mxGeometry x="450" y="50" width="120" height="50" as="geometry" />
        </mxCell>
        <mxCell id="cgK7Sclr0pB-ZbxwvVhr-22" value="Paid&lt;br&gt;OpenAI, Google, Anthropic" style="whiteSpace=wrap;html=1;rounded=0;" vertex="1" parent="1">
          <mxGeometry x="450" y="190" width="120" height="50" as="geometry" />
        </mxCell>
        <mxCell id="cgK7Sclr0pB-ZbxwvVhr-24" value="Lnagchain is a framework we can use create any chat bot or agent" style="whiteSpace=wrap;html=1;" vertex="1" parent="1">
          <mxGeometry x="10" y="350" width="560" height="40" as="geometry" />
        </mxCell>
        <mxCell id="cgK7Sclr0pB-ZbxwvVhr-27" value="" style="edgeStyle=orthogonalEdgeStyle;rounded=0;orthogonalLoop=1;jettySize=auto;html=1;" edge="1" parent="1" source="cgK7Sclr0pB-ZbxwvVhr-25" target="cgK7Sclr0pB-ZbxwvVhr-26">
          <mxGeometry relative="1" as="geometry" />
        </mxCell>
        <mxCell id="cgK7Sclr0pB-ZbxwvVhr-29" value="" style="edgeStyle=orthogonalEdgeStyle;rounded=0;orthogonalLoop=1;jettySize=auto;html=1;" edge="1" parent="1" source="cgK7Sclr0pB-ZbxwvVhr-25" target="cgK7Sclr0pB-ZbxwvVhr-28">
          <mxGeometry relative="1" as="geometry" />
        </mxCell>
        <mxCell id="cgK7Sclr0pB-ZbxwvVhr-31" value="" style="edgeStyle=orthogonalEdgeStyle;rounded=0;orthogonalLoop=1;jettySize=auto;html=1;" edge="1" parent="1" source="cgK7Sclr0pB-ZbxwvVhr-25" target="cgK7Sclr0pB-ZbxwvVhr-30">
          <mxGeometry relative="1" as="geometry" />
        </mxCell>
        <mxCell id="cgK7Sclr0pB-ZbxwvVhr-32" value="" style="edgeStyle=orthogonalEdgeStyle;rounded=0;orthogonalLoop=1;jettySize=auto;html=1;" edge="1" parent="1" source="cgK7Sclr0pB-ZbxwvVhr-25" target="cgK7Sclr0pB-ZbxwvVhr-30">
          <mxGeometry relative="1" as="geometry" />
        </mxCell>
        <mxCell id="cgK7Sclr0pB-ZbxwvVhr-34" style="edgeStyle=orthogonalEdgeStyle;rounded=0;orthogonalLoop=1;jettySize=auto;html=1;" edge="1" parent="1" source="cgK7Sclr0pB-ZbxwvVhr-25" target="cgK7Sclr0pB-ZbxwvVhr-33">
          <mxGeometry relative="1" as="geometry" />
        </mxCell>
        <mxCell id="cgK7Sclr0pB-ZbxwvVhr-25" value="LangChain Ecosystem" style="rounded=0;whiteSpace=wrap;html=1;" vertex="1" parent="1">
          <mxGeometry x="10" y="420" width="640" height="60" as="geometry" />
        </mxCell>
        <mxCell id="cgK7Sclr0pB-ZbxwvVhr-26" value="Developing the app" style="rounded=0;whiteSpace=wrap;html=1;" vertex="1" parent="1">
          <mxGeometry x="20" y="510" width="120" height="60" as="geometry" />
        </mxCell>
        <mxCell id="cgK7Sclr0pB-ZbxwvVhr-28" value="API: Langserve" style="whiteSpace=wrap;html=1;rounded=0;" vertex="1" parent="1">
          <mxGeometry x="150" y="550" width="120" height="40" as="geometry" />
        </mxCell>
        <mxCell id="cgK7Sclr0pB-ZbxwvVhr-30" value="LLMOPS (Monitor, test, Evaluate)&lt;br&gt;Langsmith" style="whiteSpace=wrap;html=1;rounded=0;" vertex="1" parent="1">
          <mxGeometry x="320" y="550" width="120" height="60" as="geometry" />
        </mxCell>
        <mxCell id="cgK7Sclr0pB-ZbxwvVhr-33" value="One click Deployment" style="rounded=0;whiteSpace=wrap;html=1;" vertex="1" parent="1">
          <mxGeometry x="500" y="550" width="120" height="60" as="geometry" />
        </mxCell>
      </root>
    </mxGraphModel>
  </diagram>
  <diagram id="hvnrB_JERGnTfAzHniiV" name="Crewai">
    <mxGraphModel dx="486" dy="614" grid="1" gridSize="10" guides="1" tooltips="1" connect="1" arrows="1" fold="1" page="1" pageScale="1" pageWidth="850" pageHeight="1100" math="0" shadow="0">
      <root>
        <mxCell id="0" />
        <mxCell id="1" parent="0" />
        <mxCell id="letuwoe0e5ClnjYnaf7b-10" value="" style="edgeStyle=orthogonalEdgeStyle;rounded=0;orthogonalLoop=1;jettySize=auto;html=1;" edge="1" parent="1" source="letuwoe0e5ClnjYnaf7b-1" target="letuwoe0e5ClnjYnaf7b-9">
          <mxGeometry relative="1" as="geometry" />
        </mxCell>
        <mxCell id="letuwoe0e5ClnjYnaf7b-12" value="" style="edgeStyle=orthogonalEdgeStyle;rounded=0;orthogonalLoop=1;jettySize=auto;html=1;" edge="1" parent="1" source="letuwoe0e5ClnjYnaf7b-1" target="letuwoe0e5ClnjYnaf7b-11">
          <mxGeometry relative="1" as="geometry" />
        </mxCell>
        <mxCell id="letuwoe0e5ClnjYnaf7b-13" value="" style="edgeStyle=orthogonalEdgeStyle;rounded=0;orthogonalLoop=1;jettySize=auto;html=1;" edge="1" parent="1" source="letuwoe0e5ClnjYnaf7b-1" target="letuwoe0e5ClnjYnaf7b-11">
          <mxGeometry relative="1" as="geometry" />
        </mxCell>
        <mxCell id="letuwoe0e5ClnjYnaf7b-16" style="edgeStyle=orthogonalEdgeStyle;rounded=0;orthogonalLoop=1;jettySize=auto;html=1;" edge="1" parent="1" source="letuwoe0e5ClnjYnaf7b-1" target="letuwoe0e5ClnjYnaf7b-14">
          <mxGeometry relative="1" as="geometry" />
        </mxCell>
        <mxCell id="letuwoe0e5ClnjYnaf7b-1" value="Crewai" style="rounded=0;whiteSpace=wrap;html=1;" vertex="1" parent="1">
          <mxGeometry x="40" y="20" width="440" height="30" as="geometry" />
        </mxCell>
        <mxCell id="letuwoe0e5ClnjYnaf7b-9" value="Agent" style="whiteSpace=wrap;html=1;rounded=0;" vertex="1" parent="1">
          <mxGeometry x="50" y="110" width="120" height="40" as="geometry" />
        </mxCell>
        <mxCell id="letuwoe0e5ClnjYnaf7b-11" value="Task" style="rounded=0;whiteSpace=wrap;html=1;" vertex="1" parent="1">
          <mxGeometry x="200" y="110" width="120" height="40" as="geometry" />
        </mxCell>
        <mxCell id="letuwoe0e5ClnjYnaf7b-14" value="Tools" style="rounded=0;whiteSpace=wrap;html=1;" vertex="1" parent="1">
          <mxGeometry x="360" y="110" width="120" height="40" as="geometry" />
        </mxCell>
      </root>
    </mxGraphModel>
  </diagram>
</mxfile>
